<svg width="26" height="51" viewBox="0 0 26 51" fill="none" xmlns="http://www.w3.org/2000/svg">
<path fill-rule="evenodd" clip-rule="evenodd" d="M16.5897 21.4817L18.1753 20.3645C20.4968 18.7288 22 16.0397 22 13C22 8.02944 17.9706 4 13 4C8.02944 4 4 8.02944 4 13C4 16.0397 5.50319 18.7288 7.82471 20.3645L9.41025 21.4817L10.7896 47H15.2104L16.5897 21.4817ZM19 51H7L5.52078 23.6344C2.18145 21.2815 0 17.3955 0 13C0 5.8203 5.8203 0 13 0C20.1797 0 26 5.8203 26 13C26 17.3955 23.8185 21.2815 20.4792 23.6344L19 51Z" fill="#02363C"/>
</svg>
