<svg width="147" height="54" viewBox="0 0 147 54" fill="none" xmlns="http://www.w3.org/2000/svg">
<path d="M43.8018 2.2203H54.5478V15.0003H51.5958V4.8123H46.7718V15.0003H43.8018V2.2203Z" fill="white"/>
<path d="M62.6524 15.1083C61.7044 15.1083 60.8404 14.9223 60.0604 14.5503C59.2804 14.1783 58.6144 13.6923 58.0624 13.0923C57.5104 12.4803 57.0784 11.7843 56.7664 11.0043C56.4664 10.2243 56.3164 9.42031 56.3164 8.59231C56.3164 7.75231 56.4724 6.9423 56.7844 6.1623C57.1084 5.3823 57.5524 4.6983 58.1164 4.1103C58.6924 3.5103 59.3704 3.0363 60.1504 2.6883C60.9304 2.3283 61.7824 2.1483 62.7064 2.1483C63.6544 2.1483 64.5184 2.3343 65.2984 2.7063C66.0784 3.0783 66.7444 3.5703 67.2964 4.1823C67.8484 4.7943 68.2744 5.4903 68.5744 6.2703C68.8744 7.0503 69.0244 7.84231 69.0244 8.64631C69.0244 9.48631 68.8624 10.2963 68.5384 11.0763C68.2264 11.8563 67.7884 12.5463 67.2244 13.1463C66.6604 13.7343 65.9884 14.2083 65.2084 14.5683C64.4284 14.9283 63.5764 15.1083 62.6524 15.1083ZM59.3224 8.62831C59.3224 9.12031 59.3944 9.60031 59.5384 10.0683C59.6824 10.5243 59.8924 10.9323 60.1684 11.2923C60.4564 11.6523 60.8104 11.9403 61.2304 12.1563C61.6504 12.3723 62.1304 12.4803 62.6704 12.4803C63.2344 12.4803 63.7264 12.3663 64.1464 12.1383C64.5664 11.9103 64.9144 11.6163 65.1904 11.2563C65.4664 10.8843 65.6704 10.4703 65.8024 10.0143C65.9464 9.54631 66.0184 9.07231 66.0184 8.59231C66.0184 8.10031 65.9464 7.62631 65.8024 7.1703C65.6584 6.7023 65.4424 6.2943 65.1544 5.9463C64.8664 5.5863 64.5124 5.3043 64.0924 5.10031C63.6844 4.88431 63.2104 4.7763 62.6704 4.7763C62.1064 4.7763 61.6144 4.8903 61.1944 5.1183C60.7864 5.3343 60.4384 5.6223 60.1504 5.9823C59.8744 6.34231 59.6644 6.75631 59.5204 7.22431C59.3884 7.68031 59.3224 8.1483 59.3224 8.62831Z" fill="white"/>
<path d="M74.7744 6.6483C74.6184 8.2683 74.4204 9.6243 74.1804 10.7163C73.9524 11.7963 73.6344 12.6663 73.2264 13.3263C72.8184 13.9743 72.2964 14.4363 71.6604 14.7123C71.0244 14.9883 70.2324 15.1263 69.2844 15.1263L69.1944 12.5343C69.6264 12.4863 69.9864 12.3843 70.2744 12.2283C70.5744 12.0603 70.8264 11.7483 71.0304 11.2923C71.2344 10.8243 71.4024 10.1643 71.5344 9.3123C71.6784 8.4603 71.8164 7.3203 71.9484 5.8923L72.2724 2.2203H80.5704V15.0003H77.6184V4.8123H74.9544L74.7744 6.6483Z" fill="white"/>
<path d="M92.106 12.4083V15.0003H83.124V2.2203H91.944V4.8123H86.076V7.2963H91.116V9.6903H86.076V12.4083H92.106Z" fill="white"/>
<path d="M93.0731 3.93031C93.6491 3.3303 94.2971 2.8803 95.0171 2.5803C95.7491 2.2683 96.6131 2.1123 97.6091 2.1123C98.8691 2.1123 99.8711 2.3883 100.615 2.9403C101.359 3.4923 101.731 4.30831 101.731 5.3883C101.731 5.9883 101.581 6.5463 101.281 7.0623C100.993 7.5783 100.495 7.9623 99.7871 8.2143C100.579 8.4063 101.179 8.77831 101.587 9.33031C102.007 9.87031 102.217 10.5303 102.217 11.3103C102.217 11.9103 102.097 12.4503 101.857 12.9303C101.617 13.3983 101.281 13.7943 100.849 14.1183C100.429 14.4423 99.9251 14.6883 99.3371 14.8563C98.7611 15.0243 98.1371 15.1083 97.4651 15.1083C96.4931 15.1083 95.6411 14.9703 94.9091 14.6943C94.1771 14.4063 93.4811 13.9623 92.8211 13.3623L94.3331 11.1843C94.7411 11.5683 95.1791 11.8803 95.6471 12.1203C96.1271 12.3483 96.6911 12.4623 97.3391 12.4623C97.8791 12.4623 98.3231 12.3303 98.6711 12.0663C99.0311 11.7903 99.2111 11.3823 99.2111 10.8423C99.2111 10.3863 99.0431 10.0023 98.7071 9.6903C98.3831 9.3783 97.8551 9.22231 97.1231 9.22231H95.5751V7.1703H96.9071C97.5911 7.1703 98.1071 7.0503 98.4551 6.81031C98.8031 6.5703 98.9771 6.2283 98.9771 5.7843C98.9771 5.4003 98.8511 5.1063 98.5991 4.9023C98.3471 4.6863 97.9571 4.5783 97.4291 4.5783C96.8531 4.5783 96.3371 4.6803 95.8811 4.8843C95.4371 5.0883 95.0171 5.3823 94.6211 5.7663L93.0731 3.93031Z" fill="white"/>
<path d="M115.022 2.2203V15.0003H112.07V9.76231H106.976V15.0003H104.024V2.2203H106.976V7.1703H112.07V2.2203H115.022Z" fill="white"/>
<path d="M117.595 2.2203H120.565V6.59431H122.833C123.517 6.59431 124.135 6.6903 124.687 6.8823C125.251 7.0623 125.731 7.3323 126.127 7.6923C126.523 8.0403 126.829 8.47231 127.045 8.98831C127.261 9.50431 127.369 10.0863 127.369 10.7343C127.369 11.4063 127.261 12.0063 127.045 12.5343C126.841 13.0623 126.541 13.5123 126.145 13.8843C125.761 14.2443 125.299 14.5203 124.759 14.7123C124.219 14.9043 123.619 15.0003 122.959 15.0003H117.595V2.2203ZM128.971 15.0003V2.2203H131.923V15.0003H128.971ZM120.565 12.4983H122.599C123.187 12.4983 123.625 12.3423 123.913 12.0303C124.213 11.7063 124.363 11.2683 124.363 10.7163C124.363 10.2123 124.213 9.7923 123.913 9.4563C123.613 9.1083 123.175 8.93431 122.599 8.93431H120.565V12.4983Z" fill="white"/>
<path d="M143.487 12.4083V15.0003H134.505V2.2203H143.325V4.8123H137.457V7.2963H142.497V9.6903H137.457V12.4083H143.487Z" fill="white"/>
<path d="M46.7538 25.2963H47.4198L51.1458 20.2203H54.4758L49.8858 26.3943L54.8898 33.0003H51.5958L47.6898 27.9783H46.7538V33.0003H43.8018V20.2203H46.7538V25.2963Z" fill="white"/>
<path d="M59.2804 20.2203H61.9444L66.6064 33.0003H63.5824L62.5924 30.1383H58.6144L57.6424 33.0003H54.6184L59.2804 20.2203ZM62.1064 28.1043L60.6124 23.5863L59.0824 28.1043H62.1064Z" fill="white"/>
<path d="M78.917 20.2203V33.0003H75.965V27.7623H70.871V33.0003H67.919V20.2203H70.871V25.1703H75.965V20.2203H78.917Z" fill="white"/>
<path d="M84.4593 28.4103L90.4713 20.2203H92.6673V33.0003H89.7153V25.0083L83.7753 33.0003H81.4893V20.2203H84.4593V28.4103Z" fill="white"/>
<path d="M98.1698 25.2963H98.8358L102.562 20.2203H105.892L101.302 26.3943L106.306 33.0003H103.012L99.1058 27.9783H98.1698V33.0003H95.2178V20.2203H98.1698V25.2963Z" fill="white"/>
<path d="M109.67 33.1263C109.538 33.1263 109.382 33.1143 109.202 33.0903C109.022 33.0663 108.836 33.0363 108.644 33.0003C108.464 32.9523 108.284 32.8923 108.104 32.8203C107.924 32.7483 107.762 32.6583 107.618 32.5503L108.14 30.1203C108.236 30.1803 108.398 30.2703 108.626 30.3903C108.854 30.5103 109.106 30.5703 109.382 30.5703C109.694 30.5703 109.958 30.4863 110.174 30.3183C110.39 30.1503 110.564 29.8743 110.696 29.4903L105.98 20.2203H109.22L112.028 26.5563L114.62 20.2203H117.734L113.234 29.9403C112.97 30.5163 112.712 31.0083 112.46 31.4163C112.22 31.8123 111.962 32.1363 111.686 32.3883C111.41 32.6403 111.11 32.8263 110.786 32.9463C110.462 33.0663 110.09 33.1263 109.67 33.1263Z" fill="white"/>
<path d="M121.831 24.6483C121.675 26.2683 121.477 27.6243 121.237 28.7163C121.009 29.7963 120.691 30.6663 120.283 31.3263C119.875 31.9743 119.353 32.4363 118.717 32.7123C118.081 32.9883 117.289 33.1263 116.341 33.1263L116.251 30.5343C116.683 30.4863 117.043 30.3843 117.331 30.2283C117.631 30.0603 117.883 29.7483 118.087 29.2923C118.291 28.8243 118.459 28.1643 118.591 27.3123C118.735 26.4603 118.873 25.3203 119.005 23.8923L119.329 20.2203H127.627V33.0003H124.675V22.8123H122.011L121.831 24.6483Z" fill="white"/>
<path d="M130.181 20.2203H133.151V24.5943H135.419C136.103 24.5943 136.721 24.6903 137.273 24.8823C137.837 25.0623 138.317 25.3323 138.713 25.6923C139.109 26.0403 139.415 26.4723 139.631 26.9883C139.847 27.5043 139.955 28.0863 139.955 28.7343C139.955 29.4063 139.847 30.0063 139.631 30.5343C139.427 31.0623 139.127 31.5123 138.731 31.8843C138.347 32.2443 137.885 32.5203 137.345 32.7123C136.805 32.9043 136.205 33.0003 135.545 33.0003H130.181V20.2203ZM141.557 33.0003V20.2203H144.509V33.0003H141.557ZM133.151 30.4983H135.185C135.773 30.4983 136.211 30.3423 136.499 30.0303C136.799 29.7063 136.949 29.2683 136.949 28.7163C136.949 28.2123 136.799 27.7923 136.499 27.4563C136.199 27.1083 135.761 26.9343 135.185 26.9343H133.151V30.4983Z" fill="white"/>
<path d="M49.3458 51.1083C48.3978 51.1083 47.5338 50.9223 46.7538 50.5503C45.9738 50.1783 45.3078 49.6923 44.7558 49.0923C44.2038 48.4803 43.7718 47.7843 43.4598 47.0043C43.1598 46.2243 43.0098 45.4203 43.0098 44.5923C43.0098 43.7523 43.1658 42.9423 43.4778 42.1623C43.8018 41.3823 44.2458 40.6983 44.8098 40.1103C45.3858 39.5103 46.0638 39.0363 46.8438 38.6883C47.6238 38.3283 48.4758 38.1483 49.3998 38.1483C50.3478 38.1483 51.2118 38.3343 51.9918 38.7063C52.7718 39.0783 53.4378 39.5703 53.9898 40.1823C54.5418 40.7943 54.9678 41.4903 55.2678 42.2703C55.5678 43.0503 55.7178 43.8423 55.7178 44.6463C55.7178 45.4863 55.5558 46.2963 55.2318 47.0763C54.9198 47.8563 54.4818 48.5463 53.9178 49.1463C53.3538 49.7343 52.6818 50.2083 51.9018 50.5683C51.1218 50.9283 50.2698 51.1083 49.3458 51.1083ZM46.0158 44.6283C46.0158 45.1203 46.0878 45.6003 46.2318 46.0683C46.3758 46.5243 46.5858 46.9323 46.8618 47.2923C47.1498 47.6523 47.5038 47.9403 47.9238 48.1563C48.3438 48.3723 48.8238 48.4803 49.3638 48.4803C49.9278 48.4803 50.4198 48.3663 50.8398 48.1383C51.2598 47.9103 51.6078 47.6163 51.8838 47.2563C52.1598 46.8843 52.3638 46.4703 52.4958 46.0143C52.6398 45.5463 52.7118 45.0723 52.7118 44.5923C52.7118 44.1003 52.6398 43.6263 52.4958 43.1703C52.3518 42.7023 52.1358 42.2943 51.8478 41.9463C51.5598 41.5863 51.2058 41.3043 50.7858 41.1003C50.3778 40.8843 49.9038 40.7763 49.3638 40.7763C48.7998 40.7763 48.3078 40.8903 47.8878 41.1183C47.4798 41.3343 47.1318 41.6223 46.8438 41.9823C46.5678 42.3423 46.3578 42.7563 46.2138 43.2243C46.0818 43.6803 46.0158 44.1483 46.0158 44.6283Z" fill="white"/>
<path d="M66.5639 40.8123H62.6759V51.0003H59.7239V40.8123H55.8179V38.2203H66.5639V40.8123Z" fill="white"/>
<path d="M77.0416 48.4083V51.0003H68.0596V38.2203H76.8796V40.8123H71.0116V43.2963H76.0516V45.6903H71.0116V48.4083H77.0416Z" fill="white"/>
<path d="M83.3877 42.6483C83.2317 44.2683 83.0337 45.6243 82.7937 46.7163C82.5657 47.7963 82.2477 48.6663 81.8397 49.3263C81.4317 49.9743 80.9097 50.4363 80.2737 50.7123C79.6377 50.9883 78.8457 51.1263 77.8977 51.1263L77.8077 48.5343C78.2397 48.4863 78.5997 48.3843 78.8877 48.2283C79.1877 48.0603 79.4397 47.7483 79.6437 47.2923C79.8477 46.8243 80.0157 46.1643 80.1477 45.3123C80.2917 44.4603 80.4297 43.3203 80.5617 41.8923L80.8857 38.2203H89.1837V51.0003H86.2317V40.8123H83.5677L83.3877 42.6483Z" fill="white"/>
<path d="M91.7373 38.2203H94.7073V42.5943H96.9753C97.6593 42.5943 98.2773 42.6903 98.8293 42.8823C99.3933 43.0623 99.8733 43.3323 100.269 43.6923C100.665 44.0403 100.971 44.4723 101.187 44.9883C101.403 45.5043 101.511 46.0863 101.511 46.7343C101.511 47.4063 101.403 48.0063 101.187 48.5343C100.983 49.0623 100.683 49.5123 100.287 49.8843C99.9033 50.2443 99.4413 50.5203 98.9013 50.7123C98.3613 50.9043 97.7613 51.0003 97.1013 51.0003H91.7373V38.2203ZM94.7073 48.4983H96.7413C97.3293 48.4983 97.7673 48.3423 98.0553 48.0303C98.3553 47.7063 98.5053 47.2683 98.5053 46.7163C98.5053 46.2123 98.3553 45.7923 98.0553 45.4563C97.7553 45.1083 97.3173 44.9343 96.7413 44.9343H94.7073V48.4983Z" fill="white"/>
<path d="M112.163 48.4083V51.0003H103.181V38.2203H112.001V40.8123H106.133V43.2963H111.173V45.6903H106.133V48.4083H112.163Z" fill="white"/>
<path d="M114.009 51.0003V38.2203H119.463C120.075 38.2203 120.633 38.3463 121.137 38.5983C121.653 38.8503 122.091 39.1803 122.451 39.5883C122.823 39.9963 123.111 40.4583 123.315 40.9743C123.531 41.4903 123.639 42.0123 123.639 42.5403C123.639 43.1043 123.537 43.6443 123.333 44.1603C123.141 44.6763 122.865 45.1383 122.505 45.5463C122.157 45.9543 121.731 46.2783 121.227 46.5183C120.723 46.7583 120.165 46.8783 119.553 46.8783H116.961V51.0003H114.009ZM116.961 44.3043H119.373C119.721 44.3043 120.021 44.1543 120.273 43.8543C120.525 43.5543 120.651 43.1163 120.651 42.5403C120.651 42.2403 120.609 41.9823 120.525 41.7663C120.453 41.5503 120.351 41.3703 120.219 41.2263C120.087 41.0823 119.937 40.9803 119.769 40.9203C119.601 40.8483 119.433 40.8123 119.265 40.8123H116.961V44.3043Z" fill="white"/>
<path d="M127.888 38.2203H130.552L135.214 51.0003H132.19L131.2 48.1383H127.222L126.25 51.0003H123.226L127.888 38.2203ZM130.714 46.1043L129.22 41.5863L127.69 46.1043H130.714Z" fill="white"/>
<path fill-rule="evenodd" clip-rule="evenodd" d="M16.5897 21.4817L18.1753 20.3645C20.4968 18.7288 22 16.0397 22 13C22 8.02944 17.9706 4 13 4C8.02944 4 4 8.02944 4 13C4 16.0397 5.50319 18.7288 7.82471 20.3645L9.41025 21.4817L10.7896 47H15.2104L16.5897 21.4817ZM19 51H7L5.52078 23.6344C2.18145 21.2815 0 17.3955 0 13C0 5.8203 5.8203 0 13 0C20.1797 0 26 5.8203 26 13C26 17.3955 23.8185 21.2815 20.4792 23.6344L19 51Z" fill="white"/>
</svg>
