<svg width="147" height="54" viewBox="0 0 147 54" fill="none" xmlns="http://www.w3.org/2000/svg">
<path d="M43.8018 2.21982H54.5478V14.9998H51.5958V4.81182H46.7718V14.9998H43.8018V2.21982Z" fill="#02363C"/>
<path d="M62.6524 15.1078C61.7044 15.1078 60.8404 14.9218 60.0604 14.5498C59.2804 14.1778 58.6144 13.6918 58.0624 13.0918C57.5104 12.4798 57.0784 11.7838 56.7664 11.0038C56.4664 10.2238 56.3164 9.41982 56.3164 8.59182C56.3164 7.75182 56.4724 6.94182 56.7844 6.16182C57.1084 5.38182 57.5524 4.69782 58.1164 4.10982C58.6924 3.50982 59.3704 3.03582 60.1504 2.68782C60.9304 2.32782 61.7824 2.14782 62.7064 2.14782C63.6544 2.14782 64.5184 2.33382 65.2984 2.70582C66.0784 3.07782 66.7444 3.56982 67.2964 4.18182C67.8484 4.79382 68.2744 5.48982 68.5744 6.26982C68.8744 7.04982 69.0244 7.84182 69.0244 8.64582C69.0244 9.48582 68.8624 10.2958 68.5384 11.0758C68.2264 11.8558 67.7884 12.5458 67.2244 13.1458C66.6604 13.7338 65.9884 14.2078 65.2084 14.5678C64.4284 14.9278 63.5764 15.1078 62.6524 15.1078ZM59.3224 8.62782C59.3224 9.11982 59.3944 9.59982 59.5384 10.0678C59.6824 10.5238 59.8924 10.9318 60.1684 11.2918C60.4564 11.6518 60.8104 11.9398 61.2304 12.1558C61.6504 12.3718 62.1304 12.4798 62.6704 12.4798C63.2344 12.4798 63.7264 12.3658 64.1464 12.1378C64.5664 11.9098 64.9144 11.6158 65.1904 11.2558C65.4664 10.8838 65.6704 10.4698 65.8024 10.0138C65.9464 9.54582 66.0184 9.07182 66.0184 8.59182C66.0184 8.09982 65.9464 7.62582 65.8024 7.16982C65.6584 6.70182 65.4424 6.29382 65.1544 5.94582C64.8664 5.58582 64.5124 5.30382 64.0924 5.09982C63.6844 4.88382 63.2104 4.77582 62.6704 4.77582C62.1064 4.77582 61.6144 4.88982 61.1944 5.11782C60.7864 5.33382 60.4384 5.62182 60.1504 5.98182C59.8744 6.34182 59.6644 6.75582 59.5204 7.22382C59.3884 7.67982 59.3224 8.14782 59.3224 8.62782Z" fill="#02363C"/>
<path d="M74.7744 6.64782C74.6184 8.26782 74.4204 9.62382 74.1804 10.7158C73.9524 11.7958 73.6344 12.6658 73.2264 13.3258C72.8184 13.9738 72.2964 14.4358 71.6604 14.7118C71.0244 14.9878 70.2324 15.1258 69.2844 15.1258L69.1944 12.5338C69.6264 12.4858 69.9864 12.3838 70.2744 12.2278C70.5744 12.0598 70.8264 11.7478 71.0304 11.2918C71.2344 10.8238 71.4024 10.1638 71.5344 9.31182C71.6784 8.45982 71.8164 7.31982 71.9484 5.89182L72.2724 2.21982H80.5704V14.9998H77.6184V4.81182H74.9544L74.7744 6.64782Z" fill="#02363C"/>
<path d="M92.106 12.4078V14.9998H83.124V2.21982H91.944V4.81182H86.076V7.29582H91.116V9.68982H86.076V12.4078H92.106Z" fill="#02363C"/>
<path d="M93.0731 3.92982C93.6491 3.32982 94.2971 2.87982 95.0171 2.57982C95.7491 2.26782 96.6131 2.11182 97.6091 2.11182C98.8691 2.11182 99.8711 2.38782 100.615 2.93982C101.359 3.49182 101.731 4.30782 101.731 5.38782C101.731 5.98782 101.581 6.54582 101.281 7.06182C100.993 7.57782 100.495 7.96182 99.7871 8.21382C100.579 8.40582 101.179 8.77782 101.587 9.32982C102.007 9.86982 102.217 10.5298 102.217 11.3098C102.217 11.9098 102.097 12.4498 101.857 12.9298C101.617 13.3978 101.281 13.7938 100.849 14.1178C100.429 14.4418 99.9251 14.6878 99.3371 14.8558C98.7611 15.0238 98.1371 15.1078 97.4651 15.1078C96.4931 15.1078 95.6411 14.9698 94.9091 14.6938C94.1771 14.4058 93.4811 13.9618 92.8211 13.3618L94.3331 11.1838C94.7411 11.5678 95.1791 11.8798 95.6471 12.1198C96.1271 12.3478 96.6911 12.4618 97.3391 12.4618C97.8791 12.4618 98.3231 12.3298 98.6711 12.0658C99.0311 11.7898 99.2111 11.3818 99.2111 10.8418C99.2111 10.3858 99.0431 10.0018 98.7071 9.68982C98.3831 9.37782 97.8551 9.22182 97.1231 9.22182H95.5751V7.16982H96.9071C97.5911 7.16982 98.1071 7.04982 98.4551 6.80982C98.8031 6.56982 98.9771 6.22782 98.9771 5.78382C98.9771 5.39982 98.8511 5.10582 98.5991 4.90182C98.3471 4.68582 97.9571 4.57782 97.4291 4.57782C96.8531 4.57782 96.3371 4.67982 95.8811 4.88382C95.4371 5.08782 95.0171 5.38182 94.6211 5.76582L93.0731 3.92982Z" fill="#02363C"/>
<path d="M115.022 2.21982V14.9998H112.07V9.76182H106.976V14.9998H104.024V2.21982H106.976V7.16982H112.07V2.21982H115.022Z" fill="#02363C"/>
<path d="M117.595 2.21982H120.565V6.59382H122.833C123.517 6.59382 124.135 6.68982 124.687 6.88182C125.251 7.06182 125.731 7.33182 126.127 7.69182C126.523 8.03982 126.829 8.47182 127.045 8.98782C127.261 9.50382 127.369 10.0858 127.369 10.7338C127.369 11.4058 127.261 12.0058 127.045 12.5338C126.841 13.0618 126.541 13.5118 126.145 13.8838C125.761 14.2438 125.299 14.5198 124.759 14.7118C124.219 14.9038 123.619 14.9998 122.959 14.9998H117.595V2.21982ZM128.971 14.9998V2.21982H131.923V14.9998H128.971ZM120.565 12.4978H122.599C123.187 12.4978 123.625 12.3418 123.913 12.0298C124.213 11.7058 124.363 11.2678 124.363 10.7158C124.363 10.2118 124.213 9.79182 123.913 9.45582C123.613 9.10782 123.175 8.93382 122.599 8.93382H120.565V12.4978Z" fill="#02363C"/>
<path d="M143.487 12.4078V14.9998H134.505V2.21982H143.325V4.81182H137.457V7.29582H142.497V9.68982H137.457V12.4078H143.487Z" fill="#02363C"/>
<path d="M46.7538 25.2958H47.4198L51.1458 20.2198H54.4758L49.8858 26.3938L54.8898 32.9998H51.5958L47.6898 27.9778H46.7538V32.9998H43.8018V20.2198H46.7538V25.2958Z" fill="#02363C"/>
<path d="M59.2804 20.2198H61.9444L66.6064 32.9998H63.5824L62.5924 30.1378H58.6144L57.6424 32.9998H54.6184L59.2804 20.2198ZM62.1064 28.1038L60.6124 23.5858L59.0824 28.1038H62.1064Z" fill="#02363C"/>
<path d="M78.917 20.2198V32.9998H75.965V27.7618H70.871V32.9998H67.919V20.2198H70.871V25.1698H75.965V20.2198H78.917Z" fill="#02363C"/>
<path d="M84.4593 28.4098L90.4713 20.2198H92.6673V32.9998H89.7153V25.0078L83.7753 32.9998H81.4893V20.2198H84.4593V28.4098Z" fill="#02363C"/>
<path d="M98.1698 25.2958H98.8358L102.562 20.2198H105.892L101.302 26.3938L106.306 32.9998H103.012L99.1058 27.9778H98.1698V32.9998H95.2178V20.2198H98.1698V25.2958Z" fill="#02363C"/>
<path d="M109.67 33.1258C109.538 33.1258 109.382 33.1138 109.202 33.0898C109.022 33.0658 108.836 33.0358 108.644 32.9998C108.464 32.9518 108.284 32.8918 108.104 32.8198C107.924 32.7478 107.762 32.6578 107.618 32.5498L108.14 30.1198C108.236 30.1798 108.398 30.2698 108.626 30.3898C108.854 30.5098 109.106 30.5698 109.382 30.5698C109.694 30.5698 109.958 30.4858 110.174 30.3178C110.39 30.1498 110.564 29.8738 110.696 29.4898L105.98 20.2198H109.22L112.028 26.5558L114.62 20.2198H117.734L113.234 29.9398C112.97 30.5158 112.712 31.0078 112.46 31.4158C112.22 31.8118 111.962 32.1358 111.686 32.3878C111.41 32.6398 111.11 32.8258 110.786 32.9458C110.462 33.0658 110.09 33.1258 109.67 33.1258Z" fill="#02363C"/>
<path d="M121.831 24.6478C121.675 26.2678 121.477 27.6238 121.237 28.7158C121.009 29.7958 120.691 30.6658 120.283 31.3258C119.875 31.9738 119.353 32.4358 118.717 32.7118C118.081 32.9878 117.289 33.1258 116.341 33.1258L116.251 30.5338C116.683 30.4858 117.043 30.3838 117.331 30.2278C117.631 30.0598 117.883 29.7478 118.087 29.2918C118.291 28.8238 118.459 28.1638 118.591 27.3118C118.735 26.4598 118.873 25.3198 119.005 23.8918L119.329 20.2198H127.627V32.9998H124.675V22.8118H122.011L121.831 24.6478Z" fill="#02363C"/>
<path d="M130.181 20.2198H133.151V24.5938H135.419C136.103 24.5938 136.721 24.6898 137.273 24.8818C137.837 25.0618 138.317 25.3318 138.713 25.6918C139.109 26.0398 139.415 26.4718 139.631 26.9878C139.847 27.5038 139.955 28.0858 139.955 28.7338C139.955 29.4058 139.847 30.0058 139.631 30.5338C139.427 31.0618 139.127 31.5118 138.731 31.8838C138.347 32.2438 137.885 32.5198 137.345 32.7118C136.805 32.9038 136.205 32.9998 135.545 32.9998H130.181V20.2198ZM141.557 32.9998V20.2198H144.509V32.9998H141.557ZM133.151 30.4978H135.185C135.773 30.4978 136.211 30.3418 136.499 30.0298C136.799 29.7058 136.949 29.2678 136.949 28.7158C136.949 28.2118 136.799 27.7918 136.499 27.4558C136.199 27.1078 135.761 26.9338 135.185 26.9338H133.151V30.4978Z" fill="#02363C"/>
<path d="M49.3458 51.1078C48.3978 51.1078 47.5338 50.9218 46.7538 50.5498C45.9738 50.1778 45.3078 49.6918 44.7558 49.0918C44.2038 48.4798 43.7718 47.7838 43.4598 47.0038C43.1598 46.2238 43.0098 45.4198 43.0098 44.5918C43.0098 43.7518 43.1658 42.9418 43.4778 42.1618C43.8018 41.3818 44.2458 40.6978 44.8098 40.1098C45.3858 39.5098 46.0638 39.0358 46.8438 38.6878C47.6238 38.3278 48.4758 38.1478 49.3998 38.1478C50.3478 38.1478 51.2118 38.3338 51.9918 38.7058C52.7718 39.0778 53.4378 39.5698 53.9898 40.1818C54.5418 40.7938 54.9678 41.4898 55.2678 42.2698C55.5678 43.0498 55.7178 43.8418 55.7178 44.6458C55.7178 45.4858 55.5558 46.2958 55.2318 47.0758C54.9198 47.8558 54.4818 48.5458 53.9178 49.1458C53.3538 49.7338 52.6818 50.2078 51.9018 50.5678C51.1218 50.9278 50.2698 51.1078 49.3458 51.1078ZM46.0158 44.6278C46.0158 45.1198 46.0878 45.5998 46.2318 46.0678C46.3758 46.5238 46.5858 46.9318 46.8618 47.2918C47.1498 47.6518 47.5038 47.9398 47.9238 48.1558C48.3438 48.3718 48.8238 48.4798 49.3638 48.4798C49.9278 48.4798 50.4198 48.3658 50.8398 48.1378C51.2598 47.9098 51.6078 47.6158 51.8838 47.2558C52.1598 46.8838 52.3638 46.4698 52.4958 46.0138C52.6398 45.5458 52.7118 45.0718 52.7118 44.5918C52.7118 44.0998 52.6398 43.6258 52.4958 43.1698C52.3518 42.7018 52.1358 42.2938 51.8478 41.9458C51.5598 41.5858 51.2058 41.3038 50.7858 41.0998C50.3778 40.8838 49.9038 40.7758 49.3638 40.7758C48.7998 40.7758 48.3078 40.8898 47.8878 41.1178C47.4798 41.3338 47.1318 41.6218 46.8438 41.9818C46.5678 42.3418 46.3578 42.7558 46.2138 43.2238C46.0818 43.6798 46.0158 44.1478 46.0158 44.6278Z" fill="#02363C"/>
<path d="M66.5639 40.8118H62.6759V50.9998H59.7239V40.8118H55.8179V38.2198H66.5639V40.8118Z" fill="#02363C"/>
<path d="M77.0416 48.4078V50.9998H68.0596V38.2198H76.8796V40.8118H71.0116V43.2958H76.0516V45.6898H71.0116V48.4078H77.0416Z" fill="#02363C"/>
<path d="M83.3877 42.6478C83.2317 44.2678 83.0337 45.6238 82.7937 46.7158C82.5657 47.7958 82.2477 48.6658 81.8397 49.3258C81.4317 49.9738 80.9097 50.4358 80.2737 50.7118C79.6377 50.9878 78.8457 51.1258 77.8977 51.1258L77.8077 48.5338C78.2397 48.4858 78.5997 48.3838 78.8877 48.2278C79.1877 48.0598 79.4397 47.7478 79.6437 47.2918C79.8477 46.8238 80.0157 46.1638 80.1477 45.3118C80.2917 44.4598 80.4297 43.3198 80.5617 41.8918L80.8857 38.2198H89.1837V50.9998H86.2317V40.8118H83.5677L83.3877 42.6478Z" fill="#02363C"/>
<path d="M91.7373 38.2198H94.7073V42.5938H96.9753C97.6593 42.5938 98.2773 42.6898 98.8293 42.8818C99.3933 43.0618 99.8733 43.3318 100.269 43.6918C100.665 44.0398 100.971 44.4718 101.187 44.9878C101.403 45.5038 101.511 46.0858 101.511 46.7338C101.511 47.4058 101.403 48.0058 101.187 48.5338C100.983 49.0618 100.683 49.5118 100.287 49.8838C99.9033 50.2438 99.4413 50.5198 98.9013 50.7118C98.3613 50.9038 97.7613 50.9998 97.1013 50.9998H91.7373V38.2198ZM94.7073 48.4978H96.7413C97.3293 48.4978 97.7673 48.3418 98.0553 48.0298C98.3553 47.7058 98.5053 47.2678 98.5053 46.7158C98.5053 46.2118 98.3553 45.7918 98.0553 45.4558C97.7553 45.1078 97.3173 44.9338 96.7413 44.9338H94.7073V48.4978Z" fill="#02363C"/>
<path d="M112.163 48.4078V50.9998H103.181V38.2198H112.001V40.8118H106.133V43.2958H111.173V45.6898H106.133V48.4078H112.163Z" fill="#02363C"/>
<path d="M114.009 50.9998V38.2198H119.463C120.075 38.2198 120.633 38.3458 121.137 38.5978C121.653 38.8498 122.091 39.1798 122.451 39.5878C122.823 39.9958 123.111 40.4578 123.315 40.9738C123.531 41.4898 123.639 42.0118 123.639 42.5398C123.639 43.1038 123.537 43.6438 123.333 44.1598C123.141 44.6758 122.865 45.1378 122.505 45.5458C122.157 45.9538 121.731 46.2778 121.227 46.5178C120.723 46.7578 120.165 46.8778 119.553 46.8778H116.961V50.9998H114.009ZM116.961 44.3038H119.373C119.721 44.3038 120.021 44.1538 120.273 43.8538C120.525 43.5538 120.651 43.1158 120.651 42.5398C120.651 42.2398 120.609 41.9818 120.525 41.7658C120.453 41.5498 120.351 41.3698 120.219 41.2258C120.087 41.0818 119.937 40.9798 119.769 40.9198C119.601 40.8478 119.433 40.8118 119.265 40.8118H116.961V44.3038Z" fill="#02363C"/>
<path d="M127.888 38.2198H130.552L135.214 50.9998H132.19L131.2 48.1378H127.222L126.25 50.9998H123.226L127.888 38.2198ZM130.714 46.1038L129.22 41.5858L127.69 46.1038H130.714Z" fill="#02363C"/>
<path fill-rule="evenodd" clip-rule="evenodd" d="M16.5897 21.4817L18.1753 20.3645C20.4968 18.7288 22 16.0397 22 13C22 8.02944 17.9706 4 13 4C8.02944 4 4 8.02944 4 13C4 16.0397 5.50319 18.7288 7.82471 20.3645L9.41025 21.4817L10.7896 47H15.2104L16.5897 21.4817ZM19 51H7L5.52078 23.6344C2.18145 21.2815 0 17.3955 0 13C0 5.8203 5.8203 0 13 0C20.1797 0 26 5.8203 26 13C26 17.3955 23.8185 21.2815 20.4792 23.6344L19 51Z" fill="#02363C"/>
</svg>
