<svg width="112" height="34" viewBox="0 0 112 34" fill="none" xmlns="http://www.w3.org/2000/svg">
<path d="M33.4867 -0.000976562H65.077C65.343 -0.000976562 65.5974 0.0106792 65.8402 0.127237C66.638 0.523535 66.7999 1.44434 66.2102 2.21363C65.7477 2.80807 65.2505 3.37921 64.7764 3.962C61.5618 7.87835 58.3589 11.7947 55.1559 15.7111C54.8899 16.0374 54.6009 16.3405 54.543 16.7834C54.4737 17.238 54.5777 17.6343 54.8668 17.9956C58.5439 22.4831 62.2094 26.9589 65.8864 31.4464C66.0714 31.6795 66.2911 31.8893 66.4068 32.1807C66.7537 33.0666 66.2102 33.9407 65.262 33.999C65.1811 33.999 65.1117 33.999 65.0423 33.999C44.0091 33.999 22.9758 33.999 1.9426 34.0107C1.24881 34.0107 0.682222 33.8125 0.289077 33.2064C0.0925046 32.9034 0 32.5887 0 32.239C0 22.0868 0 11.9229 0 1.77071C0 0.803274 0.693785 0.0573025 1.66508 -0.000976562C1.79228 -0.000976562 1.91947 -0.000976562 2.04667 -0.000976562H33.4867ZM40.9796 20.4433C41.0952 20.5715 41.153 20.6298 41.2108 20.6997C42.7025 22.3432 44.1825 23.9867 45.6626 25.6418C45.9054 25.9215 46.1829 26.0498 46.5298 26.0498C47.8827 26.0498 49.2356 26.0498 50.6 26.0498C50.9816 26.0498 51.317 25.9332 51.502 25.5486C51.6754 25.1639 51.4788 24.8609 51.236 24.5928C49.8369 23.0192 48.4493 21.4457 47.0502 19.8722C46.7148 19.4875 46.7148 19.4875 47.1542 19.2311C50.7157 17.1331 50.9354 12.6106 48.8771 10.0696C47.4664 8.33293 45.5701 7.52868 43.4078 7.45874C41.0721 7.37715 38.7479 7.42377 36.4121 7.42377C35.7877 7.42377 35.4987 7.73848 35.4871 8.35624C35.4755 13.9394 35.464 19.5225 35.4408 25.1056C35.4408 25.7117 35.7415 26.0614 36.3428 26.0614C37.5916 26.0847 38.8404 26.0847 40.0892 26.0614C40.6789 26.0498 40.9796 25.7117 40.9796 25.1173C40.9796 23.6836 40.9796 22.2616 40.9796 20.8396V20.4433ZM9.68986 16.7368H9.66673V25.1056C9.66673 25.6884 9.95581 26.0381 10.5455 26.0498C11.8406 26.0731 13.1241 26.0731 14.4192 26.0498C14.9973 26.0381 15.3211 25.6418 15.3095 25.0707C15.2864 23.5787 15.298 22.0868 15.298 20.6065C15.298 20.385 15.3558 20.3151 15.5755 20.3268C16.2693 20.3384 16.963 20.3501 17.6684 20.3151C19.5879 20.2335 21.3339 19.6857 22.7793 18.3453C25.196 16.0957 25.3694 12.2493 23.1377 9.80156C21.6923 8.20471 19.8191 7.50536 17.7262 7.44709C15.3789 7.37715 13.02 7.42377 10.6612 7.42377C9.97894 7.42377 9.6783 7.73848 9.6783 8.43783C9.68986 11.1886 9.68986 13.9627 9.68986 16.7368ZM26.6066 16.7135V25.1173C26.6066 25.7117 26.9073 26.0498 27.497 26.0498C28.688 26.0614 29.8906 26.0614 31.0931 26.0498C31.6828 26.0498 31.9835 25.7001 31.9835 25.1173V8.37955C31.9835 7.7851 31.6828 7.44709 31.0931 7.43543C29.8906 7.42377 28.6996 7.42377 27.497 7.43543C26.9073 7.44709 26.6066 7.77345 26.6066 8.37955V16.7135Z" fill="white"/>
<path d="M112 17.1788C111.954 19.0903 111.399 20.7921 109.965 22.1325C107.629 24.3238 103.085 24.2072 101.235 20.5473C99.8936 17.9014 100.021 15.2322 101.813 12.8078C103.918 9.96382 108.312 9.97548 110.509 12.7496C111.538 14.055 111.965 15.547 112 17.1788ZM109.364 17.2137C109.364 16.223 109.167 15.2089 108.554 14.2998C107.491 12.7379 104.947 12.7146 103.871 14.2648C102.808 15.8034 102.738 18.2511 103.744 19.8363C104.854 21.6196 107.537 21.6196 108.658 19.8479C109.144 19.067 109.318 18.2045 109.364 17.2137Z" fill="white"/>
<path d="M83.9019 18.9162C82.9653 20.2683 82.0634 21.5854 81.1499 22.9025C80.8146 23.3688 80.3752 23.5553 79.8201 23.4504C79.2998 23.3571 78.976 23.0424 78.8488 22.5412C78.7332 22.0633 78.9066 21.632 79.1842 21.2474C80.2133 19.8254 81.2193 18.3917 82.2599 16.9697C82.4103 16.7599 82.3987 16.6317 82.2599 16.4336C81.4043 15.2563 80.5717 14.0674 79.7392 12.8785C79.4154 12.4356 79.3345 11.9694 79.6004 11.4682C80.0745 10.6057 81.2193 10.594 81.8205 11.4565C82.4565 12.3773 83.0809 13.3098 83.7169 14.2306C83.7747 14.3122 83.8325 14.4054 83.9135 14.5104C83.9944 14.4054 84.0638 14.3239 84.1216 14.2423C84.746 13.3215 85.3704 12.4006 85.9948 11.4915C86.2723 11.0952 86.6192 10.8155 87.128 10.8155C88.134 10.8155 88.7121 11.8295 88.2149 12.7037C88.0762 12.9485 87.9027 13.1699 87.7408 13.403C87.0124 14.4288 86.2955 15.4545 85.5554 16.4685C85.4167 16.655 85.4398 16.7716 85.567 16.9464C86.6077 18.3801 87.6368 19.8137 88.6659 21.2591C88.9434 21.6437 89.1168 22.075 88.9896 22.5529C88.8625 23.0541 88.5271 23.3571 88.0184 23.4504C87.4749 23.5436 87.0355 23.3688 86.7117 22.9142C85.8561 21.6903 85.0004 20.4548 84.1563 19.2193C84.0638 19.1261 83.9944 19.0328 83.9019 18.9162Z" fill="white"/>
<path d="M90.6659 17.1678C90.6659 15.5359 90.6659 13.8925 90.6659 12.2607C90.6659 11.4914 91.0706 10.9552 91.8337 10.9436C93.3022 10.9202 94.7939 10.7571 96.2508 11.0951C98.0084 11.503 99.211 13.0416 99.2688 14.8599C99.315 16.0838 98.9913 17.1794 98.1009 18.0536C97.3956 18.753 96.5399 19.1143 95.5686 19.2075C94.8748 19.2775 94.1695 19.2542 93.4757 19.2425C93.2329 19.2425 93.1866 19.3124 93.1866 19.5455C93.1982 20.4197 93.1866 21.2823 93.1866 22.1565C93.1866 22.9374 92.6663 23.4852 91.9147 23.4852C91.1746 23.4852 90.6543 22.9257 90.6543 22.1448C90.6659 20.478 90.6659 18.8229 90.6659 17.1678ZM93.1982 15.0581C93.1982 15.6059 93.1982 16.1654 93.1982 16.7248C93.1982 16.8297 93.175 16.9463 93.3369 16.9463C93.9382 16.923 94.5395 16.9929 95.1408 16.9113C96.1352 16.7831 96.6902 16.0255 96.6324 14.9182C96.5862 13.9508 95.9155 13.2747 94.9558 13.2398C94.4354 13.2281 93.9151 13.2398 93.3947 13.2281C93.1982 13.2281 93.175 13.3097 93.175 13.4729C93.1982 13.9857 93.1982 14.5219 93.1982 15.0581Z" fill="white"/>
<path d="M70.8711 17.2149C70.8711 15.6064 70.8711 13.9863 70.8711 12.3661C70.8711 11.4336 71.3683 10.9091 72.2934 10.9091C73.6231 10.8975 74.9413 10.8975 76.2595 10.9091C76.7683 10.9091 77.2077 11.0607 77.4389 11.5619C77.6471 12.0164 77.6008 12.4594 77.3117 12.8673C77.0458 13.2403 76.6642 13.3219 76.2364 13.3219C75.3923 13.3219 74.5482 13.3335 73.704 13.3219C73.4728 13.3219 73.3803 13.3569 73.3918 13.6249C73.415 14.2777 73.4034 14.9304 73.3918 15.5715C73.3918 15.8046 73.4381 15.8745 73.6809 15.8745C74.4903 15.8512 75.2882 15.8512 76.086 15.8745C76.9417 15.8862 77.4274 16.3757 77.3927 17.1683C77.3695 17.7278 76.9533 18.2057 76.4098 18.2523C75.531 18.3339 74.6407 18.2873 73.7619 18.2756C73.4612 18.2756 73.4034 18.3572 73.4034 18.6369C73.4265 19.3013 73.4265 19.9657 73.4034 20.6184C73.3918 20.8865 73.4843 20.9448 73.7387 20.9448C74.6985 20.9331 75.6582 20.9331 76.6179 20.9448C77.2077 20.9564 77.6471 21.3761 77.7164 21.9472C77.7974 22.5999 77.4621 23.1594 76.8723 23.2993C76.722 23.3342 76.5601 23.3459 76.4098 23.3459C75.0454 23.3459 73.6809 23.3459 72.3165 23.3459C71.3799 23.3459 70.8942 22.8563 70.8942 21.9122C70.8711 20.362 70.8711 18.7885 70.8711 17.2149Z" fill="white"/>
<path d="M40.9785 13.8579C40.9785 13.3684 40.9785 12.8788 40.9785 12.3776C40.9785 12.2028 41.0248 12.1445 41.2098 12.1445C41.7648 12.1562 42.3198 12.1445 42.8749 12.1562C43.8346 12.1795 44.4821 12.8672 44.4937 13.8346C44.5053 14.8137 43.904 15.4781 42.9442 15.5713C42.3545 15.6296 41.7764 15.583 41.1982 15.5947C41.0248 15.5947 40.9901 15.5247 40.9901 15.3615C40.9785 14.8603 40.9785 14.3591 40.9785 13.8579Z" fill="white"/>
<path d="M15.3105 13.8574C15.3105 13.3679 15.3105 12.8667 15.3105 12.3771C15.3105 12.1906 15.3684 12.144 15.5418 12.144C16.12 12.1557 16.7097 12.1207 17.2878 12.1557C17.9816 12.2023 18.5366 12.5053 18.7795 13.2047C19.0107 13.904 18.9414 14.5801 18.3979 15.1279C18.0279 15.5009 17.5422 15.5825 17.045 15.5941C16.5478 15.6058 16.039 15.5941 15.5418 15.5941C15.3684 15.5941 15.3105 15.5475 15.3105 15.361C15.3105 14.8598 15.3105 14.3586 15.3105 13.8574Z" fill="white"/>
</svg>
