<svg width="79" height="35" viewBox="0 0 79 35" fill="none" xmlns="http://www.w3.org/2000/svg">
<path d="M27.7644 8.4375H26.6445V10.8522H27.7644C28.4563 10.8522 28.9053 10.379 28.9053 9.64217C28.9053 8.91076 28.4563 8.4375 27.7644 8.4375Z" fill="white"/>
<path d="M36.954 11.2664C36.954 11.261 36.9593 11.261 36.9593 11.2557L36.9857 11.218C36.9963 11.2019 37.0068 11.1858 37.0121 11.1858L44.3807 2.10232C44.4018 2.0808 44.5814 1.8872 44.6924 1.67208C44.7874 1.47847 44.8297 1.21495 44.835 1.14503C44.835 0.542696 44.3701 0.0371646 43.7627 -0.00585938H1.40505C0.628577 -0.000481379 0 0.6395 0 1.43007V21.9901C0 22.7753 0.628577 23.4153 1.40505 23.4153L43.731 23.4046H43.7469C44.3279 23.3669 44.798 22.8506 44.798 22.2214C44.7927 22.1945 44.7557 21.9256 44.6607 21.732C44.555 21.5169 44.3649 21.3233 44.3649 21.3233L37.0438 12.2775C37.0227 12.256 36.9963 12.2291 36.954 12.1753L36.9487 12.1645C36.8589 12.0355 36.8114 11.8795 36.8114 11.7182C36.8114 11.5568 36.8589 11.4062 36.9434 11.2772L36.954 11.2664ZM13.5699 12.9712C12.7247 13.7511 11.5679 14.1813 10.3161 14.1813H9.04834V17.634C9.04834 17.9459 8.80536 18.1933 8.499 18.1933H6.04279C5.89489 18.1933 5.75756 18.1287 5.65191 18.0266C5.54627 17.9244 5.48816 17.7792 5.48816 17.6286L5.50929 5.6733C5.50929 5.36676 5.75756 5.11399 6.05864 5.11399H10.2157C11.531 5.11399 12.7247 5.55499 13.5857 6.36169C14.4678 7.18452 14.9538 8.35692 14.9538 9.6584C14.9591 10.9706 14.4678 12.1484 13.5699 12.9712ZM20.4314 17.634C20.4314 17.9459 20.1831 18.1933 19.8821 18.1933H17.4258C17.1195 18.1933 16.8765 17.9405 16.8765 17.634V5.59801C16.8765 5.29147 17.1195 5.04408 17.4153 5.0387L18.646 5.01719H18.6619L19.8926 5.0387C20.1937 5.04408 20.4367 5.29684 20.4367 5.59801V17.634H20.4314ZM33.3938 17.8652C33.304 18.0642 33.1086 18.1879 32.8973 18.1879H30.1453C29.9815 18.1879 29.8284 18.118 29.7227 17.9889L26.6379 14.2512V17.6393C26.6379 17.9513 26.395 18.1987 26.0886 18.1987H23.6324C23.4845 18.1987 23.3472 18.1341 23.2415 18.0319C23.1359 17.9298 23.0778 17.7846 23.0778 17.634L23.0989 5.67868C23.0989 5.37214 23.3472 5.11937 23.6482 5.11937H27.8C29.1153 5.11937 30.3143 5.56037 31.1753 6.36707C32.0627 7.1899 32.5487 8.3623 32.5487 9.66378C32.5487 10.6695 32.2634 11.5945 31.7194 12.342C31.3496 12.8476 30.8742 13.267 30.3143 13.5736L33.3093 17.2629C33.4572 17.435 33.4889 17.6662 33.3938 17.8652Z" fill="white"/>
<path d="M10.1686 8.4375H9.04883V10.8522H10.1686C10.8606 10.8522 11.3043 10.379 11.3043 9.64217C11.3043 8.91076 10.8606 8.4375 10.1686 8.4375Z" fill="white"/>
<path d="M50.8149 9.05603C50.9364 9.05603 51.0526 9.03452 51.1583 8.98612C51.2639 8.93771 51.359 8.87318 51.4329 8.79251C51.5069 8.71184 51.5703 8.61504 51.6178 8.5021C51.6653 8.39454 51.6865 8.27622 51.6865 8.15253C51.6865 8.02883 51.6653 7.91052 51.6178 7.80296C51.5703 7.6954 51.5122 7.59859 51.4329 7.51255C51.3537 7.43188 51.2639 7.36734 51.1583 7.31894C51.0526 7.27054 50.9364 7.24902 50.8149 7.24902H46.2247C46.1032 7.24902 45.987 7.27054 45.8761 7.31894C45.7652 7.36734 45.6701 7.43188 45.5909 7.51255C45.5116 7.59859 45.4482 7.69002 45.4007 7.80296C45.3584 7.91052 45.332 8.02883 45.332 8.15253V15.2461C45.332 15.4935 45.4113 15.6925 45.5644 15.8592C45.7229 16.0205 45.9131 16.112 46.1455 16.1389H50.8044C50.9258 16.1442 51.042 16.1227 51.1477 16.0743C51.2533 16.0259 51.3484 15.9668 51.4224 15.8861C51.4963 15.8054 51.5597 15.7086 51.6072 15.6011C51.6548 15.4935 51.6759 15.3752 51.6759 15.2515C51.6759 15.1278 51.6548 15.0095 51.6072 14.8965C51.5597 14.7836 51.5016 14.6868 51.4224 14.6061C51.3431 14.5201 51.2533 14.4555 51.1477 14.4071C51.042 14.3587 50.9258 14.3318 50.8044 14.3318H47.1016V12.4657H50.049C50.1705 12.4657 50.2867 12.4442 50.3923 12.4011C50.498 12.3581 50.5931 12.2936 50.6776 12.2129C50.7621 12.1322 50.8255 12.0354 50.8677 11.9333C50.9153 11.8257 50.9364 11.7128 50.9364 11.5837C50.9364 11.46 50.9153 11.3417 50.8677 11.2287C50.8255 11.1158 50.7568 11.019 50.6776 10.933C50.5983 10.8523 50.5033 10.7824 50.3923 10.734C50.2867 10.6856 50.1705 10.6641 50.049 10.6694H47.1016V9.06141H50.8149V9.05603Z" fill="white"/>
<path d="M60.1329 8.45404C60.1699 8.33572 60.1857 8.22278 60.1752 8.10447C60.1646 7.98615 60.1382 7.87859 60.0854 7.76565C60.0378 7.65809 59.9639 7.56129 59.8741 7.47524C59.7843 7.39457 59.6839 7.33004 59.5836 7.29239C59.4779 7.25474 59.3776 7.24399 59.2719 7.24936C59.1663 7.26012 59.0659 7.28701 58.9655 7.34079C58.8652 7.39457 58.7754 7.46449 58.7014 7.55591L56.1977 10.4009L53.7045 7.55591C53.6253 7.46449 53.5302 7.38919 53.4298 7.34079C53.3295 7.29239 53.2238 7.26012 53.1182 7.24936C53.0126 7.23861 52.9069 7.25474 52.8013 7.29239C52.6956 7.33004 52.6005 7.38919 52.5055 7.47524C52.4157 7.56129 52.3417 7.65271 52.2942 7.76565C52.2414 7.87321 52.2149 7.98615 52.2044 8.10447C52.1938 8.22278 52.2097 8.33572 52.2466 8.45404C52.2836 8.56697 52.3417 8.67453 52.421 8.76596L55.0251 11.7346L52.4843 14.6387C52.3998 14.7355 52.3364 14.8431 52.2942 14.956C52.2519 15.069 52.2308 15.1819 52.2308 15.2948C52.2308 15.4078 52.2519 15.5153 52.2995 15.6229C52.347 15.7305 52.4157 15.8219 52.5055 15.9079C52.5953 15.9886 52.6956 16.0531 52.8066 16.0908C52.9175 16.1284 53.0284 16.1446 53.1393 16.1392C53.2503 16.1338 53.3612 16.1015 53.4668 16.0531C53.5725 16.0047 53.6675 15.9295 53.7521 15.838L56.1871 13.063L58.6328 15.838C58.7173 15.9295 58.8071 16.0047 58.9127 16.0531C59.0184 16.1015 59.124 16.1338 59.2402 16.1392C59.3511 16.1446 59.4674 16.1284 59.573 16.0908C59.6839 16.0531 59.7843 15.9886 59.8794 15.9079C59.9692 15.8219 60.0378 15.7305 60.0854 15.6283C60.1329 15.5261 60.154 15.4132 60.154 15.3002C60.154 15.1873 60.1329 15.069 60.0907 14.956C60.0484 14.8431 59.985 14.7355 59.9005 14.6387L57.3492 11.7346L59.9533 8.76596C60.0378 8.67453 60.0959 8.57235 60.1329 8.45404Z" fill="white"/>
<path d="M66.804 8.23808C66.5029 7.93691 66.1543 7.6949 65.7528 7.51743C65.3514 7.33995 64.9183 7.25391 64.4587 7.25391H61.9655C61.844 7.25391 61.7278 7.27542 61.6222 7.32382C61.5165 7.37222 61.4215 7.43676 61.337 7.51743C61.2577 7.60348 61.1891 7.6949 61.1468 7.80784C61.0993 7.9154 61.0781 8.03372 61.0781 8.15741V15.251C61.0781 15.3747 61.0993 15.493 61.1468 15.6006C61.1891 15.7081 61.2577 15.8049 61.337 15.8802C61.4215 15.9609 61.5165 16.02 61.6222 16.0684C61.7278 16.1168 61.844 16.1384 61.9655 16.1384C62.087 16.1384 62.2032 16.1168 62.3089 16.0684C62.4145 16.02 62.5096 15.9609 62.5941 15.8802C62.6733 15.7995 62.742 15.7081 62.7843 15.6006C62.8318 15.493 62.8529 15.3747 62.8529 15.251V13.9656H64.464C64.9235 13.9656 65.3514 13.8796 65.7581 13.7021C66.1596 13.5246 66.5135 13.288 66.8093 12.9868C67.1104 12.6857 67.3481 12.3307 67.5224 11.922C67.6967 11.5133 67.7865 11.0777 67.7865 10.6152C67.7865 10.1473 67.6967 9.71165 67.5224 9.29755C67.3428 8.8942 67.1051 8.53925 66.804 8.23808ZM65.8849 11.2014C65.8057 11.3896 65.6947 11.5509 65.5521 11.6961C65.4148 11.8413 65.251 11.9543 65.0662 12.0349C64.8813 12.1156 64.6858 12.1586 64.4851 12.1586H62.8477V9.05554H64.4851C64.6858 9.05554 64.876 9.09856 65.0609 9.18461C65.2458 9.27065 65.4042 9.38359 65.5416 9.5288C65.6789 9.674 65.7898 9.83534 65.8743 10.0236C65.9588 10.2118 66.0011 10.4108 66.0011 10.6152C66.0064 10.8249 65.9641 11.0185 65.8849 11.2014Z" fill="white"/>
<path d="M77.1827 10.5077C77.0771 10.1258 76.9239 9.76551 76.7337 9.4267C76.5383 9.09326 76.3112 8.78672 76.0365 8.51244C75.7618 8.23816 75.466 8.00153 75.1385 7.80792C74.811 7.61432 74.4571 7.46373 74.0768 7.35079C73.7018 7.24323 73.3056 7.18945 72.8989 7.18945C72.4922 7.18945 72.096 7.24323 71.721 7.35079C71.3459 7.45835 70.992 7.60894 70.6645 7.80792C70.337 8.00153 70.0412 8.23816 69.7718 8.51244C69.5025 8.78672 69.2753 9.09326 69.0852 9.4267C68.895 9.76014 68.7471 10.1205 68.6415 10.5077C68.5358 10.8895 68.4883 11.2929 68.4883 11.707C68.4883 12.3308 68.6045 12.917 68.8316 13.4656C69.0588 14.0141 69.3757 14.4874 69.7718 14.8961C70.168 15.3049 70.6381 15.6275 71.1769 15.8642C71.7157 16.1008 72.2914 16.2191 72.9042 16.2191C73.5169 16.2191 74.0926 16.1008 74.6314 15.8642C75.1702 15.6275 75.6403 15.3049 76.0418 14.8961C76.4432 14.4874 76.7601 14.0088 76.9978 13.4656C77.2303 12.917 77.3465 12.3362 77.3465 11.707C77.3412 11.2929 77.2884 10.8949 77.1827 10.5077ZM75.3604 12.7772C75.2178 13.1106 75.0329 13.3957 74.7899 13.6377C74.5469 13.8797 74.267 14.0733 73.9395 14.2077C73.6173 14.3476 73.2686 14.4175 72.8989 14.4175C72.5291 14.4175 72.1858 14.3476 71.8636 14.2077C71.5414 14.0679 71.2614 13.8797 71.0237 13.6377C70.786 13.3957 70.5959 13.1106 70.4585 12.7772C70.3212 12.4491 70.2525 12.0888 70.2525 11.7123C70.2525 11.3359 70.3212 10.9863 70.4585 10.6583C70.5959 10.3302 70.786 10.0452 71.0237 9.79778C71.2614 9.55039 71.5414 9.35679 71.8636 9.21696C72.1858 9.07175 72.5291 9.00184 72.8989 9.00184C73.2686 9.00184 73.612 9.07175 73.9395 9.21696C74.2617 9.36216 74.5469 9.55577 74.7899 9.79778C75.0329 10.0452 75.2178 10.3302 75.3604 10.6583C75.4977 10.9863 75.5664 11.3359 75.5664 11.7123C75.5717 12.0888 75.4977 12.4438 75.3604 12.7772Z" fill="white"/>
<path d="M56.1337 30.8533C56.0756 30.7995 56.0069 30.7511 55.9277 30.7242C55.8537 30.6919 55.7745 30.6758 55.6953 30.6758H54.3008V31.945H55.6953C55.7745 31.945 55.8537 31.9235 55.9277 31.8858C56.0016 31.8482 56.0703 31.7944 56.1337 31.7299C56.1971 31.6653 56.2446 31.5954 56.2763 31.5147C56.3133 31.4341 56.3291 31.3588 56.3291 31.2781C56.3291 31.1921 56.3133 31.1168 56.2763 31.0415C56.2446 30.9716 56.1971 30.907 56.1337 30.8533Z" fill="white"/>
<path d="M25.973 28.6531C25.7987 28.4756 25.5927 28.3358 25.3603 28.2282C25.1226 28.126 24.8743 28.0723 24.6049 28.0723C24.3408 28.0723 24.0873 28.126 23.8549 28.2282C23.6224 28.3304 23.4164 28.4756 23.2474 28.6531C23.0731 28.8306 22.9358 29.0403 22.8354 29.2769C22.735 29.5136 22.6875 29.7717 22.6875 30.0406C22.6875 30.3149 22.735 30.573 22.8354 30.815C22.9358 31.0571 23.0731 31.2614 23.2474 31.4389C23.4217 31.6164 23.6224 31.7508 23.8549 31.853C24.0873 31.9552 24.3408 32.0036 24.6049 32.0036C24.869 32.0036 25.1226 31.9552 25.3603 31.853C25.5927 31.7508 25.7987 31.6164 25.973 31.4389C26.1473 31.2614 26.2847 31.0571 26.385 30.815C26.4854 30.573 26.5329 30.3203 26.5329 30.0406C26.5329 29.7717 26.4854 29.5136 26.385 29.2769C26.2847 29.0349 26.1473 28.8306 25.973 28.6531Z" fill="white"/>
<path d="M77.8432 25.0771H1.16208C0.522934 25.0771 0 25.6096 0 26.2603V33.8164C0 34.4671 0.522934 34.9995 1.16208 34.9995H77.8432C78.4823 34.9995 79.0053 34.4671 79.0053 33.8164V26.2603C79 25.6096 78.4823 25.0771 77.8432 25.0771ZM27.5676 31.3156C27.3986 31.7136 27.1662 32.0578 26.8756 32.3536C26.5851 32.6494 26.2471 32.886 25.8509 33.0527C25.46 33.2248 25.0427 33.3109 24.599 33.3109C24.1553 33.3109 23.738 33.2248 23.3472 33.0527C22.9563 32.8806 22.6182 32.6494 22.3277 32.3536C22.0425 32.0578 21.8153 31.7082 21.6463 31.3156C21.4773 30.9177 21.398 30.4982 21.398 30.041C21.398 29.7399 21.435 29.4495 21.509 29.1698C21.5829 28.8901 21.6938 28.632 21.8312 28.3846C21.9685 28.1426 22.1375 27.9221 22.3277 27.7231C22.5231 27.5241 22.7397 27.352 22.9774 27.2122C23.2151 27.0724 23.4686 26.9594 23.7433 26.8842C24.018 26.8035 24.3032 26.7658 24.599 26.7658C24.8948 26.7658 25.1801 26.8035 25.4547 26.8842C25.7294 26.9648 25.983 27.0724 26.2206 27.2122C26.4583 27.352 26.6749 27.5241 26.8704 27.7231C27.0658 27.9221 27.2348 28.1426 27.3774 28.3846C27.5148 28.6266 27.6257 28.8901 27.7049 29.1698C27.7842 29.4495 27.8211 29.7399 27.8211 30.041C27.8211 30.4928 27.7366 30.9177 27.5676 31.3156ZM34.651 27.7231C34.6193 27.8038 34.5717 27.8737 34.5136 27.9275C34.4555 27.9866 34.3869 28.035 34.3076 28.0673C34.2284 28.0996 34.1492 28.1157 34.0594 28.1157H32.76V32.601C32.76 32.6924 32.7441 32.7784 32.7071 32.8537C32.6702 32.9344 32.6279 32.9989 32.5698 33.0581C32.5117 33.1173 32.443 33.1603 32.3638 33.1925C32.2846 33.2248 32.2001 33.2409 32.1103 33.2409C32.0205 33.2409 31.9359 33.2248 31.862 33.1925C31.7828 33.1603 31.7194 33.1119 31.6613 33.0581C31.6032 32.9989 31.5556 32.9344 31.5239 32.8537C31.4922 32.7731 31.4711 32.6924 31.4711 32.601V28.1157H30.1717C30.0819 28.1157 29.9974 28.0996 29.9234 28.0619C29.8442 28.0297 29.7808 27.9813 29.7227 27.9221C29.6646 27.8629 29.6224 27.793 29.5854 27.7124C29.5537 27.6317 29.5378 27.5456 29.5378 27.4542C29.5378 27.3628 29.5537 27.2767 29.5854 27.2015C29.6171 27.1208 29.6646 27.0563 29.7227 26.9971C29.7808 26.9379 29.8495 26.8949 29.9234 26.8573C30.0027 26.825 30.0819 26.8089 30.1717 26.8089H34.0541C34.1439 26.8089 34.2284 26.825 34.3024 26.8626C34.3816 26.9003 34.4503 26.9433 34.5084 27.0025C34.5717 27.0616 34.614 27.1315 34.6457 27.2122C34.6774 27.2929 34.6932 27.3789 34.6932 27.4704C34.6985 27.5618 34.688 27.6478 34.651 27.7231ZM40.4772 29.2881C40.567 29.2881 40.6462 29.2989 40.7255 29.3365C40.8047 29.3742 40.8734 29.4226 40.9315 29.4817C40.9896 29.5409 41.0371 29.6162 41.0688 29.6968C41.1005 29.7775 41.1163 29.8636 41.1163 29.955C41.1163 30.0464 41.1005 30.1271 41.0688 30.2078C41.0371 30.283 40.9896 30.353 40.9315 30.4121C40.8734 30.4713 40.8047 30.5143 40.7255 30.5466C40.6462 30.5788 40.567 30.595 40.4772 30.595H38.3432V31.9448H41.0265C41.1163 31.9448 41.2009 31.961 41.2748 31.9986C41.354 32.0309 41.4174 32.0793 41.4755 32.1438C41.5336 32.203 41.5759 32.2729 41.6076 32.3536C41.6393 32.4342 41.6551 32.5203 41.6551 32.6117C41.6551 32.7031 41.6393 32.7892 41.6076 32.8645C41.5759 32.9452 41.5336 33.0151 41.4755 33.0689C41.4174 33.128 41.354 33.171 41.2748 33.2087C41.1956 33.2409 41.1163 33.2571 41.0265 33.2517H37.6512C37.4822 33.2356 37.3449 33.1657 37.2287 33.0473C37.1177 32.929 37.0596 32.7838 37.0596 32.6063V27.465C37.0596 27.3736 37.0755 27.2875 37.1072 27.2122C37.1389 27.1315 37.1864 27.0616 37.2445 27.0025C37.3026 26.9433 37.3713 26.8949 37.4505 26.8626C37.5298 26.8304 37.6143 26.8142 37.6988 26.8142H41.0265C41.1163 26.8142 41.2009 26.8304 41.2748 26.8626C41.354 26.8949 41.4174 26.9433 41.4755 27.0025C41.5336 27.0616 41.5759 27.1315 41.6076 27.2122C41.6393 27.2929 41.6551 27.3736 41.6551 27.465C41.6551 27.5564 41.6393 27.6425 41.6076 27.7177C41.5759 27.7984 41.5336 27.8683 41.4755 27.9275C41.4174 27.9866 41.354 28.035 41.2748 28.0673C41.1956 28.0996 41.1163 28.1157 41.0265 28.1157H38.3432V29.2827H40.4772V29.2881ZM50.0432 32.5848C50.0432 32.6763 50.0273 32.7677 49.9904 32.8484C49.9587 32.929 49.9111 32.9989 49.8478 33.0635C49.7844 33.128 49.7157 33.171 49.6365 33.2087C49.5572 33.2409 49.4674 33.2625 49.3776 33.2625C49.2878 33.2625 49.2033 33.2463 49.1294 33.2087C49.0554 33.171 48.9868 33.1226 48.9339 33.0635C48.8811 33.0043 48.8336 32.9344 48.8072 32.8484C48.7755 32.7677 48.7596 32.6763 48.7596 32.5848V28.1211H46.5147V31.2511C46.5147 31.5684 46.4725 31.848 46.3827 32.0954C46.2929 32.3428 46.1661 32.5526 46.0023 32.7247C45.8386 32.8968 45.6326 33.0312 45.3949 33.1226C45.1519 33.2141 44.8825 33.2625 44.5762 33.2678H44.5656H44.5392C44.4494 33.2678 44.3649 33.2517 44.2856 33.2141C44.2064 33.1764 44.1377 33.128 44.0796 33.0689C44.0215 33.0097 43.974 32.9398 43.937 32.8591C43.9 32.7784 43.8842 32.6924 43.8842 32.601C43.8842 32.5095 43.9 32.4235 43.937 32.3428C43.9687 32.2621 44.0162 32.1976 44.0796 32.1385C44.1377 32.0793 44.2064 32.0363 44.2856 32.004C44.3649 31.9717 44.4494 31.9556 44.5392 31.9556H44.5656C44.6924 31.9556 44.798 31.9395 44.8772 31.9126C44.9618 31.8857 45.0304 31.8427 45.0832 31.7889C45.1361 31.7297 45.173 31.6598 45.1942 31.5684C45.2153 31.4823 45.2311 31.3694 45.2311 31.2403V27.4757C45.2311 27.3843 45.247 27.2983 45.2787 27.2176C45.3104 27.1369 45.3579 27.0616 45.4107 27.0025C45.4688 26.9433 45.5322 26.8949 45.6115 26.8573C45.6907 26.8196 45.7699 26.8035 45.8597 26.7981H45.8809H45.8914H45.9178H49.3512H49.3776C49.441 26.7981 49.5044 26.8089 49.5625 26.8304C49.5678 26.8304 49.5731 26.8304 49.5784 26.8304C49.5836 26.8304 49.5836 26.8304 49.5836 26.8304C49.7157 26.8788 49.8266 26.9594 49.9111 27.0724C49.9957 27.1853 50.0379 27.3198 50.0379 27.4704V32.5848H50.0432ZM57.4541 32.0901C57.3537 32.3213 57.2217 32.5257 57.0473 32.6978C56.873 32.8699 56.6723 33.0043 56.4399 33.1065C56.2128 33.2033 55.9645 33.2571 55.7057 33.2571H53.6773C53.5875 33.2571 53.4977 33.2409 53.4185 33.2087C53.3393 33.1764 53.2706 33.128 53.2072 33.0689C53.1491 33.0097 53.1016 32.9398 53.0646 32.8591C53.0329 32.7784 53.0118 32.6924 53.0118 32.5956V27.4972C53.0118 27.4058 53.0276 27.3144 53.0646 27.2337C53.1016 27.1531 53.1491 27.0778 53.2072 27.0186C53.2653 26.9594 53.334 26.911 53.4185 26.8734C53.4977 26.8411 53.5875 26.8196 53.6773 26.8196C53.8622 26.8196 54.0101 26.8788 54.1263 26.9971C54.2425 27.1154 54.3006 27.266 54.3006 27.4542V29.3742H55.7057C55.9645 29.3742 56.2128 29.4279 56.4399 29.5301C56.6723 29.6377 56.873 29.7775 57.0473 29.9604C57.2217 30.1432 57.3537 30.353 57.4541 30.5896C57.5544 30.8262 57.602 31.079 57.602 31.3425C57.602 31.606 57.5544 31.8588 57.4541 32.0901Z" fill="white"/>
</svg>
