<svg width="112" height="34" viewBox="0 0 112 34" fill="none" xmlns="http://www.w3.org/2000/svg">
<path d="M33.4867 -0.000488281H65.077C65.343 -0.000488281 65.5974 0.0111675 65.8402 0.127726C66.638 0.524023 66.7999 1.44483 66.2102 2.21412C65.7477 2.80856 65.2505 3.3797 64.7764 3.96249C61.5618 7.87884 58.3589 11.7952 55.1559 15.7115C54.8899 16.0379 54.6009 16.341 54.543 16.7839C54.4737 17.2385 54.5777 17.6348 54.8668 17.9961C58.5439 22.4836 62.2094 26.9594 65.8864 31.4469C66.0714 31.68 66.2911 31.8898 66.4068 32.1812C66.7537 33.067 66.2102 33.9412 65.262 33.9995C65.1811 33.9995 65.1117 33.9995 65.0423 33.9995C44.0091 33.9995 22.9758 33.9995 1.9426 34.0112C1.24881 34.0112 0.682222 33.813 0.289077 33.2069C0.0925046 32.9039 0 32.5892 0 32.2395C0 22.0873 0 11.9234 0 1.77119C0 0.803763 0.693785 0.0577908 1.66508 -0.000488281C1.79228 -0.000488281 1.91947 -0.000488281 2.04667 -0.000488281H33.4867ZM40.9796 20.4438C41.0952 20.572 41.153 20.6303 41.2108 20.7002C42.7025 22.3437 44.1825 23.9872 45.6626 25.6423C45.9054 25.922 46.1829 26.0502 46.5298 26.0502C47.8827 26.0502 49.2356 26.0502 50.6 26.0502C50.9816 26.0502 51.317 25.9337 51.502 25.549C51.6754 25.1644 51.4788 24.8614 51.236 24.5933C49.8369 23.0197 48.4493 21.4462 47.0502 19.8727C46.7148 19.488 46.7148 19.488 47.1542 19.2316C50.7157 17.1336 50.9354 12.6111 48.8771 10.0701C47.4664 8.33342 45.5701 7.52916 43.4078 7.45923C41.0721 7.37764 38.7479 7.42426 36.4121 7.42426C35.7877 7.42426 35.4987 7.73897 35.4871 8.35673C35.4755 13.9399 35.464 19.523 35.4408 25.1061C35.4408 25.7122 35.7415 26.0619 36.3428 26.0619C37.5916 26.0852 38.8404 26.0852 40.0892 26.0619C40.6789 26.0502 40.9796 25.7122 40.9796 25.1178C40.9796 23.6841 40.9796 22.2621 40.9796 20.8401V20.4438ZM9.68986 16.7373H9.66673V25.1061C9.66673 25.6889 9.95581 26.0386 10.5455 26.0502C11.8406 26.0736 13.1241 26.0736 14.4192 26.0502C14.9973 26.0386 15.3211 25.6423 15.3095 25.0712C15.2864 23.5792 15.298 22.0873 15.298 20.607C15.298 20.3855 15.3558 20.3156 15.5755 20.3272C16.2693 20.3389 16.963 20.3506 17.6684 20.3156C19.5879 20.234 21.3339 19.6862 22.7793 18.3458C25.196 16.0962 25.3694 12.2498 23.1377 9.80205C21.6923 8.2052 19.8191 7.50585 17.7262 7.44757C15.3789 7.37764 13.02 7.42426 10.6612 7.42426C9.97894 7.42426 9.6783 7.73897 9.6783 8.43832C9.68986 11.1891 9.68986 13.9632 9.68986 16.7373ZM26.6066 16.7139V25.1178C26.6066 25.7122 26.9073 26.0502 27.497 26.0502C28.688 26.0619 29.8906 26.0619 31.0931 26.0502C31.6828 26.0502 31.9835 25.7006 31.9835 25.1178V8.38004C31.9835 7.78559 31.6828 7.44757 31.0931 7.43592C29.8906 7.42426 28.6996 7.42426 27.497 7.43592C26.9073 7.44757 26.6066 7.77394 26.6066 8.38004V16.7139Z" fill="#EC273F"/>
<path d="M112 17.1797C111.954 19.0913 111.399 20.793 109.965 22.1335C107.629 24.3248 103.085 24.2082 101.235 20.5483C99.8936 17.9024 100.021 15.2332 101.813 12.8088C103.918 9.9648 108.312 9.97645 110.509 12.7505C111.538 14.056 111.965 15.5479 112 17.1797ZM109.364 17.2147C109.364 16.224 109.167 15.2099 108.554 14.3008C107.491 12.7389 104.947 12.7156 103.871 14.2658C102.808 15.8044 102.738 18.2521 103.744 19.8373C104.854 21.6206 107.537 21.6206 108.658 19.8489C109.144 19.068 109.318 18.2055 109.364 17.2147Z" fill="#EC273F"/>
<path d="M83.9019 18.9167C82.9653 20.2688 82.0634 21.5859 81.1499 22.903C80.8146 23.3693 80.3752 23.5557 79.8201 23.4508C79.2998 23.3576 78.976 23.0429 78.8488 22.5417C78.7332 22.0638 78.9066 21.6325 79.1842 21.2479C80.2133 19.8259 81.2193 18.3922 82.2599 16.9702C82.4103 16.7604 82.3987 16.6322 82.2599 16.434C81.4043 15.2568 80.5717 14.0679 79.7392 12.879C79.4154 12.4361 79.3345 11.9699 79.6004 11.4687C80.0745 10.6061 81.2193 10.5945 81.8205 11.457C82.4565 12.3778 83.0809 13.3103 83.7169 14.2311C83.7747 14.3127 83.8325 14.4059 83.9135 14.5108C83.9944 14.4059 84.0638 14.3243 84.1216 14.2428C84.746 13.3219 85.3704 12.4011 85.9948 11.492C86.2723 11.0957 86.6192 10.8159 87.128 10.8159C88.134 10.8159 88.7121 11.83 88.2149 12.7042C88.0762 12.949 87.9027 13.1704 87.7408 13.4035C87.0124 14.4292 86.2955 15.455 85.5554 16.469C85.4167 16.6555 85.4398 16.7721 85.567 16.9469C86.6077 18.3806 87.6368 19.8142 88.6659 21.2596C88.9434 21.6442 89.1168 22.0755 88.9896 22.5533C88.8625 23.0545 88.5271 23.3576 88.0184 23.4508C87.4749 23.5441 87.0355 23.3693 86.7117 22.9147C85.8561 21.6908 85.0004 20.4553 84.1563 19.2198C84.0638 19.1265 83.9944 19.0333 83.9019 18.9167Z" fill="#EC273F"/>
<path d="M90.6659 17.1683C90.6659 15.5364 90.6659 13.893 90.6659 12.2612C90.6659 11.4919 91.0706 10.9557 91.8337 10.944C93.3022 10.9207 94.7939 10.7576 96.2508 11.0956C98.0084 11.5035 99.211 13.0421 99.2688 14.8604C99.315 16.0843 98.9913 17.1799 98.1009 18.0541C97.3956 18.7534 96.5399 19.1148 95.5686 19.208C94.8748 19.278 94.1695 19.2546 93.4757 19.243C93.2329 19.243 93.1866 19.3129 93.1866 19.546C93.1982 20.4202 93.1866 21.2828 93.1866 22.1569C93.1866 22.9379 92.6663 23.4857 91.9147 23.4857C91.1746 23.4857 90.6543 22.9262 90.6543 22.1453C90.6659 20.4785 90.6659 18.8234 90.6659 17.1683ZM93.1982 15.0585C93.1982 15.6064 93.1982 16.1659 93.1982 16.7253C93.1982 16.8302 93.175 16.9468 93.3369 16.9468C93.9382 16.9235 94.5395 16.9934 95.1408 16.9118C96.1352 16.7836 96.6902 16.026 96.6324 14.9187C96.5862 13.9512 95.9155 13.2752 94.9558 13.2402C94.4354 13.2286 93.9151 13.2402 93.3947 13.2286C93.1982 13.2286 93.175 13.3102 93.175 13.4734C93.1982 13.9862 93.1982 14.5224 93.1982 15.0585Z" fill="#EC273F"/>
<path d="M70.8711 17.2149C70.8711 15.6064 70.8711 13.9863 70.8711 12.3661C70.8711 11.4336 71.3683 10.9091 72.2934 10.9091C73.6231 10.8975 74.9413 10.8975 76.2595 10.9091C76.7683 10.9091 77.2077 11.0607 77.4389 11.5619C77.6471 12.0164 77.6008 12.4594 77.3117 12.8673C77.0458 13.2403 76.6642 13.3219 76.2364 13.3219C75.3923 13.3219 74.5482 13.3335 73.704 13.3219C73.4728 13.3219 73.3803 13.3569 73.3918 13.6249C73.415 14.2777 73.4034 14.9304 73.3918 15.5715C73.3918 15.8046 73.4381 15.8745 73.6809 15.8745C74.4903 15.8512 75.2882 15.8512 76.086 15.8745C76.9417 15.8862 77.4274 16.3757 77.3927 17.1683C77.3695 17.7278 76.9533 18.2057 76.4098 18.2523C75.531 18.3339 74.6407 18.2873 73.7619 18.2756C73.4612 18.2756 73.4034 18.3572 73.4034 18.6369C73.4265 19.3013 73.4265 19.9657 73.4034 20.6184C73.3918 20.8865 73.4843 20.9448 73.7387 20.9448C74.6985 20.9331 75.6582 20.9331 76.6179 20.9448C77.2077 20.9564 77.6471 21.3761 77.7164 21.9472C77.7974 22.5999 77.4621 23.1594 76.8723 23.2993C76.722 23.3342 76.5601 23.3459 76.4098 23.3459C75.0454 23.3459 73.6809 23.3459 72.3165 23.3459C71.3799 23.3459 70.8942 22.8563 70.8942 21.9122C70.8711 20.362 70.8711 18.7885 70.8711 17.2149Z" fill="#EC273F"/>
<path d="M40.9785 13.8584C40.9785 13.3689 40.9785 12.8793 40.9785 12.3781C40.9785 12.2033 41.0248 12.145 41.2098 12.145C41.7648 12.1567 42.3198 12.145 42.8749 12.1567C43.8346 12.18 44.4821 12.8677 44.4937 13.8351C44.5053 14.8142 43.904 15.4786 42.9442 15.5718C42.3545 15.6301 41.7764 15.5835 41.1982 15.5951C41.0248 15.5951 40.9901 15.5252 40.9901 15.362C40.9785 14.8608 40.9785 14.3596 40.9785 13.8584Z" fill="#EC273F"/>
<path d="M15.3105 13.8579C15.3105 13.3684 15.3105 12.8672 15.3105 12.3776C15.3105 12.1911 15.3684 12.1445 15.5418 12.1445C16.12 12.1562 16.7097 12.1212 17.2878 12.1562C17.9816 12.2028 18.5366 12.5058 18.7795 13.2052C19.0107 13.9045 18.9414 14.5806 18.3979 15.1284C18.0279 15.5014 17.5422 15.583 17.045 15.5946C16.5478 15.6063 16.039 15.5946 15.5418 15.5946C15.3684 15.5946 15.3105 15.548 15.3105 15.3615C15.3105 14.8603 15.3105 14.3591 15.3105 13.8579Z" fill="#EC273F"/>
</svg>
