<svg width="175" height="55" viewBox="0 0 175 55" fill="none" xmlns="http://www.w3.org/2000/svg">
<g clip-path="url(#clip0_416_282)">
<mask id="mask0_416_282" style="mask-type:luminance" maskUnits="userSpaceOnUse" x="1" y="0" width="53" height="55">
<path d="M53.7686 51.5534C53.7732 51.9175 53.706 52.2789 53.5709 52.6171C53.4358 52.9552 53.2354 53.2634 52.9811 53.5241C52.7269 53.7848 52.4238 53.9929 52.0891 54.1364C51.7545 54.2799 51.3948 54.3561 51.0307 54.3607H4.31903C3.58455 54.3502 2.88424 54.0487 2.37185 53.5224C1.85946 52.996 1.57689 52.2879 1.58616 51.5534V3.63149C1.57689 2.89699 1.85946 2.18883 2.37185 1.66249C2.88424 1.13616 3.58455 0.834673 4.31903 0.824219H51.0307C51.3948 0.82875 51.7545 0.904956 52.0891 1.04849C52.4238 1.19203 52.7269 1.40008 52.9811 1.66077C53.2354 1.92145 53.4358 2.22967 53.5709 2.5678C53.706 2.90594 53.7732 3.26738 53.7686 3.63149V51.5534Z" fill="white"/>
</mask>
<g mask="url(#mask0_416_282)">
<path d="M54.5486 16.4905V0.435547H0.669922V54.4581H16.5116C16.619 44.4098 20.6631 34.8044 27.7752 27.7052C34.8874 20.6061 44.5001 16.5796 54.5486 16.4905Z" fill="#AECC53"/>
<path d="M54.5498 30.3694H54.4506C51.5033 30.3563 48.5823 30.9239 45.8544 32.0397C43.1265 33.1556 40.645 34.7978 38.5518 36.8726C36.4585 38.9475 34.7944 41.4143 33.6545 44.1323C32.5146 46.8502 31.9212 49.7661 31.9082 52.7134C31.9082 53.2987 31.938 53.8839 31.9826 54.4642H54.5498V30.3694Z" fill="#AECC53"/>
</g>
<path d="M66.2329 6.40253V5.28162C66.2035 4.79828 66.2766 4.31416 66.4476 3.8611C66.6186 3.40805 66.8835 2.99629 67.2249 2.6529C67.9907 1.99771 68.9817 1.66679 69.9875 1.73038C70.2233 1.73167 70.4587 1.74989 70.6918 1.78493C70.9348 1.81965 71.1878 1.86925 71.4854 1.92877L71.2473 3.9623L70.8158 3.89286C70.651 3.87598 70.4855 3.86771 70.3198 3.86807C70.1384 3.85625 69.9565 3.88233 69.7857 3.94467C69.6149 4.00701 69.459 4.10422 69.3279 4.23012C69.0829 4.52364 68.9604 4.90018 68.9856 5.28162V6.40253H70.9299V8.32199H68.9856V16.5305H66.2528V8.32199" fill="#4C4847"/>
<path d="M78.0082 8.75077L77.0162 8.72099C76.6682 8.70923 76.3241 8.79699 76.0243 8.97395C75.7594 9.14773 75.5523 9.39634 75.4291 9.68817V16.5278H72.7012V6.39979H75.2406L75.3597 7.88774C75.5619 7.40564 75.8785 6.98006 76.2822 6.64779C76.6539 6.35202 77.1166 6.19427 77.5916 6.2014C77.718 6.20221 77.8441 6.21383 77.9685 6.23613L78.3207 6.31549L78.0082 8.75077Z" fill="#4C4847"/>
<path d="M79.302 11.18C79.2483 9.82772 79.699 8.50369 80.5668 7.46512C81.0066 6.97951 81.549 6.598 82.1548 6.34834C82.7605 6.09868 83.4142 5.98713 84.0684 6.02181C84.7255 5.988 85.3819 6.09985 85.9907 6.34937C86.5995 6.59889 87.1456 6.97989 87.5899 7.46512C88.4646 8.50009 88.9178 9.82623 88.8596 11.18V11.3735C88.9189 12.7304 88.4656 14.06 87.5899 15.0983C86.6527 16.0165 85.3929 16.5307 84.0808 16.5307C82.7688 16.5307 81.509 16.0165 80.5718 15.0983C79.696 14.06 79.2428 12.7304 79.302 11.3735V11.18ZM82.025 11.3735C81.9909 12.1466 82.162 12.9149 82.521 13.6004C82.6782 13.8734 82.909 14.0967 83.187 14.2449C83.4649 14.3931 83.779 14.4602 84.0932 14.4386C84.4042 14.4568 84.714 14.3874 84.9875 14.2383C85.2611 14.0893 85.4873 13.8666 85.6407 13.5955C85.9979 12.9111 86.169 12.1448 86.1367 11.3735V11.18C86.1687 10.4151 85.9976 9.65524 85.6407 8.97786C85.4733 8.71677 85.2429 8.50195 84.9708 8.35316C84.6987 8.20438 84.3935 8.12641 84.0833 8.12641C83.7732 8.12641 83.468 8.20438 83.1958 8.35316C82.9237 8.50195 82.6933 8.71677 82.5259 8.97786C82.1719 9.6545 82.0009 10.4119 82.0299 11.1751L82.025 11.3735Z" fill="#4C4847"/>
<path d="M102.203 6.20696V1.68359H104.931V6.20696H106.642V8.12641H104.931V13.2797C104.9 13.5824 104.989 13.8852 105.179 14.1229C105.264 14.2076 105.366 14.2739 105.477 14.3174C105.589 14.361 105.709 14.3809 105.829 14.3758C105.953 14.3843 106.077 14.3843 106.201 14.3758L106.568 14.2964L106.791 16.2804C106.531 16.3711 106.264 16.4408 105.992 16.4887C105.713 16.5385 105.429 16.5617 105.144 16.5581C104.748 16.5837 104.35 16.5283 103.976 16.3953C103.602 16.2623 103.258 16.0544 102.967 15.7844C102.471 15.2636 102.203 14.4452 102.203 13.3045V8.12641" fill="#4C4847"/>
<path d="M108.382 11.3578C108.318 9.992 108.681 8.6401 109.419 7.48914C109.738 7.0132 110.173 6.62669 110.684 6.36628C111.194 6.10587 111.763 5.98019 112.335 6.00119C112.81 5.99357 113.279 6.10617 113.699 6.32854C114.12 6.5593 114.486 6.87923 114.77 7.26596V1.71094H117.513V16.3177H115.182L114.959 15.0926C114.67 15.5322 114.283 15.8989 113.828 16.1639C113.373 16.414 112.86 16.5406 112.34 16.5309C111.783 16.5574 111.227 16.4469 110.722 16.2091C110.217 15.9714 109.778 15.6136 109.444 15.167C108.709 14.1088 108.345 12.8378 108.407 11.5512L108.382 11.3578ZM111.11 11.5512C111.073 12.276 111.227 12.9978 111.556 13.6443C111.705 13.8951 111.921 14.0995 112.179 14.2344C112.438 14.3693 112.729 14.4295 113.02 14.4081C113.376 14.4163 113.73 14.3344 114.046 14.17C114.346 14.0057 114.596 13.7642 114.77 13.4707V9.15565C114.596 8.85189 114.349 8.59623 114.051 8.41168C113.744 8.22826 113.392 8.13541 113.035 8.14384C112.73 8.13127 112.428 8.20938 112.168 8.3683C111.907 8.52721 111.7 8.75978 111.571 9.03661C111.235 9.76264 111.077 10.5584 111.11 11.3578V11.5512Z" fill="#4C4847"/>
<path d="M124.497 16.5295C123.843 16.567 123.188 16.4622 122.577 16.2225C121.967 15.9828 121.415 15.6137 120.961 15.1407C120.088 14.1573 119.631 12.8735 119.686 11.5597V11.1877C119.63 9.8371 120.069 8.51249 120.921 7.46292C121.34 6.97866 121.864 6.59675 122.452 6.34655C123.041 6.09634 123.68 5.9845 124.319 6.0196C124.901 5.98269 125.483 6.07569 126.025 6.29187C126.566 6.50806 127.052 6.842 127.449 7.26948C128.216 8.21673 128.605 9.41491 128.54 10.6322V12.0458H122.504L122.474 12.1053C122.49 12.7213 122.714 13.3138 123.109 13.7867C123.323 14.0119 123.584 14.1869 123.874 14.2993C124.164 14.4116 124.475 14.4584 124.785 14.4364C125.319 14.4486 125.851 14.3852 126.367 14.248C126.829 14.1075 127.273 13.9162 127.692 13.6776L128.431 15.359C127.938 15.7354 127.379 16.0179 126.784 16.1922C126.045 16.4268 125.273 16.5406 124.497 16.5295ZM124.319 8.12753C124.078 8.11425 123.837 8.1586 123.616 8.25692C123.395 8.35524 123.201 8.50469 123.049 8.69295C122.733 9.12826 122.548 9.64422 122.514 10.1809V10.2255H125.871V10.0222C125.899 9.52806 125.773 9.03742 125.509 8.61855C125.367 8.44433 125.184 8.30821 124.976 8.22248C124.768 8.13676 124.542 8.10413 124.319 8.12753Z" fill="#4C4847"/>
<path d="M136.089 13.5259C136.086 13.3716 136.044 13.2207 135.968 13.0865C135.892 12.9523 135.784 12.8391 135.653 12.7571C135.159 12.4625 134.611 12.2702 134.041 12.1917C133.07 12.0436 132.145 11.6754 131.338 11.1154C131.039 10.8864 130.799 10.589 130.638 10.2481C130.478 9.90722 130.401 9.5328 130.415 9.15627C130.416 8.72633 130.516 8.3023 130.707 7.91758C130.899 7.53286 131.178 7.19796 131.521 6.93922C132.36 6.29513 133.401 5.96995 134.458 6.02165C135.557 5.96656 136.643 6.29045 137.533 6.93922C137.892 7.19802 138.182 7.54188 138.376 7.94005C138.569 8.33821 138.662 8.77824 138.644 9.22074V9.28027H136.005C136.013 9.09672 135.982 8.91361 135.914 8.74275C135.847 8.57189 135.744 8.41708 135.613 8.2883C135.305 8.0483 134.928 7.91309 134.537 7.90239C134.146 7.89168 133.762 8.00602 133.441 8.22877C133.318 8.32422 133.22 8.44711 133.154 8.58753C133.087 8.72795 133.055 8.88198 133.059 9.03722C133.056 9.18683 133.091 9.33474 133.16 9.46734C133.23 9.59994 133.331 9.71298 133.456 9.79608C133.953 10.0777 134.501 10.2581 135.068 10.3268C136.066 10.4739 137.017 10.8509 137.845 11.4279C138.143 11.6631 138.381 11.9655 138.54 12.3103C138.698 12.6551 138.773 13.0326 138.758 13.4118C138.761 13.8521 138.656 14.2864 138.452 14.6765C138.248 15.0666 137.951 15.4005 137.587 15.6487C136.679 16.2664 135.594 16.5711 134.497 16.5167C133.343 16.5798 132.206 16.2161 131.303 15.4949C130.947 15.2204 130.659 14.866 130.465 14.4602C130.27 14.0545 130.173 13.6088 130.182 13.1588V13.0993H132.662C132.651 13.3241 132.693 13.5484 132.785 13.7536C132.877 13.9589 133.017 14.1392 133.193 14.2798C133.584 14.5393 134.048 14.6678 134.517 14.6468C134.925 14.6721 135.33 14.5661 135.673 14.3443C135.803 14.2515 135.909 14.1287 135.981 13.9862C136.054 13.8437 136.091 13.6858 136.089 13.5259Z" fill="#4C4847"/>
<path d="M144.399 12.2888H143.724V16.5295H140.986V1.92773H143.724V10.2106H144.329L146.755 6.4015H149.919L146.626 11.0191L150.37 16.5295H147.196L144.399 12.2888Z" fill="#4C4847"/>
<path d="M154.756 16.5284H152.023V14.1328H154.756V16.5284Z" fill="#4C4847"/>
<path d="M163.11 8.75072L162.118 8.72095C161.77 8.70863 161.425 8.79643 161.126 8.9739C160.86 9.1474 160.651 9.39594 160.526 9.68812V16.5277H157.803V6.39975H160.342L160.461 7.8877C160.663 7.4056 160.98 6.98001 161.384 6.64774C161.754 6.35269 162.215 6.19496 162.688 6.20136C162.816 6.20217 162.944 6.21379 163.07 6.23608L163.417 6.31544L163.11 8.75072Z" fill="#4C4847"/>
<path d="M171.216 14.8391C170.932 15.3511 170.522 15.7828 170.026 16.0939C169.519 16.393 168.938 16.5442 168.349 16.5304C167.881 16.5498 167.414 16.4621 166.984 16.2739C166.554 16.0856 166.173 15.8019 165.869 15.4442C165.268 14.7201 164.967 13.5975 164.967 12.0765V6.20898H167.69V12.0963C167.633 12.7252 167.759 13.3571 168.052 13.9166C168.184 14.0847 168.355 14.2179 168.55 14.3044C168.746 14.3909 168.96 14.428 169.173 14.4125C169.557 14.4234 169.94 14.3507 170.294 14.1993C170.601 14.0648 170.866 13.8508 171.062 13.5793V6.20898H173.795V16.337H171.499L171.216 14.8391Z" fill="#4C4847"/>
<path d="M93.6568 6.40249L93.7758 7.85572C94.0894 7.35965 94.516 6.94494 95.0207 6.64554C95.5242 6.35573 96.0964 6.20668 96.6773 6.21402C97.1256 6.18791 97.574 6.26359 97.9888 6.43538C98.4037 6.60717 98.7743 6.87062 99.0729 7.20598C99.6483 7.8673 99.9359 8.90721 99.9359 10.3257V16.5305H97.1931V10.3356C97.243 9.79382 97.1103 9.2509 96.8162 8.79314C96.6726 8.63646 96.4953 8.51443 96.2977 8.43624C96.1001 8.35806 95.8873 8.32576 95.6754 8.34179C95.3054 8.33299 94.9384 8.41113 94.6041 8.56994C94.3026 8.7177 94.0407 8.93536 93.8403 9.2048V16.5305H91.1074V6.40249H93.6568Z" fill="#4C4847"/>
<path d="M68.3651 39.6118C68.6479 39.6162 68.9239 39.5254 69.1488 39.3539C69.2605 39.2691 69.35 39.1584 69.4096 39.0314C69.4692 38.9045 69.4971 38.7649 69.491 38.6248H69.9027V38.6496C69.9099 38.8344 69.8727 39.0182 69.7942 39.1857C69.7156 39.3531 69.598 39.4992 69.4513 39.6118C69.1467 39.8696 68.7592 40.0087 68.3601 40.0036C68.1133 40.0165 67.867 39.9702 67.6417 39.8683C67.4165 39.7665 67.219 39.6122 67.0656 39.4184C66.744 38.9906 66.5794 38.4652 66.5994 37.9304V37.7667C66.5788 37.2326 66.7416 36.7076 67.0607 36.2788C67.214 36.0849 67.4116 35.9306 67.6368 35.8288C67.862 35.727 68.1083 35.6806 68.3552 35.6935C68.7648 35.6802 69.164 35.824 69.4711 36.0953C69.6183 36.2293 69.7335 36.3948 69.8082 36.5794C69.8829 36.7639 69.9152 36.9629 69.9027 37.1616H69.491C69.4976 37.0128 69.4718 36.8642 69.4153 36.7263C69.3588 36.5884 69.2729 36.4645 69.1636 36.3631C68.9441 36.1642 68.6563 36.0576 68.3601 36.0655C68.1654 36.0509 67.9704 36.0893 67.7957 36.1766C67.6211 36.264 67.4733 36.397 67.3682 36.5615C67.1433 36.9222 67.031 37.3419 67.0458 37.7667V37.9304C67.0299 38.3585 67.1422 38.7816 67.3682 39.1456C67.4781 39.3047 67.6284 39.4317 67.8036 39.5136C67.9787 39.5955 68.1725 39.6294 68.3651 39.6118Z" fill="#1D1D1B"/>
<path d="M70.6411 37.7769C70.6224 37.2375 70.7984 36.7093 71.1371 36.289C71.3072 36.1031 71.5141 35.9547 71.7447 35.8532C71.9752 35.7517 72.2244 35.6992 72.4763 35.6992C72.7282 35.6992 72.9774 35.7517 73.2079 35.8532C73.4385 35.9547 73.6454 36.1031 73.8154 36.289C74.1557 36.7084 74.332 37.2372 74.3114 37.7769V37.9059C74.3306 38.4454 74.1545 38.9737 73.8154 39.3938C73.6449 39.5798 73.4376 39.7283 73.2066 39.8299C72.9757 39.9314 72.7261 39.9839 72.4738 39.9839C72.2215 39.9839 71.9719 39.9314 71.741 39.8299C71.51 39.7283 71.3027 39.5798 71.1322 39.3938C70.7931 38.9737 70.617 38.4454 70.6362 37.9059L70.6411 37.7769ZM71.1024 37.9059C71.0884 38.3402 71.2173 38.7671 71.4694 39.121C71.5856 39.2816 71.7396 39.411 71.9179 39.4975C72.0962 39.5841 72.2932 39.6251 72.4912 39.617C72.6844 39.6215 72.8758 39.5786 73.0487 39.4922C73.2216 39.4057 73.3708 39.2783 73.4831 39.121C73.737 38.7677 73.8677 38.3408 73.8551 37.9059V37.7769C73.8666 37.3437 73.736 36.9187 73.4831 36.5667C73.3678 36.4065 73.2146 36.2774 73.0371 36.1908C72.8597 36.1043 72.6636 36.063 72.4664 36.0707C72.273 36.0658 72.0815 36.1085 71.9085 36.195C71.7355 36.2815 71.5865 36.4091 71.4744 36.5667C71.2233 36.9193 71.0944 37.3443 71.1074 37.7769L71.1024 37.9059Z" fill="#1D1D1B"/>
<path d="M75.0302 37.7766C75.0096 37.2369 75.1858 36.7081 75.5261 36.2887C75.6958 36.1029 75.9022 35.9546 76.1324 35.8531C76.3625 35.7516 76.6113 35.6992 76.8628 35.6992C77.1143 35.6992 77.3631 35.7516 77.5932 35.8531C77.8234 35.9546 78.0299 36.1029 78.1995 36.2887C78.5398 36.7081 78.7161 37.2369 78.6955 37.7766V37.9056C78.7147 38.4451 78.5386 38.9734 78.1995 39.3935C78.0294 39.5794 77.8225 39.7278 77.592 39.8293C77.3614 39.9308 77.1123 39.9833 76.8603 39.9833C76.6084 39.9833 76.3593 39.9308 76.1287 39.8293C75.8981 39.7278 75.6913 39.5794 75.5212 39.3935C75.1801 38.9745 75.0037 38.4454 75.0252 37.9056L75.0302 37.7766ZM75.4914 37.9056C75.4774 38.3399 75.6063 38.7668 75.8585 39.1207C75.9802 39.2736 76.1348 39.3971 76.3108 39.482C76.4869 39.5669 76.6798 39.611 76.8752 39.611C77.0707 39.611 77.2636 39.5669 77.4396 39.482C77.6157 39.3971 77.7703 39.2736 77.892 39.1207C78.1441 38.7668 78.2731 38.3399 78.259 37.9056V37.7766C78.2705 37.3434 78.1399 36.9183 77.887 36.5664C77.7669 36.4119 77.6131 36.2868 77.4373 36.2008C77.2615 36.1148 77.0684 36.0701 76.8727 36.0701C76.677 36.0701 76.4839 36.1148 76.3081 36.2008C76.1324 36.2868 75.9786 36.4119 75.8585 36.5664C75.6074 36.919 75.4785 37.344 75.4914 37.7766V37.9056Z" fill="#1D1D1B"/>
<path d="M81.3481 35.6816C81.5948 35.6728 81.8403 35.7216 82.0649 35.824C82.2896 35.9265 82.4874 36.0797 82.6426 36.2718C82.9778 36.694 83.1534 37.2208 83.1386 37.7597V37.8887C83.1601 38.4285 82.9837 38.9577 82.6426 39.3766C82.473 39.5623 82.2665 39.7107 82.0364 39.8122C81.8062 39.9136 81.5574 39.9661 81.3059 39.9661C81.0544 39.9661 80.8056 39.9136 80.5755 39.8122C80.3454 39.7107 80.1389 39.5623 79.9692 39.3766C79.6281 38.9577 79.4518 38.4285 79.4733 37.8887V36.614C79.451 36.3236 79.4864 36.0316 79.5775 35.755C79.6686 35.4783 79.8135 35.2224 80.004 35.0021C80.4256 34.6232 80.9748 34.4177 81.5415 34.4267C81.8309 34.4293 82.1189 34.3857 82.3946 34.2978C82.4773 34.2762 82.5506 34.2281 82.6034 34.1609C82.6563 34.0938 82.6857 34.0112 82.6872 33.9258H83.0443C83.0632 34.0622 83.0395 34.2012 82.9765 34.3237C82.9134 34.4462 82.8142 34.5462 82.6922 34.6102C82.3413 34.765 81.9593 34.8363 81.5762 34.8185C81.1193 34.8033 80.6722 34.953 80.3164 35.2401C80.1623 35.3907 80.0463 35.576 79.9782 35.7804C79.91 35.9849 79.8917 36.2026 79.9246 36.4156C80.0646 36.1748 80.2667 35.9761 80.5099 35.8403C80.7713 35.717 81.0597 35.6624 81.3481 35.6816ZM81.2786 36.0734C81.0853 36.0685 80.8938 36.1111 80.7208 36.1976C80.5478 36.2841 80.3987 36.4118 80.2867 36.5694C80.04 36.9238 79.9131 37.3479 79.9246 37.7796V37.9085C79.9106 38.3428 80.0395 38.7698 80.2916 39.1237C80.4128 39.2765 80.567 39.4 80.7427 39.4849C80.9183 39.5697 81.1109 39.6138 81.3059 39.6138C81.501 39.6138 81.6935 39.5697 81.8692 39.4849C82.0448 39.4 82.199 39.2765 82.3202 39.1237C82.5723 38.7698 82.7013 38.3428 82.6872 37.9085V37.7796C82.7002 37.3469 82.5713 36.9219 82.3202 36.5694C82.2022 36.4059 82.045 36.2747 81.8629 36.188C81.6809 36.1014 81.4799 36.0619 81.2786 36.0734Z" fill="#1D1D1B"/>
<path d="M84.4144 35.7598V39.5342H86.2743V35.7598H86.7356V39.5342H88.5707V35.7598H89.032V39.926H83.9531V35.7598H84.4144Z" fill="#1D1D1B"/>
<path d="M89.6374 40.4297H88.6504V40.7967H89.6374V40.4297Z" fill="#1D1D1B"/>
<path d="M91.8442 40.0038C91.5967 40.0107 91.3508 39.9632 91.1237 39.8647C90.8966 39.7661 90.6939 39.6189 90.5299 39.4334C90.1842 39.017 90.0072 38.4861 90.0339 37.9455V37.7372C90.0077 37.1966 90.1846 36.6659 90.5299 36.2492C90.6828 36.0624 90.876 35.9127 91.095 35.8113C91.3141 35.71 91.5533 35.6596 91.7946 35.664C92.0145 35.6529 92.2341 35.6918 92.4368 35.7777C92.6395 35.8636 92.8201 35.9943 92.9651 36.1599C93.258 36.5316 93.406 36.9968 93.3818 37.4693V37.8314H90.4803V37.9554C90.4631 38.3801 90.5908 38.7981 90.8423 39.1408C90.9574 39.2932 91.1078 39.4154 91.2807 39.4966C91.4535 39.5778 91.6435 39.6157 91.8343 39.607C92.0748 39.6108 92.3138 39.5687 92.5386 39.483C92.737 39.4088 92.9178 39.2939 93.0693 39.1458L93.2627 39.4632C93.1002 39.6298 92.9041 39.76 92.6874 39.8451C92.4202 39.9551 92.1332 40.0091 91.8442 40.0038ZM91.8045 36.0707C91.6399 36.0663 91.4764 36.0982 91.3255 36.1642C91.1746 36.2303 91.0401 36.3287 90.9316 36.4526C90.689 36.728 90.5473 37.0779 90.5299 37.4445H92.9155V37.3503C92.9295 37.0218 92.8277 36.6988 92.6279 36.4377C92.5294 36.3158 92.4034 36.2191 92.2603 36.1553C92.1172 36.0915 91.961 36.0625 91.8045 36.0707Z" fill="#1D1D1B"/>
<path d="M95.8456 39.6116C96.1284 39.6168 96.4047 39.5258 96.6292 39.3536C96.7409 39.2688 96.8304 39.1582 96.89 39.0312C96.9496 38.9042 96.9776 38.7647 96.9714 38.6245H97.3831V38.6493C97.3912 38.8343 97.3544 39.0184 97.2758 39.1859C97.1972 39.3535 97.0791 39.4996 96.9318 39.6116C96.6276 39.8701 96.2398 40.0094 95.8406 40.0034C95.5938 40.0163 95.3474 39.9699 95.1222 39.8681C94.897 39.7663 94.6994 39.612 94.5461 39.4181C94.2245 38.9904 94.0599 38.465 94.0799 37.9302V37.7665C94.0593 37.2324 94.222 36.7073 94.5411 36.2785C94.695 36.0853 94.8927 35.9315 95.1178 35.8297C95.3429 35.7279 95.5889 35.6812 95.8357 35.6933C96.2454 35.679 96.645 35.8228 96.9516 36.095C97.1006 36.2277 97.217 36.3929 97.2918 36.5779C97.3666 36.7628 97.3979 36.9625 97.3831 37.1614H96.9714C96.9781 37.0125 96.9523 36.864 96.8957 36.7261C96.8392 36.5882 96.7533 36.4642 96.6441 36.3629C96.4246 36.1639 96.1368 36.0573 95.8406 36.0653C95.6459 36.0507 95.4508 36.0891 95.2762 36.1764C95.1015 36.2637 94.9538 36.3967 94.8486 36.5612C94.6237 36.922 94.5115 37.3416 94.5262 37.7665V37.9302C94.5104 38.3583 94.6226 38.7814 94.8486 39.1453C94.9589 39.304 95.1093 39.4307 95.2843 39.5126C95.4594 39.5945 95.653 39.6286 95.8456 39.6116Z" fill="#1D1D1B"/>
<path d="M101.495 36.1507H99.9772V39.9251H99.5159V36.1507H98.0527V35.7539H101.495V36.1507Z" fill="#1D1D1B"/>
<path d="M102.4 39.9268V35.7556H103.928C104.35 35.7314 104.77 35.8295 105.138 36.0383C105.278 36.1259 105.392 36.2494 105.468 36.3959C105.544 36.5425 105.579 36.7067 105.57 36.8715C105.573 37.0753 105.505 37.2739 105.376 37.432C105.235 37.603 105.045 37.726 104.831 37.7841C105.083 37.8232 105.314 37.9475 105.485 38.1363C105.648 38.3071 105.737 38.5351 105.733 38.7711C105.742 38.9372 105.709 39.1028 105.637 39.2528C105.565 39.4027 105.457 39.5321 105.322 39.6292C104.987 39.8441 104.593 39.9482 104.196 39.9268H102.4ZM102.862 37.6205H103.973C104.267 37.6395 104.561 37.576 104.821 37.4369C104.914 37.378 104.99 37.2957 105.041 37.1982C105.093 37.1008 105.117 36.9915 105.113 36.8814C105.12 36.7705 105.095 36.66 105.041 36.5626C104.988 36.4652 104.908 36.3849 104.811 36.3309C104.537 36.195 104.233 36.1334 103.928 36.1523H102.862V37.6205ZM102.862 38.0073V39.5449H104.196C104.477 39.5607 104.755 39.4897 104.994 39.3415C105.087 39.2779 105.161 39.1916 105.211 39.0908C105.26 38.9901 105.283 38.8783 105.277 38.7662C105.28 38.6575 105.256 38.5497 105.205 38.4533C105.155 38.3569 105.081 38.2751 104.989 38.2156C104.752 38.0678 104.475 37.9968 104.196 38.0123L102.862 38.0073Z" fill="#1D1D1B"/>
<path d="M106.525 37.7769C106.505 37.2372 106.681 36.7084 107.021 36.289C107.191 36.1031 107.398 35.9547 107.629 35.8532C107.859 35.7517 108.108 35.6992 108.36 35.6992C108.612 35.6992 108.861 35.7517 109.092 35.8532C109.323 35.9547 109.529 36.1031 109.699 36.289C110.04 36.7084 110.216 37.2372 110.195 37.7769V37.9059C110.217 38.4457 110.041 38.9749 109.699 39.3938C109.536 39.5869 109.332 39.7404 109.1 39.8427C108.869 39.945 108.618 39.9933 108.365 39.9841C108.111 39.9933 107.858 39.9451 107.626 39.8429C107.393 39.7407 107.186 39.5872 107.021 39.3938C106.68 38.9749 106.504 38.4457 106.525 37.9059V37.7769ZM106.991 37.9059C106.976 38.3396 107.103 38.7665 107.353 39.121C107.47 39.2813 107.624 39.4104 107.802 39.4969C107.98 39.5834 108.177 39.6247 108.375 39.617C108.568 39.6211 108.76 39.578 108.932 39.4916C109.105 39.4052 109.255 39.278 109.367 39.121C109.619 38.7671 109.748 38.3402 109.734 37.9059V37.7769C109.747 37.3443 109.618 36.9193 109.367 36.5667C109.247 36.4121 109.092 36.2871 108.916 36.2011C108.74 36.1151 108.546 36.0703 108.35 36.0703C108.154 36.0703 107.961 36.1151 107.785 36.2011C107.608 36.2871 107.454 36.4121 107.334 36.5667C107.084 36.9199 106.957 37.3448 106.972 37.7769L106.991 37.9059Z" fill="#1D1D1B"/>
<path d="M116.247 39.9251H115.786V36.1507H113.539V39.9251H113.078V35.7539H116.247V39.9251Z" fill="#1D1D1B"/>
<path d="M120.822 37.9552C120.849 38.4841 120.7 39.0071 120.4 39.4432C120.264 39.623 120.086 39.7674 119.883 39.8641C119.679 39.9608 119.455 40.0069 119.229 39.9987C118.965 40.005 118.703 39.9472 118.466 39.83C118.25 39.7237 118.065 39.563 117.93 39.3638V41.5263H117.469V35.7531H117.821L117.905 36.4078C118.035 36.1835 118.222 35.9972 118.446 35.8671C118.685 35.7377 118.953 35.6727 119.225 35.6787C119.455 35.6701 119.685 35.7208 119.89 35.8258C120.096 35.9309 120.272 36.0868 120.4 36.2788C120.703 36.7525 120.851 37.3092 120.822 37.8709V37.9552ZM120.36 37.8709C120.38 37.4195 120.27 36.9719 120.043 36.5814C119.951 36.4208 119.815 36.2893 119.652 36.2017C119.489 36.114 119.305 36.0737 119.12 36.0854C118.853 36.0719 118.589 36.1488 118.371 36.3036C118.176 36.4507 118.023 36.6477 117.93 36.874V38.8926C118.03 39.1082 118.188 39.2919 118.386 39.4233C118.609 39.5585 118.865 39.6257 119.125 39.6168C119.305 39.6267 119.484 39.5904 119.645 39.5114C119.807 39.4324 119.946 39.3133 120.048 39.1654C120.272 38.8048 120.381 38.3844 120.36 37.9602V37.8709Z" fill="#1D1D1B"/>
<path d="M121.602 37.7788C121.582 37.2391 121.758 36.7103 122.098 36.2908C122.261 36.0968 122.465 35.9427 122.697 35.8404C122.928 35.7381 123.18 35.6902 123.433 35.7006C123.686 35.6906 123.938 35.7386 124.17 35.8409C124.403 35.9431 124.608 36.097 124.772 36.2908C125.112 36.7103 125.288 37.2391 125.268 37.7788V37.9077C125.287 38.4473 125.111 38.9756 124.772 39.3957C124.602 39.5815 124.395 39.7299 124.164 39.8315C123.934 39.933 123.685 39.9854 123.433 39.9854C123.181 39.9854 122.932 39.933 122.701 39.8315C122.47 39.7299 122.264 39.5815 122.093 39.3957C121.752 38.9767 121.576 38.4476 121.597 37.9077L121.602 37.7788ZM122.064 37.9077C122.05 38.3421 122.179 38.769 122.431 39.1229C122.547 39.2835 122.701 39.4128 122.879 39.4994C123.057 39.5859 123.254 39.627 123.452 39.6189C123.646 39.6233 123.837 39.5805 124.01 39.494C124.183 39.4076 124.332 39.2802 124.444 39.1229C124.698 38.7696 124.829 38.3426 124.816 37.9077V37.7788C124.828 37.3456 124.697 36.9205 124.444 36.5686C124.331 36.4119 124.182 36.2849 124.009 36.1986C123.837 36.1122 123.646 36.069 123.452 36.0726C123.259 36.0677 123.068 36.1103 122.895 36.1968C122.722 36.2833 122.573 36.411 122.46 36.5686C122.209 36.9211 122.08 37.3461 122.093 37.7788L122.064 37.9077Z" fill="#1D1D1B"/>
<path d="M126.07 37.872C126.041 37.3103 126.188 36.7536 126.492 36.2799C126.619 36.0872 126.795 35.9308 127.001 35.8256C127.207 35.7205 127.436 35.6703 127.667 35.6798C127.919 35.6749 128.169 35.7293 128.396 35.8385C128.61 35.9484 128.794 36.1083 128.932 36.3047V33.9141H129.393V36.3245C129.526 36.1162 129.711 35.9454 129.929 35.8286C130.162 35.7109 130.421 35.653 130.683 35.6599C130.914 35.6514 131.143 35.702 131.348 35.8071C131.554 35.9121 131.73 36.0681 131.858 36.2601C132.161 36.7337 132.309 37.2905 132.28 37.8522V37.9365C132.307 38.4654 132.159 38.9884 131.858 39.4244C131.722 39.6043 131.545 39.7486 131.341 39.8453C131.137 39.942 130.913 39.9882 130.688 39.9799C130.428 39.9862 130.17 39.9337 129.934 39.8262C129.721 39.724 129.536 39.5727 129.393 39.3848V41.5274H128.932V39.4195C128.787 39.6043 128.602 39.7536 128.391 39.8559C128.161 39.9595 127.91 40.0103 127.657 40.0047C127.432 40.0139 127.209 39.9681 127.006 39.8713C126.803 39.7745 126.626 39.6296 126.492 39.4492C126.191 39.0132 126.043 38.4902 126.07 37.9613V37.872ZM126.531 37.9563C126.51 38.3792 126.615 38.7989 126.834 39.1616C126.931 39.3115 127.066 39.4325 127.226 39.5119C127.385 39.5914 127.564 39.6263 127.741 39.6129C127.996 39.623 128.248 39.5575 128.466 39.4244C128.665 39.294 128.826 39.1125 128.932 38.8987V36.8404C128.833 36.6203 128.679 36.4292 128.485 36.2849C128.271 36.135 128.013 36.0601 127.751 36.0716C127.568 36.0618 127.386 36.103 127.225 36.1906C127.064 36.2781 126.93 36.4086 126.839 36.5676C126.617 36.9636 126.511 37.4137 126.531 37.8671V37.9563ZM131.823 37.872C131.841 37.4186 131.729 36.9696 131.501 36.5775C131.406 36.4196 131.27 36.2903 131.108 36.203C130.945 36.1158 130.763 36.0738 130.579 36.0815C130.312 36.0703 130.049 36.147 129.83 36.2997C129.637 36.4483 129.486 36.645 129.393 36.8701V38.9037C129.493 39.1192 129.651 39.3029 129.849 39.4344C130.07 39.5684 130.326 39.634 130.583 39.6228C130.763 39.6332 130.942 39.5972 131.104 39.5181C131.266 39.439 131.404 39.3197 131.506 39.1715C131.734 38.8123 131.845 38.3912 131.823 37.9663V37.872Z" fill="#1D1D1B"/>
<path d="M134.895 40.0038C134.648 40.0107 134.402 39.9632 134.174 39.8647C133.947 39.7661 133.745 39.6189 133.581 39.4334C133.235 39.017 133.058 38.4861 133.085 37.9455V37.7372C133.058 37.1966 133.235 36.6659 133.581 36.2492C133.734 36.0624 133.927 35.9127 134.146 35.8113C134.365 35.71 134.604 35.6596 134.845 35.664C135.065 35.6529 135.285 35.6918 135.488 35.7777C135.69 35.8636 135.871 35.9943 136.016 36.1599C136.309 36.5316 136.457 36.9968 136.433 37.4693V37.8314H133.531V37.9554C133.515 38.3793 133.64 38.7965 133.888 39.1408C134.004 39.2923 134.155 39.4137 134.327 39.4949C134.5 39.576 134.69 39.6145 134.88 39.607C135.121 39.6104 135.36 39.5683 135.584 39.483C135.782 39.4076 135.963 39.2929 136.115 39.1458L136.309 39.4632C136.146 39.6298 135.95 39.76 135.733 39.8451C135.468 39.9544 135.182 40.0084 134.895 40.0038ZM134.855 36.0707C134.69 36.0662 134.526 36.0981 134.374 36.1641C134.222 36.2301 134.087 36.3286 133.977 36.4526C133.736 36.7285 133.596 37.0784 133.581 37.4445H135.966V37.3503C135.98 37.0218 135.878 36.6988 135.679 36.4377C135.58 36.3158 135.454 36.2191 135.311 36.1553C135.168 36.0915 135.012 36.0625 134.855 36.0707Z" fill="#1D1D1B"/>
<path d="M138.898 39.6118C139.181 39.6162 139.457 39.5254 139.682 39.3539C139.794 39.2691 139.883 39.1584 139.943 39.0314C140.002 38.9045 140.03 38.7649 140.024 38.6248H140.436V38.6496C140.443 38.8344 140.406 39.0182 140.327 39.1857C140.249 39.3531 140.131 39.4992 139.985 39.6118C139.68 39.8704 139.293 40.0096 138.893 40.0036C138.647 40.0165 138.4 39.9702 138.175 39.8683C137.95 39.7665 137.752 39.6122 137.599 39.4184C137.277 38.9906 137.113 38.4652 137.133 37.9304V37.7667C137.112 37.2326 137.275 36.7076 137.594 36.2788C137.747 36.0849 137.945 35.9306 138.17 35.8288C138.395 35.727 138.642 35.6806 138.888 35.6935C139.298 35.6802 139.697 35.824 140.004 36.0953C140.152 36.2293 140.267 36.3948 140.341 36.5794C140.416 36.7639 140.448 36.9629 140.436 37.1616H140.024C140.031 37.0128 140.005 36.8642 139.948 36.7263C139.892 36.5884 139.806 36.4645 139.697 36.3631C139.477 36.1642 139.19 36.0576 138.893 36.0655C138.699 36.0509 138.504 36.0893 138.329 36.1766C138.154 36.264 138.007 36.397 137.901 36.5615C137.676 36.9222 137.564 37.3419 137.579 37.7667V37.9304C137.563 38.3585 137.675 38.7816 137.901 39.1456C138.011 39.3047 138.162 39.4317 138.337 39.5136C138.512 39.5955 138.706 39.6294 138.898 39.6118Z" fill="#1D1D1B"/>
<path d="M142.957 39.6118C143.24 39.6178 143.516 39.5268 143.741 39.3539C143.852 39.2691 143.942 39.1584 144.001 39.0314C144.061 38.9045 144.089 38.7649 144.083 38.6248H144.494V38.6496C144.501 38.8348 144.463 39.0187 144.383 39.1861C144.304 39.3535 144.185 39.4995 144.038 39.6118C143.734 39.8712 143.346 40.0105 142.947 40.0036C142.7 40.0157 142.454 39.969 142.229 39.8672C142.004 39.7654 141.806 39.6116 141.652 39.4184C141.334 38.989 141.172 38.4644 141.191 37.9304V37.7667C141.171 37.2326 141.333 36.7076 141.652 36.2788C141.806 36.0849 142.003 35.9306 142.229 35.8288C142.454 35.727 142.7 35.6806 142.947 35.6935C143.357 35.6802 143.756 35.824 144.063 36.0953C144.21 36.2293 144.325 36.3948 144.4 36.5794C144.475 36.7639 144.507 36.9629 144.494 37.1616H144.083C144.089 37.0128 144.064 36.8642 144.007 36.7263C143.951 36.5884 143.865 36.4645 143.755 36.3631C143.537 36.1649 143.251 36.0583 142.957 36.0655C142.762 36.052 142.568 36.0908 142.393 36.1781C142.219 36.2653 142.071 36.3977 141.965 36.5615C141.742 36.9228 141.631 37.3424 141.647 37.7667V37.9304C141.63 38.358 141.74 38.7812 141.965 39.1456C142.075 39.3035 142.224 39.4297 142.398 39.5116C142.573 39.5934 142.765 39.628 142.957 39.6118Z" fill="#1D1D1B"/>
<path d="M148.186 35.7539H148.682V39.9251H148.186V36.5227L145.964 39.9351H145.498V35.7638H145.964V39.1613L148.186 35.7539Z" fill="#1D1D1B"/>
<path d="M149.627 37.7769C149.606 37.2371 149.782 36.7082 150.123 36.289C150.293 36.1031 150.5 35.9547 150.73 35.8532C150.961 35.7517 151.21 35.6992 151.462 35.6992C151.714 35.6992 151.963 35.7517 152.194 35.8532C152.424 35.9547 152.631 36.1031 152.801 36.289C153.141 36.7084 153.318 37.2372 153.297 37.7769V37.9059C153.319 38.4457 153.142 38.9749 152.801 39.3938C152.638 39.5869 152.433 39.7404 152.202 39.8427C151.971 39.945 151.719 39.9933 151.467 39.9841C151.213 39.9933 150.96 39.9451 150.727 39.8429C150.494 39.7407 150.288 39.5872 150.123 39.3938C149.782 38.9749 149.605 38.4457 149.627 37.9059V37.7769ZM150.088 37.9059C150.072 38.3405 150.201 38.7681 150.455 39.121C150.576 39.2739 150.73 39.3974 150.906 39.4822C151.082 39.5671 151.274 39.6112 151.469 39.6112C151.664 39.6112 151.857 39.5671 152.033 39.4822C152.208 39.3974 152.362 39.2739 152.484 39.121C152.738 38.7681 152.867 38.3405 152.851 37.9059V37.7769C152.864 37.3443 152.735 36.9193 152.484 36.5667C152.368 36.4065 152.215 36.2774 152.038 36.1908C151.86 36.1043 151.664 36.063 151.467 36.0707C151.274 36.0658 151.082 36.1085 150.909 36.195C150.736 36.2815 150.587 36.4091 150.475 36.5667C150.224 36.9193 150.095 37.3443 150.108 37.7769L150.088 37.9059Z" fill="#1D1D1B"/>
<path d="M157.445 39.9251H156.983V38.0106H154.737V39.9251H154.275V35.7539H154.737V37.6238H156.983V35.7539H157.445V39.9251Z" fill="#1D1D1B"/>
<path d="M161.303 39.9253C161.273 39.7765 161.253 39.6525 161.238 39.5434C161.23 39.4361 161.23 39.3284 161.238 39.221C161.086 39.4548 160.878 39.6473 160.633 39.7815C160.36 39.934 160.052 40.011 159.74 40.0047C159.568 40.0154 159.395 39.992 159.231 39.9358C159.068 39.8797 158.917 39.7918 158.788 39.6773C158.674 39.5615 158.585 39.4233 158.527 39.2713C158.469 39.1193 158.443 38.957 158.451 38.7945C158.449 38.6142 158.494 38.4366 158.581 38.2786C158.668 38.1206 158.794 37.9874 158.947 37.8918C159.323 37.6451 159.767 37.5236 160.216 37.5446H161.243V37.0486C161.25 36.9178 161.228 36.7869 161.179 36.6653C161.13 36.5437 161.056 36.4342 160.96 36.3443C160.735 36.1635 160.45 36.0734 160.162 36.0914C159.886 36.0797 159.615 36.1619 159.393 36.3245C159.302 36.3914 159.229 36.479 159.179 36.5799C159.129 36.6808 159.104 36.7922 159.105 36.9048H158.679V36.88C158.675 36.7206 158.709 36.5625 158.779 36.4192C158.849 36.2759 158.952 36.1515 159.081 36.0567C159.396 35.808 159.79 35.6812 160.192 35.6996C160.588 35.6786 160.98 35.8019 161.293 36.0467C161.432 36.1706 161.541 36.324 161.613 36.4956C161.685 36.6672 161.718 36.8528 161.709 37.0387V39.0871C161.71 39.2296 161.718 39.3721 161.734 39.5137C161.753 39.6543 161.781 39.7935 161.818 39.9303L161.303 39.9253ZM159.77 39.593C160.095 39.6022 160.416 39.516 160.692 39.345C160.935 39.1931 161.12 38.9644 161.218 38.6953V37.8968H160.192C159.86 37.8838 159.533 37.9777 159.259 38.1646C159.15 38.2336 159.06 38.3287 158.997 38.4413C158.933 38.5538 158.899 38.6803 158.897 38.8094C158.892 38.9157 158.91 39.0219 158.95 39.1204C158.991 39.2189 159.052 39.3075 159.13 39.3798C159.308 39.5313 159.537 39.6078 159.77 39.593Z" fill="#1D1D1B"/>
<path d="M166.08 35.753V39.9242H165.619V36.1498H163.848V37.5981C163.886 38.2035 163.789 38.8099 163.565 39.3737C163.478 39.5508 163.34 39.6978 163.168 39.7959C162.997 39.894 162.8 39.9387 162.603 39.9242H162.43V39.5076H162.578C162.712 39.5098 162.843 39.4697 162.953 39.3931C163.062 39.3165 163.145 39.2073 163.189 39.0811C163.347 38.6019 163.413 38.0969 163.382 37.5931V35.748L166.08 35.753Z" fill="#1D1D1B"/>
<path d="M166.988 37.7769C166.968 37.2372 167.144 36.7084 167.484 36.289C167.654 36.1031 167.861 35.9547 168.092 35.8532C168.322 35.7517 168.571 35.6992 168.823 35.6992C169.075 35.6992 169.324 35.7517 169.555 35.8532C169.785 35.9547 169.992 36.1031 170.162 36.289C170.501 36.7093 170.677 37.2375 170.658 37.7769V37.9059C170.678 38.4454 170.501 38.9737 170.162 39.3938C169.992 39.5797 169.785 39.7281 169.555 39.8296C169.324 39.9311 169.075 39.9836 168.823 39.9836C168.571 39.9836 168.322 39.9311 168.092 39.8296C167.861 39.7281 167.654 39.5797 167.484 39.3938C167.143 38.9749 166.967 38.4457 166.988 37.9059V37.7769ZM167.449 37.9059C167.435 38.3402 167.564 38.7671 167.816 39.121C167.938 39.2739 168.093 39.3975 168.269 39.4823C168.445 39.5672 168.638 39.6113 168.833 39.6113C169.029 39.6113 169.222 39.5672 169.398 39.4823C169.574 39.3975 169.728 39.2739 169.85 39.121C170.102 38.7671 170.231 38.3402 170.217 37.9059V37.7769C170.228 37.3437 170.098 36.9187 169.845 36.5667C169.725 36.4122 169.571 36.2872 169.395 36.2012C169.219 36.1151 169.026 36.0704 168.831 36.0704C168.635 36.0704 168.442 36.1151 168.266 36.2012C168.09 36.2872 167.936 36.4122 167.816 36.5667C167.565 36.9193 167.436 37.3443 167.449 37.7769V37.9059Z" fill="#1D1D1B"/>
<path d="M171.658 39.9268V35.7556H173.186C173.608 35.7314 174.028 35.8295 174.396 36.0383C174.536 36.1259 174.65 36.2494 174.726 36.3959C174.802 36.5425 174.837 36.7067 174.828 36.8715C174.831 37.0753 174.763 37.2739 174.634 37.432C174.493 37.603 174.302 37.726 174.089 37.7841C174.341 37.8232 174.572 37.9475 174.743 38.1363C174.906 38.3071 174.995 38.5351 174.991 38.7711C175 38.9372 174.967 39.1028 174.895 39.2528C174.823 39.4027 174.715 39.5321 174.58 39.6292C174.245 39.8441 173.851 39.9482 173.454 39.9268H171.658ZM172.119 37.6205H173.23C173.525 37.6395 173.819 37.576 174.079 37.4369C174.172 37.378 174.248 37.2957 174.299 37.1982C174.35 37.1008 174.375 36.9915 174.371 36.8814C174.378 36.7705 174.353 36.66 174.299 36.5626C174.246 36.4652 174.166 36.3849 174.069 36.3309C173.795 36.195 173.491 36.1334 173.186 36.1523H172.119V37.6205ZM172.119 38.0073V39.5449H173.454C173.734 39.5607 174.013 39.4897 174.252 39.3415C174.345 39.2779 174.419 39.1916 174.469 39.0908C174.518 38.9901 174.541 38.8783 174.535 38.7662C174.538 38.6575 174.513 38.5497 174.463 38.4533C174.413 38.3569 174.338 38.2751 174.247 38.2156C174.01 38.0678 173.733 37.9968 173.454 38.0123L172.119 38.0073Z" fill="#1D1D1B"/>
<path d="M69.4119 45.6175H67.299V49.387H66.8477V45.2207H69.4218L69.4119 45.6175Z" fill="#1D1D1B"/>
<path d="M69.8238 47.2414C69.8041 46.7018 69.9802 46.1733 70.3197 45.7535C70.4894 45.5678 70.6958 45.4194 70.926 45.318C71.1561 45.2165 71.4049 45.1641 71.6564 45.1641C71.9079 45.1641 72.1567 45.2165 72.3868 45.318C72.617 45.4194 72.8235 45.5678 72.9931 45.7535C73.3326 46.1733 73.5088 46.7018 73.4891 47.2414V47.3704C73.5125 47.9181 73.3363 48.4557 72.9931 48.8831C72.8222 49.0676 72.6151 49.2149 72.3846 49.3155C72.1542 49.4162 71.9054 49.4682 71.6539 49.4682C71.4025 49.4682 71.1537 49.4162 70.9232 49.3155C70.6928 49.2149 70.4857 49.0676 70.3148 48.8831C69.9699 48.4565 69.7935 47.9183 69.8188 47.3704L69.8238 47.2414ZM70.285 47.3704C70.271 47.8047 70.3999 48.2316 70.652 48.5856C70.7726 48.7401 70.9269 48.8652 71.1031 48.9512C71.2793 49.0372 71.4728 49.0819 71.6688 49.0819C71.8649 49.0819 72.0584 49.0372 72.2345 48.9512C72.4107 48.8652 72.565 48.7401 72.6856 48.5856C72.9377 48.2316 73.0666 47.8047 73.0526 47.3704V47.2414C73.0656 46.8096 72.9348 46.3856 72.6806 46.0362C72.5611 45.8808 72.4075 45.755 72.2316 45.6684C72.0558 45.5818 71.8624 45.5367 71.6663 45.5367C71.4703 45.5367 71.2769 45.5818 71.101 45.6684C70.9252 45.755 70.7716 45.8808 70.652 46.0362C70.402 46.3874 70.2732 46.8105 70.285 47.2414V47.3704Z" fill="#1D1D1B"/>
<path d="M75.9864 49.0793C76.2696 49.0819 76.5456 48.9893 76.77 48.8164C76.882 48.7319 76.9718 48.6213 77.0314 48.4942C77.091 48.3672 77.1188 48.2275 77.1122 48.0873H77.5239C77.5356 48.277 77.5006 48.4666 77.4219 48.6396C77.3432 48.8125 77.2232 48.9635 77.0725 49.0793C76.7663 49.3337 76.3795 49.4709 75.9814 49.4661C75.7346 49.4791 75.4882 49.4327 75.263 49.3308C75.0378 49.229 74.8402 49.0747 74.6869 48.8809C74.3638 48.4539 74.199 47.9279 74.2206 47.3929V47.2293C74.2 46.6952 74.3628 46.1701 74.6819 45.7413C74.8361 45.5484 75.0338 45.3948 75.2588 45.293C75.4838 45.1913 75.7298 45.1444 75.9764 45.1561C76.387 45.1421 76.7871 45.2879 77.0924 45.5628C77.2395 45.6959 77.3547 45.8604 77.4294 46.0442C77.5041 46.2279 77.5364 46.4262 77.5239 46.6242V46.649H77.1122C77.1192 46.5 77.0936 46.3514 77.037 46.2134C76.9805 46.0755 76.8944 45.9516 76.7849 45.8504C76.5672 45.6479 76.2786 45.5392 75.9814 45.5479C75.7868 45.5343 75.5921 45.5732 75.4177 45.6604C75.2432 45.7477 75.0953 45.8801 74.9894 46.0438C74.7645 46.4046 74.6523 46.8242 74.667 47.2491V47.4128C74.6503 47.841 74.7626 48.2644 74.9894 48.6279C75.1008 48.7847 75.2517 48.909 75.4269 48.9883C75.602 49.0676 75.7951 49.099 75.9864 49.0793Z" fill="#1D1D1B"/>
<path d="M81.6208 45.6125H80.1031V49.387H79.6418V45.6125H78.1836V45.2207H81.6208V45.6125Z" fill="#1D1D1B"/>
<path d="M85.2247 45.2207H85.6959V49.387H85.2347V45.9895H85.2L82.973 49.3969H82.5117V45.2306H82.973V48.6281H82.9978L85.2247 45.2207Z" fill="#1D1D1B"/>
<path d="M90.0678 49.387H89.6065V47.4774H87.3597V49.387H86.8984V45.2207H87.3597V47.0856H89.6065V45.2207H90.0678V49.387Z" fill="#1D1D1B"/>
<path d="M94.0057 45.2207H94.4669V49.387H94.0057V45.9895L91.7787 49.3969H91.3125V45.2306H91.7787V48.6281L94.0057 45.2207Z" fill="#1D1D1B"/>
<path d="M98.7985 49.387H98.3372V47.6361C98.1596 47.7001 97.9771 47.7499 97.7916 47.7849C97.614 47.8235 97.4328 47.8435 97.251 47.8444C96.8197 47.8785 96.3913 47.7492 96.0507 47.4824C95.9045 47.3201 95.7937 47.1291 95.7253 46.9216C95.657 46.714 95.6327 46.4946 95.6539 46.2771V45.2207H96.1102V46.2771C96.0779 46.6045 96.1739 46.9317 96.3781 47.1898C96.6243 47.3825 96.9345 47.4747 97.246 47.4477C97.4325 47.442 97.6182 47.4221 97.8015 47.3881C97.9823 47.3556 98.1598 47.3075 98.3322 47.2443V45.2207H98.7935L98.7985 49.387Z" fill="#1D1D1B"/>
<path d="M103.191 49.387H102.73V47.4774H100.483V49.387H100.021V45.2207H100.483V47.0856H102.73V45.2207H103.191V49.387Z" fill="#1D1D1B"/>
<path d="M104.153 47.2417C104.133 46.7022 104.309 46.1737 104.649 45.7538C104.819 45.568 105.026 45.4196 105.256 45.318C105.487 45.2165 105.736 45.1641 105.988 45.1641C106.24 45.1641 106.489 45.2165 106.72 45.318C106.95 45.4196 107.157 45.568 107.327 45.7538C107.665 46.1745 107.841 46.7024 107.823 47.2417V47.3707C107.849 47.9187 107.672 48.4571 107.327 48.8835C107.164 49.076 106.959 49.2287 106.728 49.3301C106.496 49.4315 106.245 49.4789 105.993 49.4687C105.739 49.479 105.486 49.4317 105.254 49.3303C105.021 49.2289 104.814 49.0762 104.649 48.8835C104.304 48.4569 104.127 47.9187 104.153 47.3707V47.2417ZM104.614 47.3707C104.6 47.805 104.729 48.2319 104.981 48.5859C105.102 48.7405 105.256 48.8655 105.432 48.9515C105.608 49.0375 105.802 49.0822 105.998 49.0822C106.194 49.0822 106.387 49.0375 106.564 48.9515C106.74 48.8655 106.894 48.7405 107.015 48.5859C107.267 48.2319 107.396 47.805 107.382 47.3707V47.2417C107.395 46.8099 107.264 46.3859 107.01 46.0365C106.89 45.8811 106.737 45.7553 106.561 45.6687C106.385 45.5821 106.191 45.5371 105.995 45.5371C105.799 45.5371 105.606 45.5821 105.43 45.6687C105.254 45.7553 105.101 45.8811 104.981 46.0365C104.731 46.3877 104.602 46.8108 104.614 47.2417V47.3707Z" fill="#1D1D1B"/>
<path d="M111.373 45.6175H109.265V49.387H108.799V45.2207H111.373V45.6175Z" fill="#1D1D1B"/>
<path d="M111.77 47.2417C111.75 46.7022 111.926 46.1737 112.266 45.7538C112.436 45.568 112.643 45.4196 112.873 45.318C113.104 45.2165 113.353 45.1641 113.605 45.1641C113.857 45.1641 114.106 45.2165 114.337 45.318C114.567 45.4196 114.774 45.568 114.944 45.7538C115.282 46.1745 115.458 46.7024 115.44 47.2417V47.3707C115.466 47.9187 115.289 48.4571 114.944 48.8835C114.773 49.068 114.566 49.2152 114.336 49.3158C114.105 49.4165 113.857 49.4685 113.605 49.4685C113.354 49.4685 113.105 49.4165 112.874 49.3158C112.644 49.2152 112.437 49.068 112.266 48.8835C111.921 48.4569 111.745 47.9187 111.77 47.3707V47.2417ZM112.231 47.3707C112.217 47.805 112.346 48.2319 112.598 48.5859C112.719 48.7405 112.873 48.8655 113.049 48.9515C113.225 49.0375 113.419 49.0822 113.615 49.0822C113.811 49.0822 114.005 49.0375 114.181 48.9515C114.357 48.8655 114.511 48.7405 114.632 48.5859C114.884 48.2319 115.013 47.805 114.999 47.3707V47.2417C115.012 46.8099 114.881 46.3859 114.627 46.0365C114.507 45.8811 114.354 45.7553 114.178 45.6687C114.002 45.5821 113.809 45.5371 113.613 45.5371C113.417 45.5371 113.223 45.5821 113.047 45.6687C112.871 45.7553 112.718 45.8811 112.598 46.0365C112.348 46.3877 112.219 46.8108 112.231 47.2417V47.3707Z" fill="#1D1D1B"/>
<path d="M120.006 45.1445C120.253 45.1369 120.498 45.1861 120.722 45.2885C120.947 45.3908 121.145 45.5435 121.301 45.7347C121.635 46.1573 121.811 46.6839 121.797 47.2226V47.3516C121.822 47.8995 121.646 48.4377 121.301 48.8643C121.13 49.0487 120.924 49.1958 120.694 49.2965C120.464 49.3971 120.215 49.449 119.964 49.449C119.713 49.449 119.465 49.3971 119.235 49.2965C119.005 49.1958 118.798 49.0487 118.627 48.8643C118.283 48.4377 118.106 47.8995 118.131 47.3516V46.0819C118.092 45.7956 118.117 45.5041 118.205 45.229C118.293 44.9538 118.442 44.7019 118.641 44.492C118.839 44.282 119.082 44.1193 119.352 44.0159C119.622 43.9125 119.912 43.871 120.2 43.8946C120.489 43.8934 120.777 43.8483 121.053 43.7607C121.136 43.7398 121.21 43.692 121.263 43.6246C121.316 43.5573 121.345 43.4743 121.345 43.3887H121.703C121.722 43.5245 121.698 43.6629 121.635 43.7847C121.572 43.9065 121.472 44.0056 121.35 44.0682C120.999 44.2228 120.618 44.2957 120.234 44.2814C119.778 44.2621 119.33 44.4103 118.975 44.6981C118.821 44.8489 118.704 45.034 118.635 45.2383C118.566 45.4425 118.547 45.6602 118.578 45.8736C118.716 45.6345 118.917 45.4373 119.158 45.3032C119.422 45.1769 119.715 45.1222 120.006 45.1445ZM119.937 45.5363C119.744 45.5318 119.552 45.5747 119.379 45.6611C119.206 45.7476 119.057 45.875 118.945 46.0323C118.697 46.3841 118.57 46.8071 118.583 47.2375V47.3665C118.569 47.8008 118.698 48.2277 118.95 48.5816C119.07 48.7361 119.224 48.8612 119.4 48.9472C119.575 49.0332 119.768 49.0779 119.964 49.0779C120.16 49.0779 120.353 49.0332 120.529 48.9472C120.705 48.8612 120.858 48.7361 120.978 48.5816C121.231 48.2277 121.359 47.8008 121.345 47.3665V47.2375C121.357 46.8066 121.228 46.3835 120.978 46.0323C120.858 45.8661 120.698 45.7334 120.512 45.6466C120.326 45.5598 120.122 45.5219 119.917 45.5363H119.937Z" fill="#1D1D1B"/>
<path d="M125.323 45.2207H125.784V49.387H125.323V45.9895L123.096 49.3969H122.635V45.2306H123.096V48.6281H123.121L125.323 45.2207Z" fill="#1D1D1B"/>
<path d="M128.552 47.0609C128.856 47.0826 129.159 47.0154 129.425 46.8675C129.514 46.8077 129.586 46.7262 129.635 46.6307C129.683 46.5352 129.707 46.429 129.703 46.3219C129.705 46.2115 129.679 46.1025 129.627 46.0046C129.576 45.9068 129.502 45.8232 129.41 45.7615C129.149 45.6004 128.844 45.5241 128.537 45.5432C128.236 45.5329 127.938 45.6104 127.679 45.7664C127.577 45.8242 127.492 45.9077 127.432 46.0086C127.372 46.1095 127.339 46.2244 127.337 46.3417H126.911C126.901 46.1731 126.937 46.005 127.016 45.8556C127.094 45.7061 127.212 45.5809 127.357 45.4936C127.708 45.2672 128.12 45.1546 128.537 45.1712C128.957 45.1476 129.374 45.2531 129.733 45.4738C129.874 45.5689 129.988 45.6987 130.064 45.8507C130.141 46.0027 130.177 46.1718 130.169 46.3417C130.169 46.543 130.095 46.7373 129.961 46.8873C129.803 47.0631 129.601 47.1933 129.376 47.2643C129.624 47.3191 129.85 47.4469 130.025 47.6313C130.172 47.8059 130.25 48.0283 130.244 48.2562C130.246 48.4354 130.201 48.612 130.114 48.7687C130.027 48.9253 129.901 49.0564 129.748 49.149C129.379 49.3776 128.951 49.4899 128.517 49.4714C128.09 49.482 127.668 49.3702 127.302 49.149C127.143 49.0572 127.012 48.9227 126.924 48.7607C126.836 48.5986 126.796 48.4154 126.806 48.2314V48.2066H127.233C127.234 48.332 127.267 48.4551 127.329 48.5644C127.39 48.6736 127.478 48.7655 127.585 48.8316C127.857 49.0105 128.178 49.099 128.503 49.0845C128.822 49.1024 129.14 49.0247 129.415 48.8613C129.517 48.7988 129.6 48.7112 129.657 48.6069C129.715 48.5026 129.744 48.3852 129.743 48.2662C129.75 48.1477 129.725 48.0294 129.671 47.9238C129.617 47.8182 129.536 47.7291 129.435 47.666C129.152 47.5208 128.835 47.4556 128.517 47.4775H127.853V47.0758L128.552 47.0609Z" fill="#1D1D1B"/>
<path d="M134.46 49.387H133.994V47.4774H131.752V49.387H131.291V45.2207H131.752V47.0856H133.994V45.2207H134.46V49.387Z" fill="#1D1D1B"/>
<path d="M137.276 49.4595C137.029 49.4682 136.782 49.4215 136.555 49.3228C136.327 49.2241 136.125 49.076 135.962 48.8892C135.614 48.4739 135.437 47.9421 135.466 47.4012V47.1879C135.443 46.6479 135.62 46.1183 135.962 45.7C136.116 45.5148 136.31 45.3663 136.529 45.2651C136.747 45.1638 136.986 45.1125 137.227 45.1147C137.447 45.105 137.667 45.1445 137.87 45.2303C138.074 45.3161 138.255 45.446 138.402 45.6107C138.692 45.9856 138.838 46.4518 138.814 46.9251V47.2822H135.917V47.4111C135.902 47.8334 136.027 48.2487 136.274 48.5916C136.387 48.7482 136.537 48.8752 136.709 48.9616C136.882 49.0479 137.073 49.0912 137.266 49.0875C137.505 49.0886 137.742 49.0466 137.966 48.9635C138.165 48.8874 138.347 48.7728 138.501 48.6263L138.695 48.9388C138.531 49.1054 138.336 49.237 138.12 49.3256C137.85 49.4247 137.563 49.4702 137.276 49.4595ZM137.232 45.5264C137.067 45.5224 136.904 45.5545 136.753 45.6204C136.602 45.6864 136.467 45.7847 136.359 45.9083C136.125 46.1795 135.984 46.5184 135.957 46.8755V46.9003H138.343V46.8011C138.357 46.4726 138.255 46.1496 138.055 45.8884C137.952 45.7687 137.823 45.6743 137.677 45.6123C137.532 45.5504 137.375 45.5227 137.217 45.5313L137.232 45.5264Z" fill="#1D1D1B"/>
<path d="M141.246 49.0793C141.529 49.0819 141.805 48.9893 142.03 48.8164C142.141 48.7316 142.23 48.6209 142.289 48.4938C142.348 48.3667 142.374 48.2271 142.367 48.0873H142.784C142.795 48.277 142.76 48.4666 142.682 48.6396C142.603 48.8125 142.483 48.9635 142.332 49.0793C142.026 49.3337 141.639 49.4709 141.241 49.4661C140.994 49.4782 140.747 49.4315 140.521 49.3298C140.295 49.228 140.097 49.0742 139.942 48.8809C139.622 48.4523 139.459 47.9271 139.48 47.3929V47.2293C139.46 46.6952 139.622 46.1701 139.942 45.7413C140.096 45.5484 140.293 45.3948 140.518 45.293C140.743 45.1913 140.989 45.1444 141.236 45.1561C141.647 45.1421 142.047 45.2879 142.352 45.5628C142.499 45.6959 142.614 45.8604 142.689 46.0442C142.764 46.2279 142.796 46.4262 142.784 46.6242V46.649H142.367C142.374 46.5005 142.348 46.3524 142.293 46.2146C142.237 46.0769 142.152 45.9526 142.045 45.8504C141.827 45.6479 141.538 45.5392 141.241 45.5479C141.046 45.5343 140.852 45.5732 140.677 45.6604C140.503 45.7477 140.355 45.8801 140.249 46.0438C140.024 46.4046 139.912 46.8242 139.927 47.2491V47.4128C139.91 47.841 140.022 48.2644 140.249 48.6279C140.36 48.7847 140.511 48.909 140.687 48.9883C140.862 49.0676 141.055 49.099 141.246 49.0793Z" fill="#1D1D1B"/>
<path d="M146.437 49.3884C146.408 49.2397 146.388 49.1157 146.373 49.0115C146.365 48.9042 146.365 48.7964 146.373 48.6891C146.219 48.9217 146.012 49.1139 145.768 49.2496C145.492 49.3977 145.183 49.4728 144.87 49.4678C144.524 49.4889 144.184 49.3731 143.923 49.1454C143.808 49.0288 143.719 48.8898 143.661 48.7369C143.603 48.5841 143.577 48.4209 143.586 48.2576C143.585 48.0774 143.63 47.9 143.717 47.7421C143.803 47.5841 143.929 47.4509 144.081 47.3549C144.457 47.1076 144.902 46.986 145.351 47.0077H146.378V46.5117C146.385 46.3811 146.363 46.2505 146.313 46.1295C146.263 46.0085 146.187 45.9002 146.09 45.8124C145.867 45.6272 145.581 45.5349 145.292 45.5545C145.018 45.5427 144.748 45.625 144.528 45.7876C144.437 45.8545 144.364 45.9421 144.314 46.043C144.264 46.1439 144.239 46.2553 144.24 46.3679H143.809C143.804 46.2077 143.838 46.0486 143.908 45.9043C143.978 45.7601 144.082 45.6349 144.21 45.5396C144.533 45.3093 144.92 45.1855 145.316 45.1855C145.713 45.1855 146.1 45.3093 146.423 45.5396C146.562 45.6633 146.671 45.8166 146.744 45.9883C146.816 46.1599 146.848 46.3456 146.839 46.5316V48.58C146.832 48.7221 146.832 48.8645 146.839 49.0065C146.855 49.146 146.883 49.2838 146.923 49.4182L146.437 49.3884ZM144.905 49.0611C145.229 49.0692 145.548 48.9812 145.822 48.8081C146.068 48.6576 146.255 48.4287 146.353 48.1584V47.3599H145.321C144.992 47.3469 144.666 47.4408 144.394 47.6277C144.284 47.6976 144.193 47.7934 144.129 47.9067C144.065 48.02 144.03 48.1473 144.027 48.2774C144.023 48.3829 144.042 48.4879 144.082 48.5854C144.122 48.6829 144.183 48.7707 144.26 48.8429C144.439 48.9951 144.67 49.0732 144.905 49.0611Z" fill="#1D1D1B"/>
</g>
<defs>
<clipPath id="clip0_416_282">
<rect width="174.328" height="54.0225" fill="white" transform="translate(0.669922 0.433594)"/>
</clipPath>
</defs>
</svg>
