<svg width="156" height="47" viewBox="0 0 156 47" fill="none" xmlns="http://www.w3.org/2000/svg">
<g clip-path="url(#clip0_536_411)">
<path fill-rule="evenodd" clip-rule="evenodd" d="M0.00585938 0.360217H3.5701V10.381H7.81212V0.360217H11.3764V23.5862H7.81212V13.4778H3.5701V23.5862H0.00585938V0.360217ZM103.127 6.90244V4.78533C103.132 4.63989 103.106 4.49508 103.05 4.36068C102.994 4.22627 102.91 4.10541 102.804 4.00626C102.441 3.71646 101.991 3.5579 101.526 3.55635C100.79 3.5135 100.358 3.65957 100.132 3.94588C99.8123 4.34905 99.6701 5.06968 99.639 5.9773C99.6546 6.54523 99.812 7.10024 100.097 7.59192C100.581 8.46805 101.184 9.27294 101.889 9.98366C102.225 10.3362 102.629 10.7101 103.032 11.086C104.454 12.4066 105.899 13.7505 106.477 15.8052C106.619 16.302 106.715 16.8104 106.765 17.3244C106.931 18.6729 106.658 20.0388 105.986 21.2198C105.27 22.4212 104.11 23.2933 102.757 23.6485C102.371 23.7546 101.976 23.8276 101.577 23.8667C101.347 23.8881 101.156 23.8998 101.002 23.8998C99.8052 23.9049 98.6403 23.5116 97.6913 22.7818C97.2354 22.4424 96.8529 22.0144 96.5667 21.5233C96.2805 21.0323 96.0966 20.4885 96.026 19.9246C96.0104 19.7727 96.0027 19.6558 96.0027 19.5759V16.3973H99.5708V19.574C99.6228 19.7425 99.7342 19.8865 99.8844 19.9791C100.209 20.2183 100.605 20.3423 101.008 20.3316C101.117 20.3316 101.193 20.3316 101.234 20.3316C101.426 20.3125 101.615 20.2766 101.801 20.2245C102.272 20.1128 102.681 19.8213 102.94 19.4123C103.218 18.8804 103.32 18.2744 103.232 17.6809C103.199 17.3744 103.139 17.0713 103.053 16.7752C102.747 15.6825 101.67 14.6834 100.613 13.6998C100.177 13.2947 99.7441 12.8915 99.3156 12.4436C98.3767 11.4891 97.5768 10.4073 96.9395 9.22991C96.3701 8.19897 96.0775 7.0381 96.0903 5.86044C96.1487 4.22829 96.5051 2.80454 97.3504 1.73917C98.2951 0.549142 99.6877 -0.0974855 101.725 0.0193748C103.147 0.103125 104.341 0.603676 105.203 1.38274C105.68 1.81134 106.059 2.33645 106.317 2.92313C106.574 3.50982 106.704 4.14463 106.697 4.78533V6.90244H103.127ZM35.4885 12.1943C36.326 12.5195 37.0038 13.0318 37.3953 13.8771C37.8997 14.9639 37.8705 16.0195 37.8705 17.0362V22.0767C37.8553 22.3716 37.9163 22.6654 38.0476 22.9298C38.179 23.1941 38.3762 23.4202 38.6204 23.5862H35.1146C34.5108 23.3719 34.2557 22.3962 34.2557 20.9627V16.4713C34.2557 15.108 33.6207 13.9881 32.308 13.9881H30.5239V23.5862H26.9597V0.360217H33.0832C34.3675 0.365858 35.5975 0.878679 36.5055 1.78701C37.4135 2.69534 37.9258 3.92561 37.9309 5.20992V8.26971C37.9287 9.08549 37.6997 9.88458 37.2694 10.5777C36.8391 11.2707 36.2245 11.8305 35.4944 12.1943H35.4885ZM30.5083 10.716H33.3422C33.6143 10.7068 33.8719 10.5914 34.0598 10.3944C34.2477 10.1973 34.3509 9.93451 34.3472 9.66229L34.318 5.27419C34.3223 4.87702 34.1711 4.49392 33.8967 4.20677C33.6222 3.91962 33.2464 3.75119 32.8494 3.73748H30.5122V10.716H30.5083ZM128.013 19.1961H123.504L122.851 23.5842H119.591L123.04 0.358271H128.474L131.922 23.5842H128.663L128.013 19.1961ZM123.961 16.0993H127.551L125.757 4.00431L123.961 16.0993ZM81.8918 20.2011V23.5842H78.3334V20.2031L81.8918 20.2011ZM72.543 19.1961H68.0283L67.3777 23.5842H64.1193L67.5667 0.358271H73.0007L76.45 23.5842H73.1915L72.5391 19.1961H72.543ZM68.4938 16.0993H72.0853L70.2895 4.00431L68.4957 16.0993H68.4938ZM143.993 0.360217V3.45701H140.312V23.5862H136.748V3.45701H133.067V0.360217H143.993ZM118.722 0.360217V3.45701H115.041V23.5862H111.477V3.45701H107.796V0.360217H118.722ZM155.52 20.4894V23.5862H145.733V0.360217H155.52V3.45701H149.287V10.381H154.351V13.4778H149.287V20.4894H155.52ZM94.3861 20.4894V23.5862H84.599V0.360217H94.3861V3.45701H88.1633V10.381H93.2175V13.4778H88.1633V20.4894H94.3861ZM57.4991 0.0388497H57.5264C58.9545 0.0429607 60.3228 0.612073 61.3326 1.62186C62.3424 2.63164 62.9115 4.00002 62.9156 5.42806V8.40215H59.5364V5.4339C59.5349 4.90129 59.3226 4.39093 58.946 4.01432C58.5694 3.63771 58.059 3.42544 57.5264 3.4239H57.4991C56.9665 3.42544 56.4562 3.63771 56.0796 4.01432C55.703 4.39093 55.4907 4.90129 55.4892 5.4339V18.3937C55.4907 18.9263 55.703 19.4367 56.0796 19.8133C56.4562 20.1899 56.9665 20.4022 57.4991 20.4037H57.5264C58.059 20.4022 58.5694 20.1899 58.946 19.8133C59.3226 19.4367 59.5349 18.9263 59.5364 18.3937V14.8548H62.9156V18.3937C62.9115 19.8217 62.3424 21.1901 61.3326 22.1999C60.3228 23.2097 58.9545 23.7788 57.5264 23.7829H57.4991C56.0711 23.7788 54.7027 23.2097 53.6929 22.1999C52.6832 21.1901 52.1141 19.8217 52.1099 18.3937V5.4339C52.1141 4.00586 52.6832 2.63748 53.6929 1.6277C54.7027 0.617916 56.0711 0.0488064 57.4991 0.0446954V0.0388497ZM19.2995 0.0388497H19.3287C20.7567 0.0429607 22.1251 0.612073 23.1349 1.62186C24.1447 2.63164 24.7138 4.00002 24.7179 5.42806V18.3879C24.7138 19.8159 24.1447 21.1843 23.1349 22.1941C22.1251 23.2038 20.7567 23.773 19.3287 23.7771H19.3034C17.8757 23.7724 16.5078 23.2031 15.4984 22.1934C14.4891 21.1836 13.9202 19.8156 13.9161 18.3879V5.4339C13.9202 4.0062 14.4891 2.63811 15.4984 1.62838C16.5078 0.618655 17.8757 0.0493199 19.3034 0.0446954L19.2995 0.0388497ZM19.2995 3.41806C18.767 3.42011 18.257 3.63254 17.8805 4.00904C17.504 4.38555 17.2915 4.89561 17.2895 5.42806V18.3879C17.2895 18.9222 17.5016 19.4346 17.8792 19.8126C18.2569 20.1906 18.7691 20.4032 19.3034 20.4037H19.3326C19.8652 20.4022 20.3756 20.1899 20.7522 19.8133C21.1288 19.4367 21.3411 18.9263 21.3426 18.3937V5.4339C21.3405 4.90145 21.1281 4.39139 20.7516 4.01488C20.3751 3.63838 19.8651 3.42595 19.3326 3.4239L19.2995 3.41806ZM50.0513 20.4836V23.5803H40.2642V0.360217H50.0513V3.45701H43.8187V10.381H48.8827V13.4778H43.8187V20.4894L50.0513 20.4836Z" fill="#F07F00"/>
<path d="M155.525 29.4473H0V30.7425H155.525V29.4473Z" fill="#1D1D1B"/>
<path fill-rule="evenodd" clip-rule="evenodd" d="M0.701172 46.0128V38.8064H2.03922C2.59626 38.8064 3.01306 38.9525 3.2721 39.2485C3.53114 39.5446 3.67332 39.9945 3.67332 40.6119V40.6489C3.67332 41.2585 3.55256 41.7007 3.313 41.9714C3.1449 42.1481 2.92672 42.2691 2.6878 42.3181C2.96653 42.3475 3.22824 42.4664 3.43375 42.657C3.69344 42.9167 3.82329 43.3919 3.82329 44.0827V44.1197C3.82329 44.7975 3.69864 45.2883 3.44544 45.5707C3.19224 45.8531 2.77155 46.007 2.1814 46.007H0.701172V46.0128ZM1.45297 39.6264V41.9149H2.0957C2.21395 41.9255 2.33302 41.9075 2.44285 41.8624C2.55268 41.8173 2.65005 41.7465 2.72675 41.6559C2.87682 41.4007 2.94481 41.1056 2.92152 40.8106V40.7755C2.94418 40.4712 2.86913 40.1675 2.70727 39.9088C2.62736 39.8114 2.52501 39.7348 2.40899 39.6856C2.29298 39.6364 2.16676 39.6161 2.04117 39.6264H1.45297ZM1.45297 42.731V45.1889H2.17556C2.30403 45.2006 2.43339 45.1802 2.55203 45.1296C2.67067 45.0789 2.77488 44.9996 2.8553 44.8987C2.99553 44.704 3.0637 44.3884 3.0637 43.9483V43.9113C3.0637 43.4769 2.99163 43.1692 2.84751 42.99C2.70338 42.8108 2.45797 42.7232 2.0957 42.7232L1.45297 42.731ZM7.85691 43.6717V43.8859C7.87444 44.665 7.76927 45.2298 7.54334 45.5765C7.31741 45.9232 6.93956 46.0966 6.41174 46.0966C5.88392 46.0966 5.50802 45.9349 5.25677 45.6135C5.00552 45.2922 4.88866 44.7994 4.88866 44.1275V40.9255C4.88866 40.1464 5.01072 39.5861 5.25483 39.2446C5.49893 38.9032 5.89626 38.7305 6.4468 38.7266C6.96683 38.7266 7.34078 38.8843 7.56476 39.1979C7.76602 39.468 7.86535 39.8841 7.86276 40.4464V40.9041H7.10317V40.6898C7.13447 40.3849 7.09171 40.0768 6.97851 39.7919C6.92231 39.7045 6.84267 39.6345 6.74866 39.5901C6.65466 39.5457 6.55007 39.5286 6.4468 39.5407C6.32732 39.5306 6.20727 39.5517 6.09838 39.6019C5.98948 39.6521 5.89546 39.7296 5.82549 39.827C5.67484 40.113 5.60736 40.4356 5.63073 40.758V43.9541C5.63073 44.4566 5.68331 44.8033 5.79238 44.9922C5.8533 45.0898 5.94033 45.1683 6.04361 45.2189C6.14688 45.2695 6.26227 45.2902 6.37668 45.2785C6.49142 45.2848 6.60546 45.2571 6.70454 45.1989C6.80361 45.1407 6.88333 45.0546 6.93372 44.9513C7.06616 44.6113 7.12074 44.2459 7.09343 43.8821V43.6698L7.85691 43.6717ZM9.04305 46.0089V38.8025H11.5107V39.6186H9.79485V41.8974H11.4134V42.7115H9.79485V45.1889H11.5672V46.005H9.03526L9.04305 46.0089ZM16.3429 46.0927C15.7443 46.0927 15.3334 45.918 15.11 45.5687C14.8867 45.2195 14.7744 44.5852 14.7731 43.6659V41.017C14.7731 40.2094 14.8958 39.6251 15.1412 39.2641C15.3866 38.9032 15.7872 38.7233 16.3429 38.7246C16.909 38.7246 17.3129 38.9032 17.5544 39.2602C17.7939 39.6166 17.9147 40.2146 17.9147 41.0501V44.069C17.9147 44.7832 17.792 45.2987 17.5466 45.6155C17.3012 45.9323 16.8999 46.092 16.3429 46.0946V46.0927ZM16.3429 45.2766C16.4679 45.2857 16.593 45.2593 16.7036 45.2004C16.8143 45.1414 16.906 45.0524 16.9681 44.9435C17.121 44.604 17.1879 44.2321 17.1629 43.8606V40.8515C17.1629 40.3568 17.1045 40.012 16.9876 39.825C16.9154 39.7249 16.8178 39.6459 16.7047 39.5962C16.5917 39.5465 16.4675 39.528 16.3449 39.5426C16.2179 39.5342 16.0913 39.5631 15.9806 39.6258C15.8698 39.6884 15.7798 39.782 15.7216 39.8952C15.5918 40.1276 15.5268 40.5074 15.5268 41.0346V43.6814C15.5268 44.2891 15.5853 44.7079 15.7021 44.9377C15.7631 45.0518 15.8565 45.1452 15.9706 45.2062C16.0846 45.2672 16.2142 45.2931 16.3429 45.2805V45.2766ZM21.9912 46.0089H21.2491V38.8025H23.9271V39.6186H22.0028V46.005L21.9912 46.0089ZM26.5156 46.0927C25.9157 46.0927 25.5041 45.918 25.2808 45.5687C25.0574 45.2195 24.9471 44.5865 24.9497 43.6698V41.017C24.9497 40.2094 25.0724 39.6251 25.3178 39.2641C25.5632 38.9032 25.9644 38.7233 26.5214 38.7246C27.0863 38.7246 27.4953 38.9038 27.7309 39.2602C27.9666 39.6166 28.0913 40.2146 28.0913 41.0501V44.069C28.0913 44.7832 27.9686 45.2987 27.7232 45.6155C27.4778 45.9323 27.0772 46.092 26.5214 46.0946L26.5156 46.0927ZM26.5156 45.2766C26.6406 45.2853 26.7654 45.2586 26.876 45.1997C26.9865 45.1409 27.0783 45.0521 27.1408 44.9435C27.2926 44.6037 27.3594 44.232 27.3356 43.8606V40.8515C27.3356 40.3568 27.2771 40.012 27.1622 39.825C27.0898 39.7252 26.9921 39.6464 26.8791 39.5968C26.7662 39.5471 26.642 39.5285 26.5195 39.5426C26.3923 39.5346 26.2656 39.5636 26.1546 39.6262C26.0436 39.6888 25.9532 39.7822 25.8943 39.8952C25.7645 40.1276 25.6995 40.5074 25.6995 41.0346V43.6814C25.6995 44.2891 25.758 44.7079 25.8748 44.9377C25.9359 45.0521 26.0296 45.1457 26.1441 45.2068C26.2585 45.2678 26.3885 45.2935 26.5175 45.2805L26.5156 45.2766ZM32.269 43.6678V43.8821C32.2885 44.6611 32.1833 45.2259 31.9554 45.5726C31.7276 45.9193 31.3517 46.0927 30.8238 46.0927C30.296 46.0927 29.9201 45.931 29.6708 45.6096C29.4215 45.2883 29.2969 44.7916 29.2969 44.1236V40.9255C29.2969 40.1464 29.4176 39.5894 29.663 39.2446C29.9084 38.8999 30.3038 38.7266 30.855 38.7266C31.375 38.7266 31.749 38.8843 31.971 39.1979C32.1736 39.468 32.2729 39.8841 32.269 40.4464V40.9041H31.5172V40.6898C31.5485 40.3849 31.5058 40.0768 31.3926 39.7919C31.3356 39.705 31.2554 39.6358 31.161 39.5921C31.0667 39.5484 30.9621 39.5319 30.8589 39.5446C30.7397 39.5343 30.6198 39.5553 30.5112 39.6055C30.4026 39.6557 30.3089 39.7334 30.2395 39.8309C30.0889 40.1169 30.0214 40.4394 30.0448 40.7619V43.958C30.0448 44.4605 30.0974 44.8072 30.2064 44.9961C30.2672 45.0938 30.3542 45.1725 30.4575 45.2231C30.5608 45.2737 30.6763 45.2943 30.7907 45.2824C30.9055 45.2887 31.0195 45.261 31.1186 45.2028C31.2177 45.1446 31.2974 45.0585 31.3478 44.9552C31.4792 44.6149 31.5337 44.2498 31.5075 43.8859V43.6736L32.269 43.6678ZM34.4972 46.005V39.6264H33.2234V38.8103H36.5344V39.6264H35.2606V46.0128H34.5069L34.4972 46.005ZM38.6808 46.005H37.4907V38.7986H38.2036V45.0779L39.4092 38.7986H40.5992V46.005H39.8864V39.7355L38.6808 46.0147V46.005ZM41.8184 46.005V38.7986H42.5722V41.8935H44.1751V38.8103H44.9269V46.0167H44.1751V42.7193H42.5722V46.0128H41.8184V46.005ZM47.3362 46.005H46.1462V38.7986H46.861V45.0779L48.0666 38.7986H49.2566V46.005H48.5438V39.7355L47.3479 46.0128L47.3362 46.005ZM51.8158 42.2616C51.9537 42.2612 52.0901 42.2334 52.2171 42.1798C52.3233 42.1468 52.4149 42.0779 52.4761 41.985V38.8103H53.2299V46.0167H52.8559H52.4761V43.0368C52.2503 43.1538 52.0017 43.2202 51.7477 43.2315C51.5597 43.2462 51.3708 43.2156 51.197 43.1425C51.0232 43.0693 50.8694 42.9556 50.7485 42.8108C50.5323 42.5304 50.4252 42.096 50.4252 41.5117V38.8103H51.179V41.2332C51.16 41.5057 51.2131 41.7784 51.3328 42.024C51.3835 42.1049 51.4552 42.1704 51.5403 42.2137C51.6254 42.2569 51.7206 42.2762 51.8158 42.2694V42.2616ZM54.3946 46.005V38.7986H55.1483V41.8935H56.7493V38.8103H57.503V46.0167H56.7493V42.7193H55.1483V46.0128H54.3946V46.005ZM60.2941 46.0888C59.6942 46.0888 59.2826 45.9141 59.0592 45.5648C58.8359 45.2156 58.7236 44.5813 58.7223 43.662V41.017C58.7223 40.2094 58.845 39.6251 59.0904 39.2641C59.3358 38.9032 59.737 38.7233 60.2941 38.7246C60.8589 38.7246 61.262 38.9032 61.5036 39.2602C61.7431 39.6166 61.8639 40.2146 61.8639 41.0501V44.069C61.8639 44.7832 61.7412 45.2987 61.4958 45.6155C61.2504 45.9323 60.8498 46.092 60.2941 46.0946V46.0888ZM60.2941 45.2727C60.4188 45.2817 60.5435 45.2552 60.6538 45.1962C60.7641 45.1373 60.8555 45.0483 60.9173 44.9396C61.0702 44.6001 61.1371 44.2282 61.1121 43.8567V40.8515C61.1121 40.3568 61.0536 40.012 60.9368 39.825C60.8648 39.7252 60.7674 39.6464 60.6548 39.5967C60.5421 39.5471 60.4183 39.5284 60.296 39.5426C60.1688 39.5341 60.0418 39.5629 59.9308 39.6255C59.8197 39.6882 59.7293 39.7819 59.6708 39.8952C59.541 40.1276 59.476 40.5074 59.476 41.0346V43.6814C59.476 44.2891 59.5345 44.7079 59.6513 44.9377C59.7124 45.0521 59.8061 45.1457 59.9206 45.2068C60.035 45.2678 60.165 45.2935 60.2941 45.2805V45.2727ZM63.757 46.005H63.0597V38.7986H64.2926L65.2859 44.6046L66.2598 38.8025H67.4868V46.0089H66.7856V39.7569L65.656 46.0128H64.8964L63.7551 39.7355V46.0089L63.757 46.005ZM72.0424 46.005H70.8524V38.7986H71.5652V45.0779L72.7708 38.7986H73.9609V46.005H73.2519V39.7355L72.0463 46.0147L72.0424 46.005ZM77.3303 46.005V38.7986H78.5749C79.2098 38.7986 79.6461 38.9447 79.8876 39.231C80.1291 39.5173 80.2479 40.0432 80.2479 40.8067V40.7288C80.2479 41.465 80.1174 41.9948 79.8584 42.3239C79.5994 42.6531 79.1689 42.8128 78.5788 42.8128H78.088V46.0011H77.3342L77.3303 46.005ZM78.0841 42.0006H78.5749C78.9313 42.0006 79.1748 41.9149 79.3033 41.7377C79.4319 41.5604 79.4981 41.2371 79.4981 40.7541V40.83C79.4981 40.3678 79.4332 40.0503 79.3033 39.8776C79.1709 39.7062 78.9313 39.6186 78.5827 39.6186H78.0919V42.0006H78.0841ZM81.2101 46.005V38.7986H83.6856V39.6147H81.9619V41.8935H83.5746V42.7076H81.9541V45.1889H83.7265V46.005H81.1945H81.2101ZM87.7952 43.6678V43.8821C87.8127 44.6611 87.7075 45.2259 87.4816 45.5726C87.2557 45.9193 86.8778 46.0927 86.35 46.0927C85.8222 46.0927 85.4463 45.931 85.195 45.6096C84.9438 45.2883 84.8211 44.7916 84.8211 44.1236V40.9255C84.8211 40.1464 84.9431 39.5861 85.1872 39.2446C85.4313 38.9032 85.8287 38.7305 86.3792 38.7266C86.8992 38.7266 87.2732 38.8843 87.4972 39.1979C87.6919 39.4686 87.7971 39.8854 87.7952 40.4464V40.9041H87.0414V40.6898C87.0737 40.3848 87.0309 40.0766 86.9168 39.7919C86.8601 39.7052 86.7802 39.636 86.6862 39.5923C86.5923 39.5486 86.4879 39.5321 86.385 39.5446C86.2658 39.5343 86.146 39.5553 86.0373 39.6055C85.9287 39.6557 85.8351 39.7334 85.7657 39.8309C85.6139 40.1165 85.5464 40.4394 85.5709 40.7619V43.958C85.5709 44.4605 85.6248 44.8065 85.7326 44.9961C85.7937 45.0935 85.8807 45.1719 85.984 45.2225C86.0872 45.2731 86.2025 45.2938 86.3169 45.2824C86.4316 45.2887 86.5457 45.261 86.6447 45.2028C86.7438 45.1446 86.8235 45.0585 86.8739 44.9552C87.0046 44.6147 87.0584 44.2496 87.0317 43.8859V43.6736L87.7952 43.6678ZM90.0233 46.005V39.6264H88.7476V38.8103H92.0586V39.6264H90.7809V46.0128H90.0291L90.0233 46.005ZM94.5867 46.0888C93.9868 46.0888 93.5752 45.9141 93.3519 45.5648C93.1285 45.2156 93.0162 44.5813 93.0149 43.662V41.017C93.0149 40.2094 93.1376 39.6251 93.383 39.2641C93.6284 38.9032 94.0297 38.7233 94.5867 38.7246C95.1515 38.7246 95.5547 38.9032 95.7962 39.2602C96.0358 39.6166 96.1565 40.2146 96.1565 41.0501V44.069C96.1565 44.7832 96.0338 45.2987 95.7884 45.6155C95.543 45.9323 95.1424 46.092 94.5867 46.0946V46.0888ZM94.5867 45.2727C94.7116 45.2814 94.8365 45.2547 94.9471 45.1958C95.0576 45.137 95.1494 45.0482 95.2119 44.9396C95.3637 44.5998 95.4305 44.2282 95.4067 43.8567V40.8515C95.4067 40.3568 95.3482 40.012 95.2314 39.825C95.1594 39.7252 95.062 39.6464 94.9494 39.5967C94.8367 39.5471 94.7129 39.5284 94.5906 39.5426C94.4634 39.5344 94.3365 39.5633 94.2255 39.6259C94.1145 39.6885 94.0241 39.7821 93.9654 39.8952C93.8355 40.1276 93.7706 40.5074 93.7706 41.0346V43.6814C93.7706 44.2891 93.829 44.7079 93.9459 44.9377C94.007 45.0521 94.1007 45.1457 94.2152 45.2068C94.3296 45.2678 94.4596 45.2935 94.5886 45.2805L94.5867 45.2727ZM97.3524 46.005V38.7986H98.5969C99.2299 38.7986 99.6682 38.9447 99.9077 39.231C100.147 39.5173 100.268 40.0432 100.268 40.8067V40.7288C100.268 41.465 100.138 41.9948 99.8785 42.3239C99.6195 42.6531 99.189 42.8128 98.5989 42.8128H98.1042V46.0011H97.3524V46.005ZM98.1042 42.0006H98.5969C98.9514 42.0006 99.1949 41.9149 99.3234 41.7377C99.452 41.5604 99.5182 41.2371 99.5182 40.7541V40.83C99.5182 40.3685 99.45 40.051 99.3234 39.8776C99.1968 39.7043 98.9534 39.6186 98.6047 39.6186H98.1042V42.0006ZM101.026 46.005L102.29 38.7986H103.291L104.555 46.005H103.752L103.497 44.3729H102.023L101.76 46.005H101.026ZM102.767 39.6907L102.153 43.5587H103.378L102.761 39.6907H102.767ZM105.554 46.005V38.7986H106.308V41.8935H107.92V38.8103H108.674V46.0167H107.92V42.7193H106.318V46.0128H105.564L105.554 46.005ZM109.884 46.005V38.7986H110.647V41.8935H112.25V38.8103H113.004V46.0167H112.25V42.7193H110.647V46.0128H109.888L109.884 46.005ZM115.781 46.0888C115.183 46.0888 114.772 45.9141 114.548 45.5648C114.325 45.2156 114.213 44.5813 114.211 43.662V41.017C114.211 40.2094 114.334 39.6251 114.58 39.2641C114.825 38.9032 115.226 38.7233 115.781 38.7246C116.347 38.7246 116.751 38.9032 116.993 39.2602C117.232 39.6166 117.353 40.2146 117.353 41.0501V44.069C117.353 44.7832 117.23 45.2987 116.985 45.6155C116.739 45.9323 116.338 46.092 115.781 46.0946V46.0888ZM115.781 45.2727C115.906 45.2814 116.031 45.2547 116.142 45.1958C116.252 45.137 116.344 45.0482 116.406 44.9396C116.559 44.6001 116.626 44.2282 116.601 43.8567V40.8515C116.601 40.3568 116.543 40.012 116.426 39.825C116.354 39.7249 116.256 39.6459 116.143 39.5962C116.03 39.5465 115.906 39.528 115.783 39.5426C115.656 39.5346 115.529 39.5636 115.418 39.6262C115.307 39.6888 115.217 39.7822 115.158 39.8952C115.006 40.2547 114.939 40.6448 114.963 41.0346V43.6814C114.963 44.2891 115.021 44.7079 115.137 44.9377C115.198 45.0517 115.292 45.1451 115.406 45.2061C115.521 45.2671 115.65 45.2929 115.779 45.2805L115.781 45.2727ZM119.244 46.005H118.547V38.7986H119.774L120.775 44.6046L121.749 38.8025H122.976V46.0089H122.279V39.7569L121.147 46.0089H120.386L119.248 39.7355V46.0089L119.244 46.005ZM126.365 46.005V38.7986H129.17V39.6147H127.123V41.7669H127.683C128.36 41.7669 128.831 41.9175 129.096 42.2187C129.362 42.5206 129.485 43.0543 129.485 43.8236V43.8626C129.485 44.6053 129.334 45.1474 129.031 45.4889C128.729 45.8304 128.251 46.0011 127.598 46.0011H126.359L126.365 46.005ZM127.119 42.5869V45.1889H127.604C127.761 45.2025 127.92 45.1817 128.069 45.1279C128.218 45.0741 128.354 44.9886 128.466 44.8773C128.646 44.6689 128.737 44.3378 128.737 43.8821V43.8431C128.737 43.3737 128.659 43.0484 128.505 42.8693C128.352 42.6901 128.075 42.5927 127.682 42.5927L127.119 42.5869ZM131.713 46.005H130.523V38.7986H131.236V45.0779L132.444 38.7986H133.63V46.005H132.915V39.7355L131.709 46.0147L131.713 46.005ZM136.284 46.0888C135.668 46.0888 135.246 45.9297 135.018 45.6116C134.791 45.2935 134.688 44.7157 134.709 43.8782V43.6639H135.461V43.8762C135.461 44.406 135.511 44.7721 135.63 44.9727C135.701 45.0779 135.8 45.1614 135.915 45.2143C136.031 45.2672 136.158 45.2874 136.284 45.2727C136.406 45.2849 136.528 45.2665 136.64 45.2192C136.753 45.1719 136.851 45.0972 136.927 45.002C137.05 44.8208 137.112 44.5092 137.112 44.0671V43.8353C137.112 43.3971 137.054 43.0932 136.935 42.9277C136.816 42.7621 136.6 42.6803 136.286 42.6803H135.813V41.8779H136.337C136.449 41.8879 136.562 41.8698 136.666 41.8252C136.77 41.7807 136.861 41.7111 136.931 41.6228C137.072 41.3707 137.135 41.0827 137.112 40.795V40.573C137.137 40.2937 137.077 40.0135 136.941 39.7686C136.865 39.6856 136.77 39.6218 136.665 39.5825C136.56 39.5433 136.447 39.5296 136.335 39.5426C136.218 39.5314 136.101 39.5504 135.994 39.5978C135.887 39.6453 135.794 39.7195 135.723 39.8134C135.583 40.082 135.525 40.3864 135.558 40.6879V40.9041H134.804V40.6898C134.773 40.0627 134.891 39.579 135.157 39.2388C135.297 39.0677 135.477 38.9323 135.68 38.8436C135.883 38.7549 136.104 38.7155 136.325 38.7285C136.855 38.7285 137.245 38.8642 137.494 39.1356C137.743 39.407 137.867 39.8361 137.864 40.423V40.6411C137.864 41.2605 137.744 41.7078 137.506 41.9831C137.398 42.1042 137.265 42.2 137.116 42.2635C137.272 42.3257 137.412 42.4215 137.527 42.544C137.753 42.8011 137.868 43.2783 137.868 43.9716V44.2054C137.868 44.839 137.738 45.3123 137.478 45.6252C137.219 45.9381 136.823 46.0959 136.292 46.0985L136.284 46.0888ZM138.886 46.005V38.7986H139.64V41.8935H141.243V38.8103H142.005V46.0167H141.251V42.7193H139.648V46.0128H138.888L138.886 46.005ZM143.214 46.005V38.7986H145.705V39.6147H143.972V41.8935H145.59V42.7076H143.972V45.1889H145.742V46.005H143.21H143.214ZM149.801 43.6678V43.8821C149.819 44.6611 149.714 45.2259 149.488 45.5726C149.262 45.9193 148.884 46.0927 148.356 46.0927C147.828 46.0927 147.45 45.931 147.201 45.6096C146.952 45.2883 146.827 44.7916 146.827 44.1236V40.9255C146.827 40.1464 146.949 39.5861 147.193 39.2446C147.437 38.9032 147.835 38.7305 148.385 38.7266C148.905 38.7266 149.279 38.8843 149.503 39.1979C149.703 39.468 149.803 39.8841 149.801 40.4464V40.9041H149.047V40.6898C149.079 40.3849 149.036 40.0768 148.923 39.7919C148.866 39.7052 148.786 39.636 148.692 39.5923C148.598 39.5486 148.494 39.5321 148.391 39.5446C148.272 39.5345 148.152 39.5556 148.043 39.6058C147.934 39.656 147.84 39.7335 147.77 39.8309C147.619 40.1169 147.552 40.4394 147.575 40.7619V43.958C147.575 44.4605 147.628 44.8072 147.737 44.9961C147.798 45.0937 147.885 45.1722 147.988 45.2228C148.091 45.2734 148.207 45.2941 148.321 45.2824C148.436 45.2887 148.55 45.261 148.649 45.2028C148.748 45.1446 148.828 45.0585 148.878 44.9552C149.01 44.6152 149.065 44.2498 149.038 43.8859V43.6736L149.801 43.6678ZM150.985 46.005V38.7986H153.463V39.6147H151.743V41.8935H153.362V42.7076H151.743V45.1889H153.515V46.005H150.983H150.985Z" fill="#1D1D1B" stroke="#1D1D1B" stroke-width="0.360319" stroke-linejoin="round"/>
</g>
<defs>
<clipPath id="clip0_536_411">
<rect width="155.525" height="46.2767" fill="white"/>
</clipPath>
</defs>
</svg>
