<svg width="174" height="27" viewBox="0 0 174 27" fill="none" xmlns="http://www.w3.org/2000/svg">
<g clip-path="url(#clip0_494_265)">
<path d="M0.205078 16.602V0.307779H3.50341V6.72162H9.95382V0.307779H13.2522V16.6166H9.95382V9.47145H3.50341V16.602H0.205078ZM15.9874 8.55727C15.94 7.12496 16.189 5.69831 16.7187 4.36671C17.094 3.55231 17.6088 2.80979 18.2399 2.17269C18.8347 1.54646 19.5516 1.04867 20.3461 0.710014C21.4633 0.260485 22.6599 0.0415692 23.8639 0.0664359C24.9284 0.0182688 25.9912 0.192387 26.9847 0.57769C27.9782 0.962993 28.8805 1.55103 29.6341 2.30433C31.0968 3.76701 31.8281 5.86595 31.8281 8.52071C31.8281 11.1755 31.0968 13.2159 29.6853 14.7005C28.9332 15.4448 28.0342 16.0242 27.0458 16.4019C26.0574 16.7797 25.0011 16.9474 23.9443 16.8945C22.8796 16.9497 21.815 16.7832 20.8179 16.4055C19.8209 16.0278 18.9131 15.4473 18.1521 14.7005C16.7236 13.2378 16.0093 11.1998 16.0093 8.58653L15.9874 8.55727ZM19.3808 8.44757C19.271 9.95727 19.7273 11.4538 20.6606 12.6455C21.0606 13.1136 21.5591 13.4874 22.1204 13.7403C22.6818 13.9932 23.2921 14.1188 23.9078 14.1081C24.518 14.1256 25.1245 14.0074 25.6835 13.762C26.2425 13.5167 26.74 13.1503 27.1403 12.6893C27.9837 11.7435 28.4055 10.3247 28.4055 8.43295C28.4055 6.54122 27.9959 5.1468 27.1768 4.24969C26.7672 3.79345 26.2616 3.43355 25.6964 3.19583C25.1312 2.95812 24.5204 2.84847 23.9078 2.87478C23.2912 2.85055 22.677 2.96326 22.1092 3.20479C21.5414 3.44632 21.0342 3.81067 20.624 4.27163C19.7952 5.20287 19.3808 6.60704 19.3808 8.48414V8.44757ZM38.0518 16.602V3.0503H33.2104V0.307779H46.177V3.06492H41.3502V16.602H38.0518ZM48.2906 16.602V0.307779H60.3942V3.06492H51.6182V6.72162H59.7799V9.46413H51.5962V13.9034H60.7087V16.6532L48.2906 16.602ZM63.5828 16.602V0.424793H66.8739V13.8522H75.0649V16.602H63.5828ZM77.3101 16.602V0.307779H80.6011V16.6166L77.3101 16.602ZM83.7458 16.602V0.307779H95.8349V3.06492H87.0588V6.72162H95.2498V9.46413H87.0442V13.9034H96.1567V16.6532L83.7458 16.602ZM98.9504 16.602V0.307779H105.891C107.171 0.24798 108.453 0.396168 109.686 0.746581C110.477 1.03857 111.146 1.58704 111.588 2.30433C112.075 3.07367 112.33 3.96788 112.319 4.87864C112.356 5.99098 111.969 7.07589 111.237 7.9137C110.373 8.78022 109.231 9.31377 108.012 9.42025C108.662 9.78816 109.256 10.2489 109.774 10.7879C110.476 11.6127 111.103 12.4988 111.646 13.4353L113.643 16.6166H109.701L107.324 13.0696C106.798 12.2322 106.216 11.4309 105.584 10.6708C105.314 10.3677 104.976 10.1343 104.596 9.9907C104.056 9.84375 103.496 9.78206 102.936 9.80786H102.271V16.6166L98.9504 16.602ZM102.249 7.18967H104.684C105.676 7.23896 106.67 7.1727 107.646 6.99221C108.029 6.86331 108.355 6.60463 108.567 6.26087C108.801 5.89735 108.918 5.47136 108.904 5.03954C108.925 4.55713 108.769 4.0836 108.465 3.7085C108.14 3.35523 107.699 3.12963 107.222 3.07224C106.959 3.07224 106.154 3.01373 104.816 3.01373H102.256L102.249 7.18967Z" fill="#050007"/>
<path d="M119.64 19.7979C121.999 19.7979 123.911 17.8857 123.911 15.5269C123.911 13.1681 121.999 11.2559 119.64 11.2559C117.281 11.2559 115.369 13.1681 115.369 15.5269C115.369 17.8857 117.281 19.7979 119.64 19.7979Z" fill="#EA5B0C"/>
<path d="M127.398 16.5998V0.305592H133.556C134.386 0.28832 135.215 0.339688 136.036 0.459172C136.753 0.553768 137.442 0.80331 138.054 1.19051C138.615 1.5947 139.063 2.13607 139.356 2.76289C139.792 3.69889 139.946 4.74159 139.799 5.76368C139.652 6.78578 139.211 7.74302 138.529 8.51852C137.647 9.49364 136.053 9.9812 133.746 9.9812H129.556V16.6144L127.398 16.5998ZM129.556 8.04315H133.776C134.826 8.144 135.878 7.86933 136.745 7.26793C137.043 6.98918 137.277 6.64806 137.429 6.26885C137.58 5.88963 137.646 5.48164 137.623 5.07392C137.64 4.44963 137.461 3.83558 137.111 3.31871C136.782 2.84771 136.298 2.50828 135.743 2.36065C135.08 2.23882 134.406 2.18977 133.732 2.21439H129.556V8.06509V8.04315ZM142.632 16.5998V0.305592H149.865C150.989 0.257743 152.113 0.406233 153.185 0.744394C153.939 1.04287 154.572 1.58308 154.985 2.28021C155.434 3.02041 155.667 3.87165 155.657 4.7375C155.687 5.82236 155.284 6.8745 154.538 7.66285C153.588 8.55108 152.362 9.0856 151.065 9.17672C151.534 9.38934 151.972 9.66491 152.366 9.99582C153.053 10.6494 153.655 11.3865 154.158 12.1898L156.996 16.6291H154.282L152.125 13.2357C151.496 12.2557 150.969 11.5097 150.56 10.9904C150.259 10.57 149.891 10.2019 149.47 9.90075C149.168 9.70086 148.834 9.55257 148.483 9.46194C148.086 9.40149 147.685 9.37701 147.284 9.38881H144.775V16.6291L142.632 16.5998ZM144.79 7.48733H149.434C150.216 7.51613 150.997 7.41227 151.745 7.18017C152.267 7.00629 152.716 6.66095 153.017 6.20018C153.301 5.76531 153.451 5.25677 153.449 4.7375C153.458 4.37806 153.387 4.02102 153.242 3.69218C153.097 3.36335 152.88 3.07092 152.608 2.83602C151.841 2.27861 150.897 2.01873 149.953 2.10468H144.79V7.50196V7.48733ZM158.4 8.65747C158.4 5.95152 159.131 3.83064 160.594 2.29483C161.318 1.53691 162.194 0.940521 163.164 0.54477C164.135 0.149019 165.178 -0.0371616 166.225 -0.00156877C167.656 -0.0197594 169.065 0.354589 170.299 1.08081C171.499 1.78899 172.461 2.83776 173.063 4.09392C173.719 5.46218 174.044 6.96507 174.014 8.48195C174.044 10.021 173.7 11.5444 173.012 12.9212C172.391 14.1656 171.399 15.1874 170.174 15.8465C168.964 16.5176 167.602 16.8652 166.218 16.8558C164.768 16.883 163.34 16.4975 162.1 15.7441C160.918 15.0293 159.97 13.9846 159.373 12.7383C158.753 11.4727 158.432 10.0814 158.436 8.6721L158.4 8.65747ZM160.594 8.65747C160.502 10.3547 161.071 12.0214 162.181 13.3088C162.698 13.8479 163.318 14.2769 164.005 14.57C164.692 14.863 165.431 15.0141 166.178 15.0141C166.924 15.0141 167.663 14.863 168.35 14.57C169.037 14.2769 169.658 13.8479 170.174 13.3088C171.314 11.9554 171.897 10.2196 171.805 8.4527C171.83 7.26014 171.601 6.07598 171.132 4.97884C170.718 4.03388 170.034 3.23243 169.165 2.67513C168.289 2.12764 167.273 1.84335 166.24 1.85603C165.51 1.84517 164.785 1.97919 164.107 2.25034C163.429 2.52149 162.812 2.92439 162.291 3.43572C161.179 4.48153 160.623 6.23674 160.623 8.68673L160.594 8.65747Z" fill="#050007"/>
<path d="M0 20.3223H0.731338V23.6645L2.7864 20.3223H3.59818V24.7103H2.86685V21.3827L0.797159 24.6957H0V20.3223Z" fill="#9D9D9C"/>
<path d="M4.7168 20.3223H5.44814V22.1433H7.5032V20.3223H8.23453V24.7103H7.5032V22.7576H5.45545V24.6957H4.72411L4.7168 20.3223Z" fill="#9D9D9C"/>
<path d="M11.9205 18.6621H12.6519V20.783C12.7915 20.6184 12.9632 20.484 13.1565 20.3881C13.3431 20.3058 13.5449 20.2634 13.7489 20.2637C13.9922 20.2597 14.2326 20.3165 14.4484 20.4289C14.6642 20.5413 14.8486 20.7057 14.9848 20.9073C15.3038 21.3924 15.4624 21.9654 15.4383 22.5455C15.4667 23.1383 15.294 23.7233 14.9483 24.2057C14.8125 24.4015 14.6309 24.5611 14.4193 24.6707C14.2077 24.7803 13.9725 24.8366 13.7343 24.8346C13.5682 24.8349 13.403 24.8102 13.2443 24.7615C13.0207 24.6705 12.8189 24.5334 12.6519 24.3592V26.4143H11.9205V24.3227C11.7786 24.4721 11.6099 24.5936 11.4232 24.681C11.2413 24.7611 11.0442 24.801 10.8455 24.798C10.6121 24.7958 10.3822 24.7407 10.1732 24.6369C9.96418 24.533 9.78145 24.3831 9.63876 24.1983C9.26721 23.7 9.08568 23.0854 9.12682 22.4651C9.10711 21.8982 9.26849 21.3397 9.58756 20.8708C9.72581 20.666 9.91368 20.4995 10.1336 20.387C10.3536 20.2745 10.5985 20.2195 10.8455 20.2272C11.0496 20.2251 11.2518 20.2675 11.4378 20.3515C11.6253 20.4469 11.7899 20.5816 11.9205 20.7464V18.6621ZM9.8801 22.4431C9.8385 22.9096 9.94331 23.3774 10.1799 23.7815C10.2672 23.9065 10.3831 24.0089 10.518 24.0801C10.6528 24.1514 10.8027 24.1894 10.9552 24.191C11.1035 24.2 11.2513 24.1662 11.381 24.0936C11.5106 24.021 11.6167 23.9127 11.6865 23.7815C11.8708 23.4046 11.954 22.9862 11.9278 22.5675C11.9444 22.1164 11.8462 21.6685 11.6426 21.2657C11.5706 21.1348 11.4647 21.0258 11.336 20.9498C11.2073 20.8739 11.0607 20.834 10.9113 20.8342C10.7634 20.8369 10.6186 20.8773 10.4906 20.9515C10.3627 21.0257 10.2558 21.1313 10.1799 21.2584C9.96386 21.6145 9.85942 22.0271 9.8801 22.4431ZM12.6592 22.5309C12.6109 22.9895 12.7054 23.4518 12.9298 23.8546C13.0072 23.9623 13.1095 24.0497 13.2279 24.1096C13.3462 24.1694 13.4773 24.1998 13.6099 24.1983C13.7558 24.1902 13.8978 24.1483 14.0247 24.076C14.1516 24.0037 14.26 23.9028 14.3413 23.7815C14.5428 23.3876 14.6479 22.9514 14.6479 22.509C14.6479 22.0665 14.5428 21.6303 14.3413 21.2364C14.2605 21.1157 14.1519 21.0162 14.0246 20.9462C13.8974 20.8762 13.7551 20.8378 13.6099 20.8342C13.4604 20.8283 13.3122 20.8651 13.1827 20.9402C13.0532 21.0153 12.9478 21.1256 12.8786 21.2584C12.6963 21.6563 12.6207 22.0949 12.6592 22.5309Z" fill="#9D9D9C"/>
<path d="M16.0301 22.5093C16.0047 22.1785 16.0518 21.8462 16.168 21.5355C16.2842 21.2248 16.4668 20.9431 16.703 20.7102C17.0895 20.3863 17.581 20.2146 18.0852 20.2275C18.3568 20.219 18.6272 20.2674 18.879 20.3694C19.1309 20.4714 19.3587 20.6248 19.5479 20.8199C19.7476 21.0398 19.9015 21.2972 20.0007 21.5772C20.0999 21.8572 20.1424 22.1542 20.1256 22.4508C20.1457 22.9084 20.058 23.3643 19.8696 23.7818C19.7041 24.093 19.4495 24.3476 19.1383 24.5132C18.8173 24.6946 18.4539 24.788 18.0852 24.7838C17.8137 24.7909 17.5438 24.742 17.2921 24.64C17.0404 24.5381 16.8125 24.3854 16.6225 24.1914C16.2129 23.7296 16.0002 23.1258 16.0301 22.5093ZM16.7615 22.5093C16.7294 22.9611 16.859 23.4095 17.1271 23.7745C17.2416 23.9082 17.3842 24.015 17.5448 24.0871C17.7054 24.1591 17.8799 24.1948 18.0559 24.1914C18.2303 24.1932 18.4029 24.1561 18.561 24.0827C18.7192 24.0093 18.859 23.9015 18.9701 23.7672C19.2434 23.3992 19.3734 22.9442 19.3358 22.4873C19.3662 22.0471 19.2363 21.6107 18.9701 21.2587C18.8582 21.1257 18.7182 21.0193 18.56 20.9472C18.4019 20.875 18.2297 20.8391 18.0559 20.8418C17.8799 20.8384 17.7054 20.8741 17.5448 20.9461C17.3842 21.0182 17.2416 21.125 17.1271 21.2587C16.8718 21.623 16.7551 22.0665 16.798 22.5093H16.7615Z" fill="#9D9D9C"/>
<path d="M21.0039 26.3786V20.3231H21.6841V20.8936C21.8246 20.6891 22.0097 20.5191 22.2252 20.3962C22.4491 20.2745 22.702 20.2163 22.9566 20.228C23.3069 20.2216 23.651 20.321 23.9439 20.5133C24.2395 20.7101 24.4669 20.9937 24.5948 21.325C24.7439 21.6918 24.8184 22.0846 24.8142 22.4806C24.821 22.9033 24.7362 23.3224 24.5655 23.7092C24.426 24.0367 24.1939 24.3164 23.8977 24.5138C23.6015 24.7113 23.2541 24.818 22.8981 24.8208C22.667 24.8246 22.4386 24.7719 22.2326 24.6673C22.0478 24.5679 21.8839 24.4338 21.7499 24.2723V26.4005L21.0039 26.3786ZM21.6767 22.5391C21.6417 22.981 21.7634 23.4212 22.0205 23.7823C22.1177 23.9092 22.2428 24.0121 22.3861 24.0831C22.5293 24.1541 22.687 24.1913 22.8469 24.1919C23.0107 24.1916 23.1723 24.1539 23.3193 24.0817C23.4664 24.0095 23.5949 23.9046 23.6952 23.775C23.9683 23.3979 24.1027 22.938 24.0755 22.4732C24.1074 22.0293 23.9861 21.5879 23.7318 21.2227C23.6363 21.0865 23.5092 20.9755 23.3615 20.8991C23.2138 20.8227 23.0498 20.7832 22.8834 20.7839C22.7182 20.7875 22.5561 20.8298 22.41 20.9072C22.264 20.9847 22.1381 21.0952 22.0424 21.23C21.77 21.6096 21.6405 22.0732 21.6767 22.5391Z" fill="#9D9D9C"/>
<path d="M25.7207 20.3223H26.8762L28.0244 23.8254L29.2969 20.3223H30.3647V24.7103H29.6334V21.1779L28.3389 24.6957H27.6734L26.452 21.039V24.6957H25.7207V20.3223Z" fill="#9D9D9C"/>
<path d="M34.358 23.0954L35.0894 23.1905C35.037 23.6459 34.8214 24.0668 34.4824 24.3753C34.1445 24.6626 33.7117 24.8139 33.2683 24.7994C32.9968 24.8131 32.7255 24.7678 32.473 24.6669C32.2206 24.5659 31.9929 24.4115 31.8057 24.2144C31.4132 23.7452 31.2167 23.1427 31.2572 22.5323C31.2487 22.1062 31.3284 21.6829 31.4912 21.289C31.6391 20.9491 31.8966 20.6685 32.2225 20.4919C32.5429 20.3161 32.9029 20.2254 33.2683 20.2286C33.6859 20.2087 34.0972 20.3355 34.4312 20.5869C34.7449 20.8451 34.9531 21.2094 35.0162 21.6108L34.2849 21.7205C34.2399 21.4664 34.1112 21.2347 33.9192 21.0623C33.7457 20.91 33.521 20.829 33.2903 20.8356C33.1174 20.8295 32.9455 20.8625 32.7872 20.9321C32.6289 21.0018 32.4883 21.1063 32.3761 21.2378C32.1121 21.607 31.9877 22.058 32.0251 22.5104C31.9869 22.964 32.1085 23.4167 32.3688 23.7902C32.4751 23.9193 32.6093 24.0226 32.7613 24.0923C32.9133 24.162 33.0792 24.1962 33.2464 24.1924C33.5157 24.1984 33.7772 24.1017 33.9777 23.9218C34.1966 23.6989 34.331 23.4067 34.358 23.0954Z" fill="#9D9D9C"/>
<path d="M35.7188 26.3779V20.3225H36.3989V20.8929C36.537 20.6889 36.7195 20.5189 36.9328 20.3956C37.1578 20.2769 37.4099 20.2189 37.6641 20.2274C38.0144 20.2209 38.3585 20.3203 38.6514 20.5126C38.9451 20.7115 39.172 20.9945 39.3023 21.3244C39.4489 21.6917 39.521 22.0845 39.5144 22.4799C39.5259 22.9015 39.446 23.3207 39.2804 23.7085C39.1408 24.0361 38.9087 24.3157 38.6125 24.5132C38.3163 24.7106 37.9689 24.8173 37.6129 24.8202C37.3819 24.8239 37.1534 24.7712 36.9474 24.6666C36.7626 24.5672 36.5987 24.4331 36.4647 24.2717V26.3999L35.7188 26.3779ZM36.3916 22.5384C36.3565 22.9803 36.4782 23.4205 36.7353 23.7817C36.8326 23.9086 36.9577 24.0115 37.1009 24.0825C37.2442 24.1535 37.4018 24.1907 37.5617 24.1912C37.7255 24.191 37.8871 24.1533 38.0342 24.081C38.1812 24.0088 38.3098 23.9039 38.4101 23.7744C38.6728 23.3935 38.7968 22.9339 38.7611 22.4726C38.793 22.0287 38.6716 21.5873 38.4174 21.222C38.3235 21.0892 38.1991 20.9809 38.0547 20.9061C37.9102 20.8313 37.75 20.7923 37.5873 20.7923C37.4247 20.7923 37.2644 20.8313 37.12 20.9061C36.9755 20.9809 36.8511 21.0892 36.7573 21.222C36.4832 21.6036 36.3536 22.0701 36.3916 22.5384Z" fill="#9D9D9C"/>
<path d="M43.4051 23.2913L44.1365 23.3864C44.0513 23.7999 43.8267 24.1717 43.5002 24.4395C43.0794 24.7158 42.5786 24.8443 42.0767 24.8046C41.5749 24.7648 41.1005 24.5592 40.7284 24.2201C40.327 23.758 40.1246 23.156 40.1653 22.5453C40.1279 21.9227 40.3322 21.3096 40.7357 20.834C40.9231 20.6355 41.1502 20.4789 41.4023 20.3743C41.6543 20.2697 41.9256 20.2195 42.1984 20.227C42.4706 20.2133 42.7426 20.2592 42.9952 20.3615C43.2479 20.4638 43.4751 20.6201 43.6611 20.8194C44.0569 21.2871 44.2561 21.89 44.2169 22.5014V22.6989H40.9332C40.9288 23.1036 41.0718 23.4961 41.3354 23.8032C41.4536 23.9284 41.5966 24.0276 41.7552 24.0943C41.9139 24.1611 42.0848 24.194 42.2569 24.1908C42.5188 24.2051 42.7775 24.1275 42.9883 23.9714C43.1914 23.7909 43.3364 23.5542 43.4051 23.2913ZM40.9698 22.0919H43.4124C43.406 21.7946 43.309 21.5063 43.1345 21.2655C43.0259 21.1277 42.8868 21.0171 42.7282 20.9422C42.5696 20.8673 42.3957 20.8303 42.2204 20.834C42.0608 20.8306 41.9022 20.8593 41.754 20.9183C41.6058 20.9774 41.4709 21.0656 41.3574 21.1777C41.1182 21.4231 40.9799 21.7494 40.9698 22.0919Z" fill="#9D9D9C"/>
<path d="M45.5042 20.3223H48.5539V24.0887H49.0292V25.9389H48.4149V24.6957H44.9703V25.9389H44.3633V24.0887H44.7582C45.2848 23.3793 45.5261 22.1287 45.5042 20.3223ZM46.1258 20.9366C46.1445 22.024 45.917 23.1016 45.4603 24.0887H47.8152V20.9366H46.1258Z" fill="#9D9D9C"/>
<path d="M52.7003 24.1615C52.4647 24.3694 52.1951 24.5352 51.9032 24.6515C51.6412 24.7491 51.3637 24.7987 51.0841 24.7978C50.6839 24.8221 50.2894 24.6941 49.9798 24.4394C49.854 24.3264 49.7542 24.1874 49.6873 24.0322C49.6204 23.8769 49.5879 23.7089 49.5922 23.5399C49.5902 23.3403 49.6372 23.1433 49.729 22.9661C49.8208 22.7889 49.9546 22.6368 50.1187 22.5233C50.2829 22.4152 50.463 22.3338 50.6526 22.282C50.8698 22.2333 51.0895 22.1966 51.3108 22.1723C51.7591 22.129 52.2024 22.0432 52.6345 21.9163C52.6345 21.8139 52.6345 21.7481 52.6345 21.7188C52.6461 21.6038 52.6331 21.4877 52.5966 21.378C52.56 21.2683 52.5007 21.1677 52.4224 21.0826C52.1822 20.8991 51.8828 20.8105 51.5814 20.8339C51.3102 20.8124 51.0391 20.8763 50.8062 21.0168C50.6104 21.18 50.4805 21.4086 50.4405 21.6603L49.7092 21.5653C49.762 21.2997 49.8745 21.0496 50.0383 20.8339C50.2112 20.6311 50.4363 20.4793 50.6892 20.3951C51.0093 20.2869 51.3459 20.2349 51.6838 20.2415C51.9939 20.2318 52.3032 20.2764 52.598 20.3732C52.7942 20.4367 52.9706 20.5501 53.1099 20.7023C53.2278 20.8489 53.3082 21.0222 53.3439 21.2069C53.3611 21.4357 53.3611 21.6655 53.3439 21.8944V22.8817C53.3334 23.3185 53.348 23.7556 53.3878 24.1908C53.4214 24.3733 53.4857 24.5489 53.578 24.71H52.8466C52.7625 24.5385 52.7128 24.3521 52.7003 24.1615ZM52.6345 22.5014C52.244 22.6405 51.8393 22.7361 51.4278 22.7866C51.2055 22.8076 50.9868 22.8567 50.7769 22.9329C50.6758 22.9765 50.5873 23.0451 50.5199 23.1323C50.4525 23.2195 50.4083 23.3223 50.3915 23.4312C50.3747 23.5401 50.3858 23.6515 50.4238 23.7549C50.4618 23.8583 50.5254 23.9504 50.6087 24.0226C50.7962 24.1675 51.0307 24.2379 51.2669 24.22C51.5227 24.2182 51.774 24.1529 51.9983 24.0299C52.2118 23.9156 52.3834 23.7363 52.4883 23.5179C52.5776 23.2849 52.6174 23.0359 52.6053 22.7866L52.6345 22.5014Z" fill="#9D9D9C"/>
<path d="M57.4612 20.3223H60.5109V24.0887H60.9863V25.9389H60.3792V24.6957H56.9346V25.9389H56.3203V24.0887H56.7152C57.2345 23.3793 57.4831 22.1287 57.4612 20.3223ZM58.0828 20.9366C58.1003 22.0231 57.8755 23.0999 57.4246 24.0887H59.7722V20.9366H58.0828Z" fill="#9D9D9C"/>
<path d="M62.1633 20.3223H65.6079V24.7103H64.8766V20.9366H62.9093V23.1306C62.9091 23.4635 62.8847 23.7959 62.8361 24.1252C62.7956 24.2928 62.7004 24.442 62.5655 24.5494C62.3762 24.6771 62.15 24.7388 61.922 24.7249C61.7464 24.7249 61.549 24.7249 61.3223 24.7249V24.074H61.6514C61.7629 24.0803 61.8745 24.0654 61.9805 24.0302C62.0125 24.016 62.041 23.9949 62.0637 23.9683C62.0865 23.9417 62.1031 23.9104 62.1121 23.8766C62.1323 23.6552 62.1323 23.4324 62.1121 23.211L62.1633 20.3223Z" fill="#9D9D9C"/>
<path d="M70.151 20.3227V24.7108H69.4197V22.9775H68.9882C68.7903 22.9669 68.5927 23.002 68.4104 23.0799C68.1816 23.2575 67.9902 23.4787 67.8473 23.7308L67.2257 24.6961H66.2969L67.1013 23.5187C67.2557 23.228 67.5185 23.0099 67.8327 22.9117C67.4743 22.8852 67.1395 22.723 66.8966 22.4582C66.6953 22.2189 66.5863 21.9153 66.5894 21.6026C66.5834 21.4294 66.6156 21.257 66.6839 21.0977C66.7522 20.9384 66.8547 20.7962 66.9843 20.6811C67.3162 20.4202 67.7334 20.2925 68.1545 20.3227H70.151ZM69.4197 20.9371H68.3666C68.0659 20.8987 67.7616 20.9716 67.5109 21.1418C67.4488 21.2057 67.4001 21.2812 67.3674 21.3641C67.3348 21.447 67.3189 21.5355 67.3207 21.6245C67.3118 21.7368 67.3328 21.8494 67.3816 21.9509C67.4304 22.0525 67.5053 22.1392 67.5987 22.2023C67.9104 22.3514 68.2563 22.4146 68.6006 22.3851H69.4197V20.9371Z" fill="#9D9D9C"/>
<path d="M73.3604 22.5092C73.3345 22.1777 73.382 21.8447 73.4995 21.5337C73.6171 21.2227 73.8018 20.9415 74.0406 20.7101C74.4235 20.3848 74.9133 20.2129 75.4155 20.2274C75.6869 20.2203 75.9569 20.2692 76.2086 20.3711C76.4602 20.4731 76.6882 20.6258 76.8781 20.8198C77.0766 21.0403 77.2292 21.298 77.3271 21.578C77.425 21.8579 77.4663 22.1546 77.4486 22.4507C77.4687 22.9083 77.381 23.3642 77.1926 23.7817C77.029 24.0942 76.7738 24.3494 76.4613 24.5131C76.1402 24.6945 75.7769 24.7879 75.4082 24.7837C75.1366 24.7921 74.8662 24.7438 74.6143 24.6418C74.3624 24.5398 74.1346 24.3863 73.9455 24.1913C73.5357 23.73 73.3253 23.1252 73.3604 22.5092ZM74.0917 22.5092C74.0557 22.9614 74.1857 23.4112 74.4574 23.7744C74.5701 23.9084 74.7113 24.0154 74.8708 24.0875C75.0303 24.1597 75.2039 24.1951 75.3789 24.1913C75.5542 24.1927 75.7277 24.1554 75.887 24.0821C76.0463 24.0088 76.1874 23.9012 76.3004 23.7671C76.5707 23.3976 76.7004 22.9438 76.6661 22.4872C76.6978 22.0457 76.5649 21.608 76.2931 21.2586C76.1785 21.128 76.0373 21.0234 75.879 20.9518C75.7207 20.8801 75.549 20.843 75.3752 20.843C75.2015 20.843 75.0298 20.8801 74.8715 20.9518C74.7132 21.0234 74.572 21.128 74.4574 21.2586C74.199 21.6215 74.082 22.0662 74.1283 22.5092H74.0917Z" fill="#9D9D9C"/>
<path d="M77.748 20.3223H81.3024V20.9366H79.8909V24.6957H79.1595V20.9366H77.7554L77.748 20.3223Z" fill="#9D9D9C"/>
<path d="M84.9077 23.2911L85.6391 23.3862C85.5412 23.7996 85.3035 24.1664 84.9662 24.4247C84.5454 24.7011 84.0446 24.8295 83.5428 24.7898C83.0409 24.7501 82.5665 24.5444 82.1945 24.2053C81.7967 23.7469 81.5945 23.1509 81.6313 22.5452C81.5939 21.9225 81.7982 21.3095 82.2018 20.8338C82.3891 20.6354 82.6162 20.4787 82.8683 20.3741C83.1203 20.2695 83.3916 20.2193 83.6644 20.2268C83.9366 20.2136 84.2084 20.2598 84.461 20.3621C84.7135 20.4644 84.9408 20.6203 85.1271 20.8192C85.5196 21.2888 85.7183 21.8903 85.6829 22.5013C85.6829 22.5452 85.6829 22.611 85.6829 22.6987H82.4358C82.4334 23.1044 82.579 23.497 82.8453 23.8031C82.9615 23.9288 83.1031 24.0284 83.2607 24.0952C83.4183 24.1621 83.5884 24.1946 83.7595 24.1907C84.0216 24.2062 84.2806 24.1285 84.4909 23.9713C84.694 23.7907 84.839 23.5541 84.9077 23.2911ZM82.4797 22.0917H84.9223C84.911 21.7941 84.8118 21.5065 84.6371 21.2653C84.5285 21.1276 84.3894 21.0169 84.2308 20.942C84.0722 20.8672 83.8983 20.8301 83.7229 20.8338C83.5634 20.8304 83.4048 20.8591 83.2566 20.9182C83.1084 20.9772 82.9735 21.0654 82.86 21.1776C82.6204 21.422 82.4842 21.7494 82.4797 22.0917Z" fill="#9D9D9C"/>
<path d="M86.6926 20.3223H90.1372V24.7103H89.4059V20.9366H87.4386V23.1306C87.4504 23.4679 87.4332 23.8055 87.3874 24.1398C87.3502 24.3088 87.2543 24.4591 87.1168 24.564C86.9284 24.6938 86.7015 24.7557 86.4732 24.7395C86.305 24.7395 86.1076 24.7395 85.8809 24.7395V24.074H86.2026C86.3141 24.0803 86.4258 24.0654 86.5318 24.0302C86.5638 24.016 86.5922 23.9949 86.615 23.9683C86.6378 23.9417 86.6543 23.9104 86.6634 23.8766C86.6975 23.6565 86.7097 23.4336 86.7 23.211L86.6926 20.3223Z" fill="#9D9D9C"/>
<path d="M91.2417 20.3223H91.973V22.0336H92.9165C93.4129 22.0019 93.9067 22.1273 94.3279 22.3919C94.4866 22.5002 94.6154 22.6468 94.7024 22.8181C94.7893 22.9894 94.8316 23.1799 94.8252 23.3719C94.8272 23.5488 94.791 23.724 94.7191 23.8855C94.6471 24.0471 94.5411 24.1912 94.4084 24.3081C94.0332 24.6024 93.5593 24.7411 93.0847 24.6957H91.2344L91.2417 20.3223ZM91.973 24.0887H92.7556C93.0989 24.1135 93.443 24.0532 93.7575 23.9131C93.8536 23.8626 93.9331 23.7852 93.9863 23.6905C94.0395 23.5958 94.0642 23.4877 94.0573 23.3793C94.0546 23.1864 93.9757 23.0023 93.8379 22.8673C93.5454 22.6791 93.1953 22.6013 92.8506 22.6479H91.973V24.0887Z" fill="#9D9D9C"/>
<path d="M98.6722 23.2913L99.4035 23.3864C99.3029 23.7985 99.0657 24.1646 98.7307 24.4249C98.3666 24.6842 97.9268 24.8154 97.4801 24.7978C97.1991 24.8123 96.9182 24.767 96.6559 24.6649C96.3937 24.5628 96.1561 24.4062 95.9589 24.2055C95.7602 23.9795 95.6082 23.7165 95.5116 23.4316C95.4149 23.1467 95.3756 22.8455 95.3958 22.5453C95.3583 21.9227 95.5627 21.3096 95.9662 20.834C96.1527 20.6344 96.3796 20.477 96.6319 20.3723C96.8842 20.2676 97.1559 20.2181 97.4289 20.227C97.7011 20.2133 97.9731 20.2592 98.2257 20.3615C98.4783 20.4638 98.7056 20.6201 98.8916 20.8194C99.2874 21.2871 99.4866 21.89 99.4474 22.5014V22.6989H96.1856C96.1812 23.1036 96.3242 23.4961 96.5879 23.8032C96.7046 23.9282 96.8463 24.0273 97.0038 24.0941C97.1613 24.1609 97.331 24.1938 97.502 24.1908C97.7637 24.2033 98.0218 24.1258 98.2334 23.9714C98.4446 23.7939 98.5975 23.5569 98.6722 23.2913ZM96.2368 22.0919H98.6722C98.6657 21.7946 98.5688 21.5063 98.3943 21.2655C98.2845 21.1272 98.1442 21.0162 97.9843 20.9413C97.8244 20.8664 97.6493 20.8297 97.4728 20.834C97.3144 20.8312 97.1571 20.8601 97.0101 20.9192C96.8632 20.9782 96.7295 21.0661 96.6171 21.1777C96.3699 21.4197 96.2236 21.7463 96.2076 22.0919H96.2368Z" fill="#9D9D9C"/>
<path d="M100.34 26.3779V20.3225H101.02V20.8929C101.158 20.6889 101.341 20.5189 101.554 20.3956C101.779 20.2769 102.031 20.2189 102.285 20.2274C102.636 20.2209 102.98 20.3203 103.273 20.5126C103.566 20.7115 103.793 20.9945 103.923 21.3244C104.072 21.6912 104.147 22.084 104.143 22.4799C104.149 22.8947 104.067 23.306 103.901 23.6866C103.762 24.0141 103.53 24.2938 103.234 24.4912C102.937 24.6887 102.59 24.7954 102.234 24.7982C102.003 24.802 101.775 24.7493 101.568 24.6447C101.384 24.5453 101.22 24.4112 101.086 24.2497V26.3779H100.34ZM101.013 22.5384C100.978 22.9803 101.099 23.4205 101.356 23.7817C101.454 23.9086 101.579 24.0115 101.722 24.0825C101.865 24.1535 102.023 24.1907 102.183 24.1912C102.347 24.191 102.508 24.1533 102.655 24.081C102.802 24.0088 102.931 23.9039 103.031 23.7744C103.294 23.3935 103.418 22.9339 103.382 22.4726C103.42 22.0312 103.307 21.5901 103.06 21.222C102.964 21.0933 102.84 20.9887 102.696 20.9164C102.553 20.8441 102.395 20.806 102.234 20.8051C102.07 20.8094 101.909 20.8519 101.764 20.9294C101.62 21.0068 101.495 21.117 101.4 21.2513C101.125 21.622 100.988 22.0773 101.013 22.5384Z" fill="#9D9D9C"/>
<path d="M104.757 22.5093C104.731 22.1785 104.778 21.8462 104.895 21.5355C105.011 21.2248 105.193 20.9431 105.43 20.7102C105.816 20.3863 106.308 20.2146 106.812 20.2275C107.083 20.219 107.354 20.2674 107.606 20.3694C107.857 20.4714 108.085 20.6248 108.274 20.8199C108.476 21.0384 108.632 21.2956 108.731 21.576C108.83 21.8563 108.871 22.154 108.852 22.4508C108.872 22.9084 108.785 23.3643 108.596 23.7818C108.431 24.093 108.176 24.3476 107.865 24.5132C107.544 24.6946 107.181 24.788 106.812 24.7838C106.54 24.7922 106.27 24.7439 106.018 24.6419C105.766 24.5399 105.538 24.3864 105.349 24.1914C104.937 23.7312 104.724 23.1263 104.757 22.5093ZM105.488 22.5093C105.456 22.9611 105.586 23.4095 105.854 23.7745C105.968 23.9082 106.111 24.015 106.271 24.0871C106.432 24.1591 106.606 24.1948 106.782 24.1914C106.957 24.1932 107.129 24.1561 107.288 24.0827C107.446 24.0093 107.586 23.9015 107.697 23.7672C107.97 23.3992 108.1 22.9442 108.062 22.4873C108.097 22.0466 107.967 21.6088 107.697 21.2587C107.585 21.1257 107.445 21.0193 107.287 20.9472C107.128 20.875 106.956 20.8391 106.782 20.8418C106.606 20.8384 106.432 20.8741 106.271 20.9461C106.111 21.0182 105.968 21.125 105.854 21.2587C105.596 21.622 105.476 22.0656 105.517 22.5093H105.488Z" fill="#9D9D9C"/>
<path d="M109.729 20.3229H111.44C111.756 20.3097 112.072 20.3467 112.376 20.4326C112.585 20.5041 112.769 20.6366 112.903 20.8129C113.051 21.0055 113.128 21.243 113.122 21.4858C113.126 21.676 113.083 21.8643 112.998 22.0343C112.903 22.1961 112.766 22.3299 112.603 22.4219C112.812 22.4904 112.992 22.6268 113.115 22.8095C113.255 23.0025 113.327 23.2366 113.319 23.475C113.321 23.6526 113.282 23.8283 113.205 23.9882C113.127 24.1481 113.014 24.2879 112.873 24.3965C112.526 24.6215 112.115 24.7268 111.703 24.6963H109.729V20.3229ZM110.46 22.1659H111.257C111.475 22.1758 111.694 22.1586 111.908 22.1147C112.03 22.0816 112.14 22.0129 112.222 21.9173C112.275 21.857 112.314 21.7864 112.337 21.71C112.361 21.6337 112.368 21.5532 112.358 21.474C112.349 21.3947 112.322 21.3183 112.281 21.2498C112.24 21.1813 112.185 21.1221 112.12 21.0762C111.855 20.9637 111.566 20.9161 111.279 20.9373H110.46V22.1659ZM110.46 24.0893H111.44C111.735 24.1124 112.032 24.0621 112.303 23.9431C112.385 23.8887 112.452 23.8132 112.496 23.7245C112.539 23.6358 112.559 23.5371 112.551 23.4384C112.552 23.2969 112.503 23.1596 112.413 23.0508C112.328 22.9336 112.203 22.8526 112.061 22.8241C111.82 22.7836 111.575 22.7664 111.33 22.7729H110.431L110.46 24.0893Z" fill="#9D9D9C"/>
</g>
<defs>
<clipPath id="clip0_494_265">
<rect width="174" height="26.3794" fill="white"/>
</clipPath>
</defs>
</svg>
