<svg width="125" height="55" viewBox="0 0 125 55" fill="none" xmlns="http://www.w3.org/2000/svg">
<rect x="6.35156" y="4.99609" width="50.1024" height="25.6876" fill="white"/>
<rect x="14.1133" y="41.3848" width="93.1482" height="11.4167" fill="white"/>
<path d="M43.9301 13.2598H42.1582V17.0543H43.9301C45.0249 17.0543 45.7354 16.3106 45.7354 15.1528C45.7354 14.0035 45.0249 13.2598 43.9301 13.2598Z" fill="#3971B6"/>
<path d="M58.4715 17.7058C58.4715 17.6973 58.4799 17.6973 58.4799 17.6889L58.5217 17.6297C58.5384 17.6044 58.5551 17.579 58.5634 17.579L70.2226 3.30503C70.2561 3.27123 70.5402 2.96699 70.7158 2.62894C70.8662 2.3247 70.9331 1.9106 70.9414 1.80073C70.9414 0.854203 70.2059 0.0597966 69.2448 -0.0078125H2.22319C0.994584 0.000638636 0 1.00632 0 2.24864V34.5573C0 35.7912 0.994584 36.7969 2.22319 36.7969L69.1946 36.78H69.2197C70.1391 36.7208 70.8829 35.9095 70.8829 34.9207C70.8746 34.8785 70.8161 34.4559 70.6656 34.1517C70.4985 33.8136 70.1976 33.5094 70.1976 33.5094L58.6136 19.2946C58.5802 19.2608 58.5384 19.2185 58.4715 19.134L58.4632 19.1171C58.3211 18.9143 58.2459 18.6692 58.2459 18.4157C58.2459 18.1621 58.3211 17.9255 58.4548 17.7227L58.4715 17.7058ZM21.4713 20.3848C20.1341 21.6102 18.3037 22.2863 16.3229 22.2863H14.317V27.7119C14.317 28.2021 13.9325 28.5908 13.4478 28.5908H9.56138C9.32736 28.5908 9.11006 28.4894 8.9429 28.3288C8.77574 28.1683 8.68381 27.9401 8.68381 27.7035L8.71724 8.91659C8.71724 8.43487 9.11006 8.03767 9.58645 8.03767H16.1641C18.2452 8.03767 20.1341 8.73066 21.4964 9.99833C22.8921 11.2914 23.6611 13.1337 23.6611 15.1789C23.6694 17.241 22.8921 19.0918 21.4713 20.3848ZM32.3282 27.7119C32.3282 28.2021 31.9353 28.5908 31.4589 28.5908H27.5725C27.0878 28.5908 26.7033 28.1936 26.7033 27.7119V8.79827C26.7033 8.31656 27.0878 7.9278 27.5558 7.91935L29.5032 7.88555H29.5283L31.4757 7.91935C31.9521 7.9278 32.3365 8.32501 32.3365 8.79827V27.7119H32.3282ZM52.8383 28.0753C52.6962 28.388 52.387 28.5824 52.0527 28.5824H47.6982C47.4392 28.5824 47.1968 28.4725 47.0296 28.2697L42.1486 22.3962V27.7204C42.1486 28.2105 41.7642 28.5993 41.2794 28.5993H37.393C37.159 28.5993 36.9417 28.4979 36.7745 28.3373C36.6074 28.1767 36.5154 27.9485 36.5154 27.7119L36.5489 8.92504C36.5489 8.44332 36.9417 8.04612 37.4181 8.04612H43.9874C46.0685 8.04612 47.9657 8.73911 49.328 10.0068C50.7321 11.2998 51.5011 13.1422 51.5011 15.1873C51.5011 16.7677 51.0497 18.2213 50.1889 19.396C49.6038 20.1904 48.8516 20.8496 47.9657 21.3313L52.7046 27.1288C52.9386 27.3992 52.9888 27.7626 52.8383 28.0753Z" fill="#3971B6"/>
<path d="M16.0902 13.2598H14.3184V17.0543H16.0902C17.1851 17.0543 17.8872 16.3106 17.8872 15.1528C17.8872 14.0035 17.1851 13.2598 16.0902 13.2598Z" fill="#3971B6"/>
<path d="M80.402 14.2322C80.5942 14.2322 80.7781 14.1984 80.9453 14.1223C81.1124 14.0462 81.2629 13.9448 81.3799 13.8181C81.4969 13.6913 81.5972 13.5392 81.6724 13.3617C81.7476 13.1927 81.7811 13.0067 81.7811 12.8124C81.7811 12.618 81.7476 12.4321 81.6724 12.263C81.5972 12.094 81.5052 11.9419 81.3799 11.8067C81.2545 11.6799 81.1124 11.5785 80.9453 11.5024C80.7781 11.4264 80.5942 11.3926 80.402 11.3926H73.139C72.9468 11.3926 72.7629 11.4264 72.5874 11.5024C72.4119 11.5785 72.2615 11.6799 72.1361 11.8067C72.0107 11.9419 71.9104 12.0856 71.8352 12.263C71.7683 12.4321 71.7266 12.618 71.7266 12.8124V23.9594C71.7266 24.3482 71.8519 24.6609 72.0943 24.9228C72.345 25.1764 72.6459 25.3201 73.0137 25.3623H80.3853C80.5775 25.3708 80.7614 25.337 80.9286 25.2609C81.0957 25.1848 81.2462 25.0919 81.3632 24.9651C81.4802 24.8383 81.5805 24.6862 81.6557 24.5172C81.7309 24.3482 81.7643 24.1622 81.7643 23.9679C81.7643 23.7735 81.7309 23.5876 81.6557 23.4101C81.5805 23.2326 81.4885 23.0805 81.3632 22.9537C81.2378 22.8185 81.0957 22.7171 80.9286 22.641C80.7614 22.565 80.5775 22.5227 80.3853 22.5227H74.5264V19.5902H79.1901C79.3824 19.5902 79.5662 19.5564 79.7334 19.4888C79.9005 19.4212 80.051 19.3197 80.1847 19.193C80.3184 19.0662 80.4187 18.9141 80.4856 18.7535C80.5608 18.5845 80.5942 18.407 80.5942 18.2042C80.5942 18.0098 80.5608 17.8239 80.4856 17.6464C80.4187 17.4689 80.3101 17.3168 80.1847 17.1816C80.0593 17.0548 79.9089 16.945 79.7334 16.8689C79.5662 16.7929 79.3824 16.7591 79.1901 16.7675H74.5264V14.2406H80.402V14.2322Z" fill="#787B7C"/>
<path d="M95.1459 13.2869C95.2044 13.1009 95.2295 12.9235 95.2128 12.7375C95.1961 12.5516 95.1543 12.3826 95.0707 12.2051C94.9955 12.0361 94.8785 11.884 94.7364 11.7488C94.5943 11.622 94.4355 11.5206 94.2767 11.4614C94.1095 11.4023 93.9507 11.3854 93.7836 11.3938C93.6164 11.4107 93.4576 11.453 93.2988 11.5375C93.14 11.622 92.9979 11.7319 92.8809 11.8755L88.9193 16.3462L84.9744 11.8755C84.849 11.7319 84.6986 11.6135 84.5398 11.5375C84.381 11.4614 84.2138 11.4107 84.0467 11.3938C83.8795 11.3769 83.7124 11.4023 83.5452 11.4614C83.3781 11.5206 83.2276 11.6135 83.0772 11.7488C82.9351 11.884 82.8181 12.0276 82.7429 12.2051C82.6593 12.3741 82.6175 12.5516 82.6008 12.7375C82.5841 12.9235 82.6091 13.1009 82.6677 13.2869C82.7262 13.4643 82.8181 13.6334 82.9435 13.777L87.0639 18.4421L83.0438 23.0057C82.91 23.1578 82.8097 23.3268 82.7429 23.5043C82.676 23.6818 82.6426 23.8592 82.6426 24.0367C82.6426 24.2142 82.676 24.3832 82.7512 24.5522C82.8264 24.7213 82.9351 24.8649 83.0772 25.0001C83.2193 25.1269 83.3781 25.2283 83.5536 25.2875C83.7291 25.3466 83.9046 25.372 84.0801 25.3635C84.2556 25.3551 84.4312 25.3044 84.5983 25.2283C84.7655 25.1523 84.9159 25.0339 85.0496 24.8903L88.9026 20.5295L92.7723 24.8903C92.906 25.0339 93.0481 25.1523 93.2153 25.2283C93.3824 25.3044 93.5496 25.3551 93.7334 25.3635C93.909 25.372 94.0928 25.3466 94.26 25.2875C94.4355 25.2283 94.5943 25.1269 94.7447 25.0001C94.8868 24.8649 94.9955 24.7213 95.0707 24.5607C95.1459 24.4001 95.1793 24.2226 95.1793 24.0452C95.1793 23.8677 95.1459 23.6818 95.0791 23.5043C95.0122 23.3268 94.9119 23.1578 94.7782 23.0057L90.7413 18.4421L94.8617 13.777C94.9955 13.6334 95.0874 13.4728 95.1459 13.2869Z" fill="#787B7C"/>
<path d="M105.702 12.9469C105.226 12.4737 104.674 12.0934 104.039 11.8145C103.404 11.5356 102.719 11.4004 101.992 11.4004H98.0467C97.8545 11.4004 97.6706 11.4342 97.5034 11.5103C97.3363 11.5863 97.1858 11.6877 97.0521 11.8145C96.9267 11.9497 96.8181 12.0934 96.7512 12.2709C96.676 12.4399 96.6426 12.6258 96.6426 12.8202V23.9672C96.6426 24.1616 96.676 24.3475 96.7512 24.5166C96.8181 24.6856 96.9267 24.8377 97.0521 24.956C97.1858 25.0828 97.3363 25.1757 97.5034 25.2518C97.6706 25.3279 97.8545 25.3617 98.0467 25.3617C98.2389 25.3617 98.4228 25.3279 98.59 25.2518C98.7571 25.1757 98.9076 25.0828 99.0413 24.956C99.1667 24.8292 99.2753 24.6856 99.3422 24.5166C99.4174 24.3475 99.4508 24.1616 99.4508 23.9672V21.9474H102C102.727 21.9474 103.404 21.8122 104.048 21.5333C104.683 21.2544 105.243 20.8826 105.711 20.4093C106.187 19.936 106.563 19.3783 106.839 18.736C107.115 18.0937 107.257 17.4091 107.257 16.6824C107.257 15.9471 107.115 15.2626 106.839 14.6118C106.555 13.978 106.179 13.4202 105.702 12.9469ZM104.248 17.6035C104.123 17.8993 103.947 18.1528 103.722 18.381C103.504 18.6092 103.245 18.7867 102.953 18.9135C102.66 19.0402 102.351 19.1078 102.033 19.1078H99.4425V14.2315H102.033C102.351 14.2315 102.652 14.2991 102.944 14.4343C103.237 14.5696 103.488 14.747 103.705 14.9752C103.922 15.2034 104.098 15.4569 104.232 15.7527C104.365 16.0485 104.432 16.3612 104.432 16.6824C104.44 17.0119 104.374 17.3162 104.248 17.6035Z" fill="#787B7C"/>
<path d="M122.124 16.5132C121.957 15.9131 121.715 15.3469 121.414 14.8145C121.105 14.2905 120.745 13.8088 120.311 13.3778C119.876 12.9468 119.408 12.575 118.89 12.2707C118.372 11.9665 117.812 11.7298 117.21 11.5524C116.616 11.3833 115.99 11.2988 115.346 11.2988C114.702 11.2988 114.076 11.3833 113.482 11.5524C112.889 11.7214 112.329 11.958 111.811 12.2707C111.292 12.575 110.824 12.9468 110.398 13.3778C109.972 13.8088 109.612 14.2905 109.312 14.8145C109.011 15.3385 108.777 15.9047 108.61 16.5132C108.442 17.1132 108.367 17.747 108.367 18.3978C108.367 19.3781 108.551 20.2993 108.91 21.1613C109.27 22.0233 109.771 22.767 110.398 23.4093C111.025 24.0516 111.769 24.5587 112.621 24.9305C113.474 25.3024 114.385 25.4883 115.354 25.4883C116.324 25.4883 117.235 25.3024 118.087 24.9305C118.94 24.5587 119.684 24.0516 120.319 23.4093C120.954 22.767 121.456 22.0149 121.832 21.1613C122.199 20.2993 122.383 19.3866 122.383 18.3978C122.375 17.747 122.291 17.1217 122.124 16.5132ZM119.241 20.0796C119.015 20.6035 118.723 21.0514 118.338 21.4317C117.954 21.812 117.511 22.1163 116.992 22.3276C116.483 22.5473 115.931 22.6572 115.346 22.6572C114.761 22.6572 114.218 22.5473 113.708 22.3276C113.198 22.1078 112.755 21.812 112.379 21.4317C112.003 21.0514 111.702 20.6035 111.485 20.0796C111.267 19.564 111.159 18.9978 111.159 18.4062C111.159 17.8147 111.267 17.2653 111.485 16.7498C111.702 16.2343 112.003 15.7864 112.379 15.3976C112.755 15.0089 113.198 14.7046 113.708 14.4849C114.218 14.2567 114.761 14.1469 115.346 14.1469C115.931 14.1469 116.474 14.2567 116.992 14.4849C117.502 14.7131 117.954 15.0173 118.338 15.3976C118.723 15.7864 119.015 16.2343 119.241 16.7498C119.458 17.2653 119.567 17.8147 119.567 18.4062C119.575 18.9978 119.458 19.5556 119.241 20.0796Z" fill="#787B7C"/>
<path d="M88.8181 48.4859C88.7262 48.4014 88.6175 48.3253 88.4922 48.2831C88.3752 48.2324 88.2498 48.207 88.1244 48.207H85.918V50.2015H88.1244C88.2498 50.2015 88.3752 50.1677 88.4922 50.1085C88.6092 50.0494 88.7178 49.9649 88.8181 49.8635C88.9184 49.762 88.9937 49.6522 89.0438 49.5254C89.1023 49.3986 89.1274 49.2803 89.1274 49.1536C89.1274 49.0183 89.1023 48.9 89.0438 48.7817C88.9937 48.6718 88.9184 48.5704 88.8181 48.4859Z" fill="#3971B6"/>
<path d="M41.0951 45.028C40.8193 44.7491 40.4933 44.5293 40.1256 44.3603C39.7495 44.1997 39.3566 44.1152 38.9304 44.1152C38.5125 44.1152 38.1113 44.1997 37.7436 44.3603C37.3758 44.5209 37.0499 44.7491 36.7824 45.028C36.5066 45.3068 36.2893 45.6364 36.1305 46.0083C35.9717 46.3801 35.8965 46.7858 35.8965 47.2084C35.8965 47.6394 35.9717 48.045 36.1305 48.4253C36.2893 48.8056 36.5066 49.1268 36.7824 49.4056C37.0582 49.6845 37.3758 49.8958 37.7436 50.0564C38.1113 50.217 38.5125 50.293 38.9304 50.293C39.3483 50.293 39.7495 50.217 40.1256 50.0564C40.4933 49.8958 40.8193 49.6845 41.0951 49.4056C41.3709 49.1268 41.5882 48.8056 41.747 48.4253C41.9058 48.045 41.981 47.6478 41.981 47.2084C41.981 46.7858 41.9058 46.3801 41.747 46.0083C41.5882 45.628 41.3709 45.3068 41.0951 45.028Z" fill="#3971B6"/>
<path d="M123.17 39.4082H1.83873C0.827427 39.4082 0 40.2449 0 41.2675V53.1413C0 54.1639 0.827427 55.0005 1.83873 55.0005H123.17C124.181 55.0005 125.008 54.1639 125.008 53.1413V41.2675C125 40.2449 124.181 39.4082 123.17 39.4082ZM43.6196 49.2115C43.3522 49.8369 42.9844 50.3778 42.5247 50.8426C42.0651 51.3074 41.5302 51.6793 40.9033 51.9412C40.2848 52.2117 39.6246 52.3469 38.9225 52.3469C38.2204 52.3469 37.5602 52.2117 36.9417 51.9412C36.3232 51.6708 35.7883 51.3074 35.3286 50.8426C34.8773 50.3778 34.5179 49.8285 34.2505 49.2115C33.983 48.5861 33.8577 47.9269 33.8577 47.2086C33.8577 46.7353 33.9162 46.279 34.0332 45.8395C34.1502 45.4001 34.3257 44.9944 34.543 44.6056C34.7603 44.2253 35.0278 43.8789 35.3286 43.5662C35.6379 43.2535 35.9805 42.983 36.3566 42.7633C36.7328 42.5436 37.1339 42.3661 37.5685 42.2478C38.0031 42.121 38.4545 42.0619 38.9225 42.0619C39.3905 42.0619 39.8419 42.121 40.2765 42.2478C40.7111 42.3746 41.1123 42.5436 41.4884 42.7633C41.8645 42.983 42.2071 43.2535 42.5164 43.5662C42.8256 43.8789 43.0931 44.2253 43.3187 44.6056C43.536 44.986 43.7116 45.4001 43.8369 45.8395C43.9623 46.279 44.0208 46.7353 44.0208 47.2086C44.0208 47.9185 43.8871 48.5861 43.6196 49.2115ZM54.8275 43.5662C54.7773 43.6929 54.7021 43.8028 54.6102 43.8873C54.5183 43.9803 54.4096 44.0563 54.2842 44.107C54.1589 44.1577 54.0335 44.1831 53.8914 44.1831H51.8354V51.2313C51.8354 51.375 51.8103 51.5102 51.7518 51.6285C51.6933 51.7553 51.6264 51.8567 51.5345 51.9497C51.4426 52.0427 51.3339 52.1103 51.2085 52.161C51.0832 52.2117 50.9495 52.237 50.8074 52.237C50.6653 52.237 50.5316 52.2117 50.4146 52.161C50.2892 52.1103 50.1889 52.0342 50.097 51.9497C50.005 51.8567 49.9298 51.7553 49.8797 51.6285C49.8295 51.5018 49.7961 51.375 49.7961 51.2313V44.1831H47.74C47.598 44.1831 47.4642 44.1577 47.3472 44.0986C47.2219 44.0479 47.1216 43.9718 47.0296 43.8789C46.9377 43.7859 46.8708 43.676 46.8123 43.5493C46.7622 43.4225 46.7371 43.2873 46.7371 43.1436C46.7371 42.9999 46.7622 42.8647 46.8123 42.7464C46.8625 42.6196 46.9377 42.5182 47.0296 42.4253C47.1216 42.3323 47.2302 42.2647 47.3472 42.2055C47.4726 42.1548 47.598 42.1295 47.74 42.1295H53.8831C54.0251 42.1295 54.1589 42.1548 54.2759 42.214C54.4012 42.2731 54.5099 42.3407 54.6018 42.4337C54.7021 42.5267 54.769 42.6365 54.8191 42.7633C54.8693 42.8901 54.8944 43.0253 54.8944 43.169C54.9027 43.3126 54.886 43.4478 54.8275 43.5662ZM64.0462 46.0254C64.1883 46.0254 64.3137 46.0423 64.439 46.1015C64.5644 46.1607 64.673 46.2367 64.765 46.3297C64.8569 46.4226 64.9321 46.541 64.9823 46.6677C65.0324 46.7945 65.0575 46.9297 65.0575 47.0734C65.0575 47.2171 65.0324 47.3438 64.9823 47.4706C64.9321 47.5889 64.8569 47.6988 64.765 47.7917C64.673 47.8847 64.5644 47.9523 64.439 48.003C64.3137 48.0537 64.1883 48.0791 64.0462 48.0791H60.6696V50.2003H64.9154C65.0575 50.2003 65.1912 50.2257 65.3082 50.2848C65.4336 50.3355 65.5339 50.4116 65.6258 50.513C65.7178 50.606 65.7846 50.7158 65.8348 50.8426C65.8849 50.9694 65.91 51.1046 65.91 51.2482C65.91 51.3919 65.8849 51.5271 65.8348 51.6454C65.7846 51.7722 65.7178 51.8821 65.6258 51.9666C65.5339 52.0596 65.4336 52.1272 65.3082 52.1863C65.1829 52.237 65.0575 52.2624 64.9154 52.2539H59.5748C59.3073 52.2286 59.09 52.1187 58.9061 51.9328C58.7306 51.7469 58.6387 51.5187 58.6387 51.2398V43.1605C58.6387 43.0168 58.6638 42.8816 58.7139 42.7633C58.764 42.6365 58.8393 42.5267 58.9312 42.4337C59.0231 42.3407 59.1318 42.2647 59.2572 42.214C59.3825 42.1633 59.5163 42.1379 59.65 42.1379H64.9154C65.0575 42.1379 65.1912 42.1633 65.3082 42.214C65.4336 42.2647 65.5339 42.3407 65.6258 42.4337C65.7178 42.5267 65.7846 42.6365 65.8348 42.7633C65.8849 42.8901 65.91 43.0168 65.91 43.1605C65.91 43.3042 65.8849 43.4394 65.8348 43.5577C65.7846 43.6845 65.7178 43.7943 65.6258 43.8873C65.5339 43.9803 65.4336 44.0563 65.3082 44.107C65.1829 44.1577 65.0575 44.1831 64.9154 44.1831H60.6696V46.017H64.0462V46.0254ZM79.1823 51.206C79.1823 51.3497 79.1572 51.4933 79.0987 51.6201C79.0485 51.7469 78.9733 51.8567 78.873 51.9581C78.7727 52.0596 78.6641 52.1272 78.5387 52.1863C78.4134 52.237 78.2713 52.2708 78.1292 52.2708C77.9871 52.2708 77.8534 52.2455 77.7364 52.1863C77.6194 52.1272 77.5107 52.0511 77.4271 51.9581C77.3435 51.8652 77.2683 51.7553 77.2265 51.6201C77.1764 51.4933 77.1513 51.3497 77.1513 51.206V44.1915H73.5992V49.1101C73.5992 49.6087 73.5324 50.0482 73.3903 50.4369C73.2482 50.8257 73.0476 51.1553 72.7885 51.4257C72.5294 51.6962 72.2035 51.9074 71.8274 52.0511C71.4429 52.1948 71.0167 52.2708 70.5319 52.2793H70.5152H70.4734C70.3313 52.2793 70.1976 52.2539 70.0722 52.1948C69.9468 52.1356 69.8382 52.0596 69.7463 51.9666C69.6543 51.8736 69.5791 51.7638 69.5206 51.637C69.4621 51.5102 69.437 51.375 69.437 51.2313C69.437 51.0877 69.4621 50.9525 69.5206 50.8257C69.5707 50.6989 69.646 50.5975 69.7463 50.5045C69.8382 50.4116 69.9468 50.344 70.0722 50.2933C70.1976 50.2426 70.3313 50.2172 70.4734 50.2172H70.5152C70.7158 50.2172 70.8829 50.1919 71.0083 50.1496C71.142 50.1073 71.2507 50.0397 71.3343 49.9552C71.4178 49.8623 71.4763 49.7524 71.5098 49.6087C71.5432 49.4735 71.5683 49.296 71.5683 49.0932V43.1774C71.5683 43.0337 71.5933 42.8985 71.6435 42.7718C71.6936 42.645 71.7689 42.5267 71.8524 42.4337C71.9444 42.3407 72.0447 42.2647 72.17 42.2055C72.2954 42.1464 72.4208 42.121 72.5629 42.1126H72.5963H72.613H72.6548H78.0874H78.1292C78.2295 42.1126 78.3298 42.1295 78.4217 42.1633C78.4301 42.1633 78.4384 42.1633 78.4468 42.1633C78.4551 42.1633 78.4551 42.1633 78.4551 42.1633C78.6641 42.2393 78.8396 42.3661 78.9733 42.5436C79.1071 42.721 79.1739 42.9323 79.1739 43.169V51.206H79.1823ZM90.9083 50.4285C90.7495 50.7919 90.5406 51.113 90.2648 51.3835C89.989 51.6539 89.6714 51.8652 89.3036 52.0257C88.9442 52.1779 88.5514 52.2624 88.1419 52.2624H84.9325C84.7904 52.2624 84.6483 52.237 84.5229 52.1863C84.3976 52.1356 84.2889 52.0596 84.1886 51.9666C84.0967 51.8736 84.0215 51.7638 83.963 51.637C83.9128 51.5102 83.8794 51.375 83.8794 51.2229V43.2112C83.8794 43.0675 83.9045 42.9239 83.963 42.7971C84.0215 42.6703 84.0967 42.552 84.1886 42.4591C84.2806 42.3661 84.3892 42.29 84.5229 42.2309C84.6483 42.1802 84.7904 42.1464 84.9325 42.1464C85.225 42.1464 85.459 42.2393 85.6429 42.4253C85.8268 42.6112 85.9187 42.8478 85.9187 43.1436V46.1607H88.1419C88.5514 46.1607 88.9442 46.2452 89.3036 46.4057C89.6714 46.5748 89.989 46.7945 90.2648 47.0818C90.5406 47.3692 90.7495 47.6988 90.9083 48.0706C91.0671 48.4425 91.1424 48.8397 91.1424 49.2538C91.1424 49.6679 91.0671 50.0651 90.9083 50.4285Z" fill="#3971B6"/>
</svg>
