<svg width="73" height="73" viewBox="0 0 73 73" fill="none" xmlns="http://www.w3.org/2000/svg">
<g clip-path="url(#clip0_536_430)">
<path d="M73 0H0V73H73V0Z" fill="#751330"/>
<path d="M38.778 43.3765C38.6943 43.0524 38.5713 42.7397 38.412 42.4453C38.3293 43.0699 38.1241 43.6721 37.8082 44.2172C37.4923 44.7623 37.0719 45.2398 36.5711 45.6221C36.0703 46.0045 35.499 46.2842 34.8899 46.4454C34.2807 46.6065 33.6458 46.6458 33.0215 46.561C34.0113 47.3503 35.2413 47.7773 36.5073 47.7711C36.7235 47.7713 36.9395 47.7605 37.1546 47.7387C37.2033 47.7269 37.2485 47.7039 37.2866 47.6715C37.9313 47.1855 38.4174 46.5192 38.6833 45.7569C38.9492 44.9946 38.9831 44.1705 38.7805 43.389" fill="white"/>
<path d="M36.6748 44.624C36.8678 44.4204 37.0396 44.1976 37.1877 43.9593C36.5907 44.2123 35.9473 44.3376 35.299 44.3274C34.6507 44.3171 34.0117 44.1713 33.423 43.8995C32.8556 43.6531 32.3438 43.2944 31.9185 42.8452C31.4932 42.3959 31.1631 41.8653 30.9481 41.2852C30.7362 42.6161 31.0149 43.9787 31.7324 45.1195L31.7847 45.2117C31.8556 45.3806 31.9821 45.5203 32.1432 45.6075C32.6383 45.8083 33.1676 45.9114 33.7019 45.9113C34.2591 45.9113 34.8104 45.7971 35.3217 45.5757C35.833 45.3543 36.2935 45.0304 36.6748 44.624Z" fill="white"/>
<path d="M38.3875 40.7134C38.1833 40.6712 37.976 40.6462 37.7676 40.6387C38.2669 41.03 38.6815 41.5187 38.9862 42.0751C39.291 42.6315 39.4795 43.244 39.5404 43.8755C39.6677 45.1202 39.316 46.3667 38.5569 47.3613C39.2386 47.0997 39.8614 46.705 40.389 46.2001C40.9165 45.6953 41.3382 45.0904 41.6293 44.4208C41.6608 44.3549 41.6745 44.2819 41.6692 44.2091C41.5652 43.3528 41.191 42.552 40.6009 41.9229C40.0108 41.2938 39.2354 40.8693 38.3875 40.7109" fill="white"/>
<path d="M40.8317 38.6807C40.3372 38.4807 39.8089 38.3776 39.2755 38.377C38.6651 38.3762 38.0625 38.5136 37.5127 38.7787C36.963 39.0439 36.4803 39.4301 36.1009 39.9082C36.0028 40.0342 35.913 40.1664 35.832 40.3041C37.0084 39.833 38.3235 39.8466 39.4898 40.3421C40.6562 40.8376 41.579 41.7746 42.0567 42.9483C42.2732 41.4889 41.9015 40.0032 41.0234 38.8177C40.9725 38.7561 40.9064 38.7089 40.8317 38.6807Z" fill="white"/>
<path d="M34.4569 41.5805C34.4843 41.6377 34.5141 41.695 34.544 41.7523C34.7365 40.6256 35.3206 39.6031 36.1934 38.8652C37.0662 38.1272 38.1716 37.7212 39.3146 37.7187C39.5503 37.7191 39.7858 37.7357 40.0192 37.7685C39.0186 36.9546 37.7659 36.5144 36.4761 36.5236C36.2919 36.5236 36.0977 36.5236 35.906 36.5485C35.8229 36.5602 35.7441 36.5928 35.6769 36.6431C34.9493 37.2083 34.4332 38.0021 34.2119 38.8965C33.9906 39.7908 34.0769 40.7337 34.4569 41.573" fill="white"/>
<path d="M33.4219 40.2381C33.3279 39.0675 33.6614 37.9025 34.3606 36.959C33.1467 37.4444 32.1431 38.343 31.5272 39.4961C31.4321 39.6591 31.3728 39.8403 31.353 40.0279C31.3333 40.2154 31.3536 40.4051 31.4126 40.5842C31.6235 41.3805 32.0684 42.0952 32.6898 42.6358C33.3113 43.1765 34.0806 43.5182 34.8984 43.6168C34.9781 43.6168 35.0727 43.6318 35.1847 43.6343C34.6776 43.2162 34.2605 42.6997 33.9584 42.1161C33.6562 41.5324 33.4755 40.8936 33.4269 40.2381" fill="white"/>
<path d="M41.2868 34.8943V34.8794C40.7739 34.9242 40.2261 34.6876 39.7929 34.486C39.2873 34.2545 38.8353 33.9205 38.4658 33.505C37.8703 32.8369 37.5346 31.9772 37.5196 31.0823V31.0599C37.5346 31.0151 37.552 30.9778 37.5694 30.9753L37.7188 30.9305C38.284 30.7636 39.4194 30.3354 39.2127 29.7054C38.9812 29.0108 37.8558 29.1452 37.4698 29.2872C37.3774 29.1387 37.2689 29.0009 37.1462 28.8763H37.1337L37.0565 28.8066C37.0291 28.7842 36.9993 28.7643 36.9694 28.7444L36.9495 28.7294C36.8725 28.6823 36.7884 28.6478 36.7005 28.6273L36.6009 28.6074H36.5187L36.4191 28.6273C36.3312 28.6478 36.2471 28.6823 36.1701 28.7294L36.1502 28.7444C36.1203 28.7643 36.0905 28.7842 36.0631 28.8066L35.9859 28.8763C35.8632 29.0009 35.7546 29.1387 35.6622 29.2872C35.2887 29.1452 34.1683 29.0108 33.9318 29.7054C33.6952 30.4001 35.102 30.8483 35.5751 30.9753C35.5855 30.9778 35.5952 30.9827 35.6034 30.9897C35.6116 30.9966 35.6181 31.0053 35.6224 31.0151C35.6224 31.0151 35.6224 31.0375 35.6224 31.05C35.6224 31.05 35.6224 31.0699 35.6224 31.0798C35.6245 31.631 35.5046 32.1758 35.2713 32.6752C35.0379 33.1745 34.697 33.6161 34.2729 33.9681C33.5253 34.5409 32.6194 34.8695 31.6784 34.9092C30.1337 35.9439 28.9629 37.4484 28.3394 39.2C27.7158 40.9516 27.6726 42.8574 28.2161 44.6355C28.7596 46.4135 29.8609 47.9695 31.3572 49.0731C32.8535 50.1768 34.6653 50.7696 36.5246 50.7638C38.3839 50.758 40.1919 50.1539 41.6813 49.041C43.1707 47.928 44.2623 46.3652 44.7947 44.5838C45.3271 42.8024 45.272 40.8969 44.6376 39.1492C44.0031 37.4015 42.823 35.9044 41.2718 34.8794M35.8863 33.1912C36.1098 32.6486 36.263 32.0796 36.3419 31.4981C36.4216 31.4981 36.4988 31.4981 36.5785 31.4981C36.6603 32.1002 36.8448 32.6838 37.1238 33.2236C37.1672 33.301 37.2163 33.3751 37.2707 33.4452C36.6781 33.3033 35.9361 33.4701 35.7618 33.4452C35.8041 33.373 35.844 33.2859 35.8863 33.1962M36.5162 48.8997C34.9937 48.9001 33.5151 48.3887 32.3182 47.4477C31.1212 46.5067 30.2752 45.1907 29.9162 43.7111C29.5571 42.2315 29.7058 40.6741 30.3383 39.2892C30.9708 37.9042 32.0505 36.772 33.4039 36.0745L33.2072 35.8629L33.1226 35.7732L32.7565 35.3823L33.9616 34.9989L33.9392 35.4446V35.6512V35.8355C35.5017 35.1893 37.2489 35.1494 38.8393 35.7234L38.8169 35.2528L38.8019 34.9267L39.4169 35.1209L40.007 35.3101L39.6908 35.6462L39.6236 35.7184L39.402 35.955C40.8047 36.6068 41.9428 37.7181 42.6279 39.1049C43.313 40.4917 43.5041 42.0708 43.1696 43.581C42.835 45.0912 41.9949 46.4418 40.7881 47.4095C39.5814 48.3771 38.0804 48.9038 36.5337 48.9022" fill="white"/>
<path d="M35.7244 9.12511C35.834 9.74259 36.3369 9.89198 36.4166 10.868C36.4238 11.3987 36.4712 11.9281 36.5585 12.4516L36.6706 12.4341C36.7801 12.0407 36.7975 11.0622 36.9021 10.6663C37.1785 9.62557 37.6491 9.4214 37.4648 8.07688C37.4539 7.73757 37.3674 7.40498 37.2114 7.10343C37.0555 6.80187 36.8341 6.53899 36.5635 6.33398C36.429 6.48836 36.2921 6.62281 36.185 6.77469C35.7384 7.47207 35.5737 8.31326 35.7244 9.1276" fill="white"/>
<path d="M49.9604 12.9333C49.9604 12.9557 49.9455 12.9806 49.9355 13.0055L49.9555 12.9258" fill="white"/>
<path d="M24.1695 16.6328C24.6364 16.8557 25.1461 16.9747 25.6634 16.9814C25.9644 17.0003 26.2663 17.0003 26.5673 16.9814C26.6444 16.8768 26.7266 16.7722 26.8162 16.6677C26.9878 16.4554 27.1862 16.2663 27.4063 16.105C26.741 16.1811 26.0671 16.0957 25.4418 15.856C23.8583 15.2061 23.3902 13.5827 23.2458 13.0126C23.2458 13.0126 23.2309 12.9653 23.2209 12.9404C23.2146 12.898 23.2021 12.8569 23.1836 12.8184C22.9605 13.1507 22.8268 13.5348 22.7951 13.9338C22.7303 14.4705 22.8258 15.0143 23.0695 15.4968C23.3132 15.9793 23.6942 16.3789 24.1646 16.6453" fill="white"/>
<path d="M23.3441 24.8288C23.8781 24.7289 24.4041 24.59 24.9177 24.413C25.7618 24.0818 26.063 23.295 26.0381 22.2468L25.9485 21.9355C25.2688 22.8643 23.8794 22.573 23.4586 22.5978C22.7117 22.6377 22.0046 22.5978 21.1929 22.7149C20.2318 22.8518 19.0292 23.5564 18.7404 24.4204C18.7139 24.5185 18.6948 24.6183 18.6831 24.7192C18.5927 25.7176 18.7019 26.7239 19.0043 27.6796C19.0295 27.619 19.0503 27.5566 19.0665 27.4929C19.2906 26.3824 20.5854 25.4512 21.6859 25.1823C22.2361 25.0479 22.7988 24.9607 23.3516 24.8337" fill="white"/>
<path d="M26.7792 24.8386C26.732 24.5332 26.6264 24.2399 26.4679 23.9746C26.4679 23.9895 26.0098 27.0795 22.2551 26.8081C19.6806 26.6213 19.6034 30.7918 20.9703 32.1588C20.9952 32.1837 20.7537 30.6798 21.3264 29.6689C22.7481 27.1791 27.1551 29.1012 26.7816 24.8411" fill="white"/>
<path d="M50.9196 26.8042C47.1624 27.0756 46.7043 23.9856 46.7043 23.9707C46.6495 24.0753 46.6022 24.1749 46.5574 24.2745C46.5051 24.4413 46.4528 24.6081 46.4055 24.7724C46.4041 24.7915 46.4041 24.8106 46.4055 24.8297C46.0295 29.0898 50.4365 27.1602 51.8582 29.6575C52.4309 30.6535 52.1894 32.1698 52.2143 32.1474C53.5837 30.7805 53.504 26.6099 50.932 26.7967" fill="white"/>
<path d="M25.2598 31.1948C25.6121 31.035 25.9243 30.7985 26.1736 30.5026C26.3496 30.3074 26.4964 30.0877 26.6093 29.8503C26.3936 29.338 26.2753 28.79 26.2607 28.2344C25.9351 28.6423 25.5168 28.9667 25.0407 29.1805C24.5742 29.3522 24.157 29.6356 23.8254 30.0058C23.4938 30.3761 23.2579 30.8219 23.1384 31.3044C22.9343 32.1136 23.2056 32.7261 23.4372 33.3585C23.5396 33.6421 23.6904 33.9058 23.8829 34.1378C23.8829 34.1229 23.8829 34.1104 23.8829 34.0955C23.8829 33.9984 23.8829 33.9386 23.8829 33.8789C23.8007 32.8979 23.985 31.638 25.2747 31.1973" fill="white"/>
<path d="M27.9506 32.2282C27.7017 31.8671 27.4776 31.5061 27.2634 31.1426C27.0171 31.5466 26.6506 31.8635 26.2152 32.0489C25.4683 32.4049 25.162 32.9253 25.0375 33.7918C24.9429 34.4566 24.9852 35.0068 25.2716 35.4849C25.3929 35.685 25.5459 35.8641 25.7247 36.0152C25.7259 35.9476 25.7325 35.8801 25.7446 35.8135C25.8414 35.1007 26.0712 34.4124 26.4219 33.7843C26.8451 33.0822 27.7938 33.0149 27.9506 32.2356" fill="white"/>
<path d="M20.4166 19.2139C20.8498 18.9649 22.1968 18.574 22.7197 18.5839C23.5115 18.5989 24.7465 19.3782 25.6279 19.2711C25.6753 18.8419 25.7869 18.4223 25.959 18.0262C25.7653 18.0431 25.5701 18.028 25.3814 17.9814C24.6991 17.8146 24.0095 17.2195 23.3223 17.0228C22.7936 16.8655 22.226 16.9044 21.7238 17.1324C21.6033 17.1854 21.4889 17.2514 21.3827 17.329C21.0942 17.5601 20.8568 17.8484 20.6854 18.1758C20.514 18.5032 20.4123 18.8626 20.3867 19.2313H20.4041" fill="white"/>
<path d="M48.1475 15.8199C47.4005 16.1262 46.4046 16.2133 45.075 15.8697C44.9555 15.8374 44.826 15.8075 44.709 15.7677C45.0974 16.4424 46.0037 17.0549 47.9284 16.9528C48.4457 16.9458 48.9553 16.8269 49.4223 16.6042C49.8931 16.3382 50.2746 15.9388 50.5188 15.4562C50.7629 14.9737 50.8587 14.4297 50.7942 13.8928C50.7618 13.494 50.6281 13.11 50.4058 12.7773C50.4058 12.7773 50.3858 12.8172 50.3659 12.8993L50.346 12.979C50.1991 13.5492 49.731 15.1726 48.1475 15.8199Z" fill="white"/>
<path d="M48.2061 17.9404C47.4591 18.1197 46.7819 17.7886 46.3984 17.552C46.7122 17.9537 46.964 18.4002 47.1454 18.8766C47.3225 19.0097 47.519 19.1146 47.728 19.1879C48.6094 19.4941 50.0013 18.5654 50.8627 18.548C51.3881 18.548 52.7351 18.9389 53.1659 19.1779H53.1858C53.2206 19.2003 53.0961 17.918 52.2023 17.2781C52.0951 17.2004 51.9799 17.1345 51.8587 17.0814C51.3573 16.8537 50.7905 16.8147 50.2627 16.9719C49.573 17.1686 48.8858 17.7637 48.2011 17.9305" fill="white"/>
<path d="M21.314 21.6034C21.7198 21.5686 22.1281 21.5785 22.534 21.5487C23.2641 21.5214 23.9922 21.4549 24.7151 21.3495C25.0817 21.2918 25.4258 21.1361 25.711 20.8988C25.6737 20.6847 25.6438 20.4705 25.6264 20.2539C25.4053 20.3169 25.1784 20.3569 24.9492 20.3734C22.9573 20.5502 22.1979 19.4124 20.7737 19.9103C19.7603 20.2664 19.5287 20.7793 19.1403 21.7404C18.9949 22.1146 18.8743 22.4981 18.7793 22.8882C18.8092 22.8558 18.8415 22.8284 18.8714 22.7986C19.5138 22.1145 20.3845 21.6893 21.3189 21.6034" fill="white"/>
<path d="M32.5351 12.3462C32.6497 12.4408 32.7517 12.5304 32.8414 12.6176C33.5883 13.3172 33.5883 13.8052 33.6033 14.4153C34.0016 13.8127 34.4523 13.4193 34.0365 12.3213C33.9892 12.2018 33.9369 12.0723 33.8672 11.9354C33.18 10.5485 28.9622 8.84546 31.3773 6.92578C31.3773 6.92578 31.3773 6.92578 31.3325 6.92578C30.699 6.99101 30.0815 7.16538 29.5075 7.44118C29.0319 7.6346 28.6379 7.98645 28.392 8.43712C28.2675 9.85883 31.6662 11.6366 32.5326 12.3487" fill="white"/>
<path d="M23.6525 12.2873C23.8054 12.9442 24.0466 13.5774 24.3696 14.1696C24.7455 14.9016 24.7455 14.8942 25.49 14.4858C26.6752 13.836 27.2653 12.6483 28.1716 11.7271C27.5491 11.8117 27.091 11.4308 26.5482 11.2441C26.5844 11.3956 26.6449 11.5402 26.7275 11.6723C26.8868 11.9213 26.8719 11.9736 26.5806 12.0732C26.514 12.0982 26.4446 12.115 26.3739 12.123L25.4502 12.1777C25.4502 12.4267 25.4502 12.4267 25.8137 12.6757C26.0627 12.85 26.0776 13.0268 25.8436 13.2235C25.7706 13.3041 25.6687 13.3528 25.5601 13.3588C25.4515 13.3649 25.3449 13.3279 25.2634 13.2559C25.0033 13.0438 24.7933 12.7768 24.6484 12.474C24.5285 12.1451 24.5119 11.7873 24.6009 11.4487C24.6899 11.1101 24.8802 10.8067 25.1464 10.5793C26.11 9.72524 29.1576 11.7918 29.6132 11.3636L29.653 11.2515C29.531 11.1569 29.404 11.0623 29.282 10.9727C28.2089 10.2257 27.086 9.68291 25.7664 9.60075C25.4178 9.5688 25.0668 9.62267 24.7439 9.75765C24.421 9.89263 24.136 10.1046 23.9139 10.3751C23.7512 10.6028 23.6376 10.8617 23.5801 11.1356C23.5227 11.4095 23.5228 11.6923 23.5803 11.9661C23.5952 12.0757 23.6151 12.1827 23.6375 12.2873" fill="white"/>
<path d="M34.8408 12.1559C35.3002 12.7657 35.5524 13.5064 35.5604 14.2698C35.7853 14.0283 35.953 13.7394 36.0513 13.4243C36.1495 13.1093 36.1758 12.7762 36.1281 12.4497C36.1144 12.2825 36.0911 12.1163 36.0584 11.9517C35.7422 10.3732 34.5918 10.1765 34.3155 8.65767C34.1337 7.91072 34.6566 7.02184 35.2766 6.38444C35.4097 6.24565 35.5519 6.11589 35.7023 5.99602C35.7283 5.9713 35.7525 5.94467 35.7745 5.91634L35.7446 5.82422C35.3488 5.95369 34.5495 5.97859 34.176 6.15039C33.93 6.26111 33.6935 6.39186 33.4689 6.5413C32.5875 7.14135 32.2713 7.94059 32.6597 9.12576C33.0805 10.4155 34.1287 11.145 34.8458 12.1435" fill="white"/>
<path d="M29.0764 35.3419C29.1989 35.2514 29.3006 35.1356 29.3744 35.0025C29.4483 34.8693 29.4927 34.7218 29.5047 34.57C29.2781 34.2712 29.0316 33.8928 28.7577 33.4521C28.6432 33.2678 28.5237 33.0861 28.4042 32.9043C28.3494 33.5815 28.2722 34.2189 27.8091 34.5601C26.4795 35.5361 26.7086 36.3029 27.2738 36.8009C27.3922 36.9043 27.5197 36.9968 27.6547 37.0773C27.6648 36.8041 27.7345 36.5364 27.8589 36.293C28.1336 35.8347 28.5696 35.4955 29.0814 35.3419" fill="white"/>
<path d="M47.9646 29.4054C47.4632 29.1793 47.026 28.8319 46.6923 28.3945C46.6725 28.9367 46.5544 29.4707 46.3438 29.9706C46.5109 30.2244 46.7054 30.459 46.9239 30.6703C47.1729 30.9342 48.1066 31.1931 48.3829 31.4595C49.0627 32.1169 49.2195 33.1253 49.1299 34.1038C49.1299 34.1635 49.1299 34.2258 49.1299 34.3204C49.1311 34.3353 49.1311 34.3503 49.1299 34.3652C49.322 34.1319 49.4727 33.8675 49.5756 33.5834C49.8071 32.951 50.2528 32.0571 50.0486 31.2479C49.7797 30.1723 48.8635 29.754 47.9721 29.4054" fill="white"/>
<path d="M46.7886 32.2746C46.3144 32.0773 45.9247 31.7194 45.688 31.2637C45.4814 31.6073 45.2598 31.9509 45.0332 32.2945C45.088 33.2282 46.1312 33.2556 46.5819 34.0025C46.9336 34.6313 47.1642 35.3204 47.2616 36.0342C47.2723 36.1001 47.2781 36.1667 47.2791 36.2334C47.4585 36.083 47.6116 35.9038 47.7322 35.7031C48.021 35.225 48.0634 34.6748 47.9662 34.01C47.8418 33.151 47.5305 32.6306 46.7886 32.2671" fill="white"/>
<path d="M45.1991 34.786C44.7012 34.4175 44.6489 33.7004 44.5916 32.9609C44.4597 33.1626 44.3277 33.3643 44.2007 33.566C43.9517 33.9743 43.7152 34.3254 43.5036 34.6142C43.4848 34.7969 43.5142 34.9813 43.5889 35.149C43.6636 35.3168 43.781 35.462 43.9293 35.5703C44.44 35.7246 44.8756 36.0625 45.1518 36.5189C45.2754 36.7636 45.345 37.0319 45.356 37.3057C45.4903 37.2244 45.617 37.1311 45.7345 37.0269C46.2997 36.5289 46.5312 35.762 45.1991 34.786Z" fill="white"/>
<path d="M32.6183 14.145C32.2431 13.7457 31.8323 13.3815 31.3908 13.0569C31.0554 12.8102 30.6643 12.6499 30.2521 12.5904C29.84 12.5309 29.4195 12.574 29.028 12.7158C27.2851 13.3283 27.0361 15.3949 25.4824 15.0264C25.7674 15.1708 26.0761 15.2628 26.3937 15.2978C26.9124 15.3829 27.4437 15.3501 27.948 15.2018C28.4523 15.0535 28.9167 14.7936 29.3068 14.4413C30.3376 13.4777 31.8863 13.9433 32.6233 14.15" fill="white"/>
<path d="M54.5271 24.7254C54.5142 24.6247 54.4951 24.5249 54.4698 24.4266C54.1785 23.5626 52.9759 22.858 52.0148 22.7211C51.2031 22.604 50.5035 22.6439 49.7491 22.604C49.3258 22.5816 47.9414 22.868 47.2592 21.9492C47.2293 22.0837 47.197 22.2181 47.1621 22.3526C47.1621 23.3485 47.4659 24.0955 48.285 24.4192C48.7978 24.5962 49.3229 24.7351 49.8561 24.835C50.4089 24.9619 50.9741 25.0491 51.5243 25.1835C52.6248 25.4524 53.9196 26.3812 54.1437 27.4941C54.1602 27.5574 54.1801 27.6197 54.2034 27.6809C54.5052 26.7267 54.6152 25.7223 54.5271 24.7254Z" fill="white"/>
<path d="M50.8159 19.8278C49.8797 19.7954 48.9336 19.9174 47.9924 19.9373C47.8007 19.9373 47.604 19.9373 47.4023 19.9373C47.4335 20.2401 47.4384 20.545 47.4173 20.8486C47.7145 21.1148 48.0833 21.2879 48.478 21.3466C49.2009 21.452 49.929 21.5185 50.6591 21.5458C51.0624 21.5757 51.4733 21.5657 51.8766 21.6006C52.8118 21.6863 53.6834 22.1114 54.3266 22.7957C54.3565 22.8256 54.3889 22.853 54.4187 22.8853C54.3238 22.4952 54.2032 22.1118 54.0577 21.7375C53.6718 20.7764 53.1589 20.2436 52.3148 20.012C51.82 19.8909 51.3129 19.8266 50.8035 19.8203" fill="white"/>
<path d="M39.3237 11.9535C39.254 12.0929 39.2017 12.2199 39.1544 12.3394C38.7386 13.425 39.1868 13.8333 39.5852 14.4309C39.6001 13.8234 39.6126 13.3353 40.3471 12.6357C40.4392 12.5486 40.5413 12.4589 40.6558 12.3643C41.5223 11.6522 44.9209 9.87445 44.7964 8.45275C44.5506 8.00207 44.1565 7.65022 43.681 7.45681C43.1061 7.18087 42.4878 7.0065 41.8534 6.94141C41.8211 6.94141 41.8011 6.94141 41.8111 6.94141C44.2263 8.85859 40.0109 10.5641 39.3212 11.951" fill="white"/>
<path d="M43.5254 11.2572L43.5677 11.3692C44.0234 11.7975 47.0709 9.73088 48.032 10.5849C48.3021 10.8096 48.4968 11.1117 48.5898 11.4506C48.6829 11.7894 48.6698 12.1485 48.5524 12.4797C48.4103 12.7849 48.2029 13.0552 47.9449 13.2715C47.863 13.3436 47.7559 13.3807 47.6469 13.3746C47.5379 13.3686 47.4357 13.3199 47.3623 13.2391C47.1307 13.0424 47.1407 12.8656 47.3946 12.6913C47.7681 12.4423 47.7681 12.4423 47.7557 12.1933L46.8344 12.1386C46.7637 12.1309 46.6942 12.1141 46.6277 12.0888C46.3339 11.9892 46.3215 11.9394 46.4808 11.6854C46.5645 11.5542 46.6243 11.4092 46.6576 11.2572C46.1173 11.4464 45.6617 11.8273 45.0367 11.7427C45.9405 12.6639 46.5306 13.8516 47.7158 14.5014C48.4628 14.9098 48.4628 14.9172 48.8362 14.1852C49.1571 13.5891 49.3966 12.9527 49.5483 12.2929C49.5708 12.1884 49.5882 12.0813 49.6031 11.9717C49.6616 11.6981 49.6624 11.4153 49.6053 11.1413C49.5483 10.8674 49.4348 10.6083 49.272 10.3807C49.0496 10.1106 48.7646 9.89884 48.4418 9.76389C48.1189 9.62894 47.768 9.57488 47.4195 9.60639C46.1024 9.68855 44.9795 10.2338 43.9063 10.9783C43.7794 11.0679 43.6574 11.1625 43.5329 11.2572" fill="white"/>
<path d="M37.9186 6.40128C38.5385 7.03869 39.0639 7.92507 38.8797 8.67452C38.5983 10.1933 37.4505 10.39 37.1368 11.9686C37.1027 12.1329 37.0794 12.2992 37.067 12.4666C37.0183 12.7929 37.0438 13.1261 37.1417 13.4412C37.2395 13.7563 37.4072 14.0453 37.6322 14.2866C37.641 13.523 37.894 12.7822 38.3543 12.1728C39.0689 11.1768 40.1171 10.4448 40.5404 9.15506C40.9288 7.96989 40.6126 7.16318 39.7287 6.57059C39.505 6.42114 39.2693 6.29039 39.0241 6.17969C38.6481 6.00789 37.8489 5.98299 37.4555 5.85352C37.4555 5.88339 37.4355 5.91327 37.4231 5.94564C37.448 5.97054 37.4679 6.00291 37.4953 6.02532C37.6462 6.14455 37.7885 6.27435 37.9211 6.41373" fill="white"/>
<path d="M43.8848 14.4422C44.5435 15.051 45.4161 15.3749 46.3125 15.3435C46.479 15.3386 46.6452 15.3253 46.8104 15.3037C47.122 15.2666 47.4247 15.1747 47.7043 15.0323C46.1431 15.4008 45.9141 13.3342 44.1562 12.7217C43.7651 12.5799 43.345 12.5368 42.9333 12.5963C42.5215 12.6558 42.1308 12.816 41.7959 13.0628C41.3544 13.3874 40.9436 13.7516 40.5684 14.1509L40.7352 14.106C41.2567 13.9469 41.7984 13.863 42.3436 13.8571C42.9125 13.8524 43.4624 14.0612 43.8848 14.4422Z" fill="white"/>
<path d="M34.3843 23.8598C34.5511 23.1975 35.3329 21.7758 35.3553 21.2903C35.3777 20.8048 35.0242 20.6379 34.6084 20.496C34.1925 20.3541 33.7967 19.2187 33.7469 18.5315C33.6971 17.8443 32.7061 17.7397 32.1558 17.8095C28.0376 18.3423 26.8301 20.0005 26.9471 22.3808C27.445 21.35 27.943 19.8661 30.7167 19.6096C31.384 19.5474 32.2106 19.3606 32.9252 20.2495C33.5004 20.9716 33.9734 21.9401 34.0158 22.3609C34.0581 22.7817 34.1104 23.805 32.7584 24.2632C32.0459 24.4255 31.3146 24.49 30.5847 24.4549C29.4544 24.4076 28.309 23.7378 27.9256 21.9376C27.5098 23.5486 28.9863 24.7586 31.0105 25.2118C32.0289 25.4409 32.5044 25.8293 32.6937 26.2426C32.6737 27.3232 31.511 27.6992 30.7018 27.9382C29.3996 28.3166 29.2427 29.7782 29.173 30.5127C29.1332 30.9285 29.2925 31.8547 29.4992 32.6415C29.7235 33.2364 30.0832 33.7709 30.5499 34.2027L30.7565 34.3371C30.9035 34.4317 31.0055 34.4965 30.9881 34.4641C30.7685 34.1132 30.5794 33.7442 30.4229 33.3611C29.7656 31.7377 29.9399 30.2911 30.6545 29.6661C31.872 28.6005 32.7858 28.9018 33.5676 29.5267C33.3634 29.3101 33.1667 28.4934 34.0805 27.6767C34.0805 27.6021 34.0805 27.4103 34.0581 27.1788C34.0581 26.7704 34.0456 26.2625 34.0581 25.8243C34.1345 25.1593 34.2492 24.4992 34.4017 23.8474" fill="white"/>
<path d="M31.2581 20.9135C31.1114 20.8843 30.9621 20.8701 30.8124 20.8711C29.941 20.8711 29.0198 21.2396 28.8828 21.5384C28.9455 21.8286 29.0287 22.114 29.1318 22.3924C29.2824 22.8835 29.6086 23.3019 30.0481 23.5677C30.2627 23.6883 30.5067 23.7469 30.7527 23.737C31.3974 23.7091 32.0245 23.5181 32.5753 23.1817C32.597 23.1665 32.617 23.1489 32.635 23.1294C32.7325 23.0633 32.8093 22.9709 32.8566 22.863C32.8566 22.6912 32.5728 21.1948 31.2507 20.9135M30.8946 21.5086C30.9275 21.5086 30.9603 21.5137 30.9917 21.5235C31.0981 21.5552 31.1876 21.6277 31.2407 21.7252C31.3157 21.8603 31.3345 22.0195 31.293 22.1684C31.2692 22.2844 31.2072 22.3891 31.117 22.4658C31.0267 22.5425 30.9134 22.5868 30.795 22.5916C30.7603 22.5953 30.7252 22.5953 30.6904 22.5916C30.5842 22.5596 30.4948 22.4872 30.4415 22.39C30.4037 22.3228 30.3797 22.2489 30.3707 22.1724C30.3617 22.0959 30.368 22.0183 30.3892 21.9443C30.4146 21.829 30.477 21.7252 30.5669 21.6488C30.6568 21.5724 30.7693 21.5275 30.8871 21.521M32.1844 22.7385V22.756C32.1818 22.7648 32.1766 22.7726 32.1694 22.7784H32.1545C31.7943 23.109 31.3305 23.3044 30.8423 23.3311C30.6961 23.3313 30.5508 23.3086 30.4116 23.2639C29.6123 23.0149 29.321 22.4547 29.5675 21.6455V21.6181C29.5686 21.6107 29.5717 21.6037 29.5766 21.598C29.5814 21.5922 29.5878 21.588 29.5949 21.5857L29.6198 21.5708L29.6821 21.5334C29.807 21.4525 29.9396 21.3842 30.0779 21.3293L30.3095 21.2421H30.3319C30.3408 21.2423 30.3496 21.2447 30.3574 21.249C30.3652 21.2534 30.3719 21.2595 30.3767 21.267C30.384 21.2772 30.3879 21.2894 30.3879 21.3019C30.3879 21.3144 30.384 21.3266 30.3767 21.3368L30.2199 21.531C30.099 21.6792 30.0338 21.8651 30.0356 22.0563C30.0444 22.269 30.1345 22.4702 30.2872 22.6185C30.4399 22.7668 30.6437 22.8509 30.8565 22.8534C31.0694 22.856 31.2751 22.7768 31.4314 22.6322C31.5876 22.4877 31.6824 22.2887 31.6963 22.0762V21.8521C31.6965 21.8397 31.7007 21.8275 31.7083 21.8176C31.7159 21.8078 31.7266 21.8006 31.7387 21.7974H31.7536C31.7632 21.7976 31.7727 21.7999 31.7813 21.8042C31.7899 21.8085 31.7975 21.8147 31.8034 21.8223L31.9229 22.0115C32.0449 22.2032 32.2342 22.5717 32.1719 22.7311" fill="white"/>
<path d="M46.0995 22.4684C46.1316 21.9783 46.0879 21.4861 45.97 21.0093C45.7036 20.0134 45.0363 19.1992 43.7815 18.6365C42.8599 18.2491 41.887 17.9975 40.8932 17.8895C40.343 17.8198 39.347 17.9244 39.2997 18.6116C39.2524 19.2988 38.8665 20.4342 38.4407 20.5761C38.015 20.718 37.6589 20.8848 37.6938 21.3679C37.7286 21.8509 38.498 23.2776 38.6648 23.9399C38.8174 24.5907 38.9313 25.25 39.0059 25.9143C39.0209 26.3525 39.0059 26.8655 39.0059 27.2713C39.0059 27.4904 38.9835 27.6821 38.981 27.7543C39.8948 28.5735 39.7006 29.3902 39.4939 29.6093C40.2757 28.9818 41.1895 28.6806 42.4095 29.7462C43.1441 30.3911 43.3059 31.9024 42.5789 33.5831C42.4925 33.8641 42.3577 34.1279 42.1805 34.3624C42.1456 34.4247 42.1133 34.4844 42.0759 34.5442C42.0386 34.6039 42.1705 34.5043 42.3249 34.3998C43.5823 33.3067 43.9707 31.6609 43.764 29.7661C43.6097 29.064 43.2661 28.2722 42.3548 28.0232C41.5356 27.7743 40.3629 27.4082 40.3504 26.3276C40.5322 25.9143 41.0177 25.5259 42.0336 25.2969C44.0603 24.8437 45.5343 23.6336 45.121 22.0227C44.7351 23.8204 43.5922 24.4926 42.4618 24.5399C41.7311 24.5739 40.9992 24.5094 40.2857 24.3482C38.9362 23.8901 38.9885 22.8543 39.0408 22.4435C39.0931 22.0327 39.5562 21.0541 40.1313 20.3346C40.8459 19.4382 41.6701 19.6324 42.3398 19.6947C45.1235 19.9437 45.6115 21.4376 46.107 22.4659" fill="white"/>
<path d="M41.7808 20.9896C40.4463 21.2735 40.1724 22.7749 40.1798 22.9467C40.2515 23.0662 40.3453 23.171 40.4562 23.2554C41.0069 23.5942 41.6353 23.7862 42.2813 23.8131C42.5265 23.8234 42.7698 23.7647 42.9834 23.6438C43.4215 23.3816 43.747 22.9665 43.8972 22.4786C44.001 22.197 44.0842 21.9082 44.1462 21.6146C44.0067 21.3158 43.088 20.9473 42.2165 20.9473C42.0661 20.9463 41.916 20.9605 41.7684 20.9896M42.6323 21.3382C42.6376 21.3305 42.6447 21.3242 42.6529 21.3199C42.6612 21.3156 42.6703 21.3133 42.6796 21.3133H42.6996L42.9336 21.4005C43.0706 21.4539 43.2016 21.5215 43.3245 21.6021L43.3917 21.642H43.4166C43.4296 21.65 43.4393 21.6624 43.444 21.6768V21.7042C43.693 22.5134 43.3992 23.0736 42.6025 23.3226C42.4633 23.3674 42.3179 23.3901 42.1717 23.3899C41.6828 23.363 41.2183 23.1677 40.8571 22.8371V22.8247L40.8396 22.7973C40.7799 22.6379 40.9716 22.2694 41.0886 22.0777L41.2081 21.8885C41.2132 21.8806 41.2203 21.8742 41.2286 21.8699C41.2368 21.8655 41.2461 21.8633 41.2555 21.8636H41.2729C41.2844 21.8678 41.2945 21.8751 41.302 21.8848C41.3095 21.8945 41.3141 21.9062 41.3152 21.9184V22.1424C41.3185 22.2747 41.3532 22.4043 41.4166 22.5204C41.48 22.6365 41.5702 22.7358 41.6796 22.8101C41.7891 22.8844 41.9147 22.9315 42.046 22.9475C42.1773 22.9634 42.3106 22.9479 42.4347 22.9021C42.5588 22.8562 42.6701 22.7815 42.7595 22.6839C42.8489 22.5864 42.9138 22.469 42.9487 22.3414C42.9836 22.2138 42.9876 22.0797 42.9603 21.9503C42.933 21.8208 42.8752 21.6998 42.7917 21.5972L42.6348 21.403C42.6272 21.393 42.623 21.3807 42.623 21.3681C42.623 21.3555 42.6272 21.3432 42.6348 21.3332M42.6149 21.9109C42.6521 22.0418 42.6433 22.1815 42.59 22.3068C42.5653 22.367 42.5271 22.4208 42.4783 22.464C42.4295 22.5071 42.3715 22.5385 42.3087 22.5558C42.2738 22.5656 42.2378 22.5706 42.2016 22.5707C42.0836 22.566 41.9705 22.5221 41.8803 22.4459C41.7901 22.3696 41.7279 22.2655 41.7036 22.1499C41.6664 22.019 41.6752 21.8793 41.7285 21.754C41.7535 21.6935 41.7921 21.6395 41.8413 21.5963C41.8906 21.5532 41.9491 21.5219 42.0124 21.505C42.0455 21.495 42.0799 21.49 42.1145 21.4901C42.232 21.4964 42.3442 21.541 42.4341 21.6169C42.5239 21.6929 42.5866 21.7961 42.6124 21.9109" fill="white"/>
<path d="M12.3888 53.9347C12.3522 53.9537 12.3126 53.9663 12.2718 53.972H12.1249C12.0701 53.9552 12.0127 53.9485 11.9556 53.9521H7.88464L7.673 53.972C7.4539 53.9422 7.32443 53.8849 7.2821 53.8027L6.76172 55.8843L6.84886 55.9241C6.97912 55.5923 7.18055 55.2931 7.43896 55.0477C7.66774 54.8401 7.94522 54.6937 8.24567 54.6219C8.41523 54.5786 8.58738 54.5462 8.76107 54.5248C8.95287 54.5033 9.14572 54.4925 9.33872 54.4924V59.7908C9.3682 60.0688 9.3033 60.3485 9.15447 60.5851C9.09192 60.6541 9.01474 60.7082 8.92859 60.7435C8.84243 60.7789 8.74947 60.7945 8.6565 60.7893V60.8963H11.2036V60.7893L11.0119 60.7693L10.8575 60.7121C10.7986 60.6821 10.7462 60.6407 10.7035 60.5902C10.6607 60.5398 10.6285 60.4813 10.6085 60.4183C10.5364 60.1941 10.5052 59.9588 10.5164 59.7236V54.4949C11.8311 54.4949 12.6535 54.9721 12.9839 55.9266L13.0934 55.8867L12.573 53.8052C12.5177 53.8593 12.4527 53.9024 12.3813 53.9322" fill="white"/>
<path d="M28.0498 54.3156C28.1059 54.2283 28.184 54.1573 28.2762 54.1097C28.3684 54.062 28.4715 54.0395 28.5751 54.0442V53.957H26.0156V54.0442C26.1527 54.063 26.2861 54.1024 26.4114 54.1612C26.5285 54.2524 26.6097 54.382 26.6405 54.5272C26.7054 54.7893 26.7331 55.0592 26.7227 55.3289V55.9016H23.563V55.0974C23.5587 54.8512 23.6001 54.6064 23.685 54.3753C23.732 54.2709 23.8107 54.1839 23.9099 54.1267C24.0092 54.0695 24.1239 54.045 24.2378 54.0566V53.9695H21.7081V54.0566C21.8996 54.0892 22.0749 54.1847 22.2061 54.328C22.3549 54.5171 22.4269 54.7554 22.4078 54.9953V59.8381C22.4078 60.4838 22.1729 60.8066 21.7031 60.8066V60.9137H24.2378V60.8066C24.1336 60.802 24.0321 60.7719 23.9422 60.719C23.8524 60.666 23.7769 60.5918 23.7224 60.5029C23.5969 60.2321 23.5421 59.934 23.563 59.6364V56.3996H26.7202V59.6364C26.7202 59.7683 26.7202 59.8854 26.7202 59.975C26.7202 60.0646 26.7027 60.1568 26.6903 60.224C26.6653 60.3722 26.5988 60.5103 26.4986 60.6224C26.4403 60.6799 26.3696 60.7233 26.2919 60.7493C26.2069 60.7819 26.1165 60.798 26.0255 60.7967V60.9037H28.5851V60.7967C28.4778 60.8004 28.3716 60.7743 28.2783 60.7211C28.1851 60.6678 28.1085 60.5897 28.0572 60.4954C27.9244 60.2258 27.8635 59.9265 27.8805 59.6264V55.0849C27.8642 54.8165 27.9265 54.5492 28.0597 54.3156" fill="white"/>
<path d="M38.5609 60.4879C38.4994 60.5772 38.4183 60.6513 38.3238 60.7043C38.2293 60.7574 38.1239 60.7882 38.0156 60.7942V60.9012H42.4476C42.52 60.8924 42.5934 60.9015 42.6615 60.9275C42.7296 60.9535 42.7904 60.9958 42.8385 61.0506L42.8584 60.9958V59.0388C42.5198 59.9377 41.7803 60.4182 40.6549 60.4282C40.132 60.4282 39.8706 60.2041 39.8706 59.7534V55.065C39.8692 54.9373 39.8801 54.8097 39.9029 54.6841C39.9212 54.5714 39.9521 54.4612 39.9951 54.3554C40.0318 54.2578 40.1014 54.1759 40.1918 54.1239C40.3004 54.0661 40.4225 54.0386 40.5453 54.0442V53.957H38.0156V54.0442C38.4738 54.1064 38.7003 54.445 38.7003 55.065V59.6239C38.7215 59.9188 38.6738 60.2146 38.5609 60.4879Z" fill="white"/>
<path d="M57.0311 56.5824C57.1428 56.595 57.2496 56.6353 57.3418 56.6997C57.434 56.764 57.5086 56.8504 57.5589 56.9509C57.6589 57.1868 57.7057 57.4419 57.6959 57.6979V59.3661C57.6967 59.4768 57.69 59.5874 57.6759 59.6972C57.6627 59.7819 57.6419 59.8653 57.6137 59.9462C57.5532 60.0945 57.4408 60.2158 57.2975 60.2873C57.076 60.3783 56.8369 60.4183 56.5978 60.4043C56.3538 60.4038 56.1109 60.3703 55.8758 60.3048C55.6297 60.2392 55.3917 60.1465 55.1662 60.0284C54.6692 59.7543 54.2574 59.3485 53.976 58.8557C53.6462 58.2674 53.4835 57.6001 53.5054 56.926C53.4898 56.4307 53.6057 55.9401 53.8416 55.5043C54.0429 55.1372 54.3488 54.8382 54.7205 54.6453C55.0804 54.4615 55.4791 54.3667 55.8832 54.3689C56.0386 54.3692 56.1936 54.3834 56.3464 54.4113C56.4986 54.4394 56.6485 54.4794 56.7945 54.5308C57.0909 54.6269 57.364 54.7838 57.5963 54.9914C57.8234 55.1893 58.0051 55.4339 58.1291 55.7085L58.2411 55.6886L57.8751 53.7266C57.8155 53.8005 57.743 53.8629 57.661 53.9108C57.586 53.9563 57.4997 53.9797 57.412 53.978C57.3405 53.9624 57.2682 53.9508 57.1954 53.9432C57.1373 53.9401 57.0792 53.9401 57.0211 53.9432L56.4235 53.876C56.1844 53.8403 55.9432 53.8195 55.7015 53.8137C55.1571 53.8006 54.6155 53.8954 54.108 54.0926C53.6957 54.2594 53.3276 54.5193 53.0324 54.852C52.7548 55.173 52.5478 55.5488 52.4248 55.955C52.2924 56.3882 52.2269 56.8391 52.2306 57.292C52.2242 57.9455 52.4085 58.5867 52.761 59.137C53.1203 59.695 53.6258 60.1437 54.2225 60.4342C54.8669 60.7526 55.5779 60.9131 56.2966 60.9023H59.389V60.8152C59.2436 60.7838 59.1089 60.7152 58.9981 60.616C58.941 60.5472 58.8982 60.4677 58.8722 60.3822C58.8461 60.2968 58.8372 60.2069 58.8462 60.118V57.2796C58.8405 57.1188 58.8738 56.9591 58.9433 56.814C58.9927 56.7414 59.0592 56.6821 59.1369 56.6413C59.2146 56.6005 59.3012 56.5794 59.389 56.5799V56.4978H57.0336L57.0311 56.5824Z" fill="white"/>
<path d="M64.1755 53.9609V54.0481C64.2487 54.0456 64.3218 54.0548 64.3921 54.0755C64.4438 54.0879 64.4928 54.1099 64.5365 54.1402C64.5738 54.1697 64.6034 54.2077 64.6229 54.251C64.6424 54.2944 64.6512 54.3417 64.6485 54.3892C64.6077 54.6698 64.5047 54.9377 64.3473 55.1735L63.187 57.0284L62.0989 55.2855C61.9289 55.0492 61.8195 54.7748 61.7802 54.4863C61.7762 54.4253 61.787 54.3642 61.8117 54.3082C61.8364 54.2523 61.8743 54.2032 61.9221 54.1651C62.0317 54.0854 62.1653 54.0459 62.3006 54.0531V53.9659H59.5742V54.0531C59.7489 54.0764 59.9135 54.148 60.0498 54.2597C60.2105 54.4019 60.3461 54.5703 60.4506 54.7577L62.3006 57.6783V59.7573C62.3277 60.0341 62.2658 60.3124 62.1238 60.5516C62.0627 60.6254 61.9868 60.6857 61.9011 60.7285C61.8153 60.7714 61.7216 60.7959 61.6259 60.8006V60.9101H64.1556V60.8006C64.0606 60.8044 63.9661 60.7859 63.8796 60.7465C63.7931 60.7072 63.7171 60.6481 63.6576 60.574C63.5126 60.3041 63.4503 59.9976 63.4783 59.6926V57.7007L65.2212 54.9021C65.3627 54.6698 65.5362 54.4586 65.7366 54.2747C65.8716 54.1463 66.0485 54.0712 66.2346 54.063V53.9759L64.1755 53.9609Z" fill="white"/>
<path d="M15.4975 60.7263C15.6165 60.7838 15.7387 60.8345 15.8635 60.8782C15.9756 60.918 16.0951 60.9529 16.2196 60.9852C16.3443 61.0149 16.4707 61.0373 16.598 61.0525C16.725 61.0525 16.847 61.0724 16.9914 61.0724C17.5138 61.0762 18.0322 60.9824 18.5202 60.796C18.9823 60.6227 19.4054 60.3595 19.7651 60.0217C20.1133 59.6952 20.3926 59.3024 20.5868 58.8664C20.783 58.4305 20.8832 57.9575 20.8806 57.4795C20.8823 56.8669 20.7408 56.2624 20.4673 55.7142C20.1863 55.15 19.7467 54.6801 19.2024 54.3622C18.9023 54.178 18.5768 54.0388 18.2364 53.9489C17.8633 53.8518 17.479 53.8041 17.0935 53.807H17.0114C16.4974 53.7998 15.9878 53.9034 15.5174 54.1108C15.083 54.3036 14.6931 54.5842 14.3721 54.9349C14.0556 55.2864 13.8096 55.6956 13.6476 56.14C13.4789 56.5974 13.3945 57.0816 13.3986 57.5692C13.4011 57.7834 13.4295 57.9966 13.4832 58.2041C13.5391 58.4208 13.6089 58.6338 13.6924 58.8415C13.8648 59.2468 14.1038 59.6205 14.3995 59.947C14.7068 60.2808 15.0809 60.5464 15.4975 60.7263ZM16.5856 54.3971C16.9353 54.296 17.3065 54.296 17.6562 54.3971C18.7742 54.6984 19.6132 55.9508 19.6132 57.4521C19.6132 58.9983 18.7219 60.2781 17.5541 60.5296C17.4184 60.5597 17.2799 60.5756 17.1408 60.5769C16.9857 60.5698 16.832 60.5447 16.6827 60.5022C16.6719 60.5008 16.6611 60.5008 16.6503 60.5022C15.5274 60.2084 14.6809 58.951 14.6809 57.4422C14.6809 55.9333 15.5 54.7183 16.598 54.3996" fill="white"/>
<path d="M35.4424 54.3526C35.1423 54.1684 34.8168 54.0291 34.4763 53.9393C34.1032 53.8422 33.719 53.7945 33.3335 53.7973H33.2513C32.7372 53.789 32.2274 53.8926 31.7574 54.1011C31.3269 54.2946 30.9412 54.5752 30.6245 54.9252C30.3064 55.276 30.0595 55.6853 29.8975 56.1303C29.7302 56.5873 29.6459 57.0704 29.6485 57.557C29.6505 57.7723 29.6797 57.9865 29.7356 58.1944C29.7891 58.4108 29.8582 58.623 29.9423 58.8293C30.1141 59.2357 30.3532 59.6103 30.6494 59.9373C30.9577 60.2701 31.3316 60.5354 31.7474 60.7166C31.8665 60.7742 31.9887 60.8249 32.1134 60.8685C32.2255 60.9084 32.345 60.9432 32.472 60.9756C32.5965 61.006 32.7229 61.0276 32.8504 61.0403C32.9802 61.0554 33.1107 61.0629 33.2414 61.0627C33.7637 61.0665 34.2822 60.9728 34.7701 60.7864C35.2324 60.6123 35.6555 60.3482 36.015 60.0095C36.3637 59.6844 36.6432 59.2923 36.8367 58.8567C37.0329 58.4208 37.1331 57.9479 37.1305 57.4699C37.132 56.8565 36.9905 56.2512 36.7172 55.7021C36.4358 55.1388 35.9962 54.6698 35.4523 54.3526M33.7941 60.5025C33.6586 60.534 33.5199 60.5498 33.3808 60.5498C33.2238 60.5506 33.0673 60.5313 32.9152 60.4926H32.8803C31.7574 60.2012 30.9109 58.9414 30.9109 57.435C30.9109 55.9287 31.73 54.7111 32.828 54.3924C33.008 54.3374 33.1951 54.3097 33.3833 54.3103C33.5583 54.3095 33.7326 54.333 33.9012 54.38C35.0166 54.6812 35.8557 55.9336 35.8557 57.435C35.8557 58.9812 34.9643 60.261 33.7966 60.51" fill="white"/>
<path d="M50.0464 60.049C50.3945 59.7225 50.6739 59.3297 50.868 58.8937C51.0643 58.4578 51.1645 57.9849 51.1618 57.5069C51.1636 56.8943 51.022 56.2897 50.7485 55.7416C50.4675 55.1774 50.0279 54.7075 49.4837 54.3896C49.1836 54.2054 48.8581 54.0661 48.5176 53.9763C48.1445 53.8792 47.7603 53.8314 47.3748 53.8343H47.2926C46.7786 53.8272 46.2691 53.9308 45.7987 54.1381C45.3646 54.3304 44.9754 54.6111 44.6559 54.9622C44.3382 55.3134 44.0914 55.7226 43.9288 56.1673C43.7601 56.6248 43.6758 57.109 43.6798 57.5965C43.6823 57.8108 43.7107 58.024 43.7645 58.2314C43.8203 58.4482 43.8902 58.6611 43.9736 58.8688C44.1461 59.2741 44.3851 59.6478 44.6807 59.9743C44.9881 60.3082 45.3622 60.5737 45.7788 60.7536C45.8978 60.8112 46.02 60.8619 46.1448 60.9055C46.2568 60.9454 46.3763 60.9802 46.5008 61.0126C46.6264 61.0424 46.7536 61.0649 46.8818 61.0798C47.0088 61.0923 47.1308 61.0997 47.2727 61.0997C47.7958 61.103 48.315 61.0093 48.8039 60.8233C49.266 60.65 49.6891 60.3868 50.0489 60.049M47.4246 60.5918C47.2676 60.5913 47.1113 60.5721 46.959 60.5345H46.9241C45.8012 60.2407 44.9546 58.9833 44.9546 57.4745C44.9546 55.9656 45.7738 54.7506 46.8718 54.4319C47.2204 54.3267 47.5916 54.3224 47.9425 54.4194C49.0604 54.7207 49.8995 55.9731 49.8995 57.4745C49.8995 59.0207 49.0081 60.3005 47.8404 60.552C47.7046 60.5821 47.5661 60.598 47.4271 60.5993" fill="white"/>
<path d="M16.4781 63.4571L16.4308 63.4721H16.3735C16.3506 63.4667 16.3268 63.4667 16.3038 63.4721H14.6655H14.5809C14.4937 63.4596 14.4414 63.4347 14.424 63.4023L14.2148 64.2389L14.2497 64.2539C14.3058 64.1192 14.3908 63.9985 14.4987 63.9003C14.591 63.8167 14.7034 63.7584 14.8249 63.731C14.8928 63.7134 14.9619 63.7001 15.0315 63.6912C15.1086 63.6872 15.1859 63.6872 15.2631 63.6912V65.8225C15.2746 65.9338 15.2492 66.0457 15.1909 66.1412C15.1659 66.1689 15.1351 66.1907 15.1006 66.2049C15.0661 66.2192 15.0289 66.2254 14.9917 66.2233V66.2682H16.0125V66.2233H15.9353L15.8731 66.2009C15.8269 66.1752 15.7929 66.1322 15.7785 66.0814C15.7494 65.9915 15.7368 65.897 15.7411 65.8026V63.6986C16.269 63.6986 16.601 63.8904 16.7371 64.2738L16.7794 64.2589L16.5702 63.4198C16.548 63.4419 16.5218 63.4596 16.4931 63.4721" fill="white"/>
<path d="M18.8516 64.3781C18.7426 64.2913 18.6185 64.2254 18.4856 64.1839C18.3445 64.1403 18.1975 64.1184 18.0498 64.1192C17.9425 64.1186 17.8354 64.1311 17.7311 64.1565C17.6327 64.1789 17.5374 64.2132 17.4473 64.2586C17.2731 64.3478 17.1267 64.483 17.024 64.6495C16.9184 64.8279 16.8649 65.0323 16.8696 65.2396C16.8632 65.4415 16.9183 65.6407 17.0277 65.8106C17.1371 65.9804 17.2956 66.113 17.4822 66.1907C17.6564 66.267 17.845 66.3051 18.0353 66.3025C18.2255 66.3 18.413 66.2568 18.5852 66.1758C18.7656 66.094 18.9198 65.9639 19.0308 65.7998C19.1481 65.6185 19.2071 65.4056 19.2001 65.1898C19.2041 65.0257 19.1726 64.8627 19.108 64.7117C19.052 64.5828 18.9667 64.4686 18.859 64.3781M18.6275 65.7052C18.5755 65.825 18.4888 65.9265 18.3785 65.9965C18.2798 66.0601 18.1648 66.0938 18.0473 66.0936C17.921 66.0943 17.7979 66.0542 17.6963 65.9791C17.5841 65.893 17.4979 65.7775 17.4473 65.6454C17.3857 65.4782 17.3561 65.3008 17.3601 65.1226C17.3544 64.9658 17.3878 64.8101 17.4573 64.6694C17.5114 64.5588 17.5984 64.4675 17.7062 64.408C17.8056 64.3543 17.917 64.3268 18.0299 64.3283C18.1668 64.324 18.3008 64.3681 18.4084 64.4528C18.5168 64.5392 18.5981 64.6551 18.6424 64.7864C18.694 64.9319 18.7201 65.0852 18.7196 65.2396C18.7239 65.4 18.6915 65.5592 18.625 65.7052" fill="white"/>
<path d="M21.6082 65.8428V64.1621L20.921 64.2219V64.2517C20.9723 64.2571 21.0217 64.2742 21.0654 64.3015C21.1069 64.3353 21.1344 64.3832 21.1426 64.436C21.1536 64.4768 21.1611 64.5184 21.165 64.5605C21.165 64.6078 21.165 64.6675 21.165 64.7373V65.2153C21.1654 65.2815 21.1579 65.3476 21.1426 65.412C21.1274 65.4739 21.1057 65.534 21.0779 65.5913C21.0187 65.7023 20.9332 65.7972 20.8289 65.8677C20.7242 65.9393 20.6053 65.9877 20.4803 66.0096C20.2761 66.0096 20.1716 65.8527 20.1716 65.539V64.1621L19.4844 64.2219V64.2517C19.5236 64.2543 19.5617 64.2655 19.5961 64.2844C19.6305 64.3034 19.6604 64.3296 19.6836 64.3613C19.73 64.4501 19.7507 64.5502 19.7433 64.6501V65.7332C19.7286 65.8121 19.7331 65.8933 19.7564 65.97C19.7798 66.0468 19.8214 66.1167 19.8776 66.1739C19.9339 66.2311 20.0031 66.2739 20.0794 66.2986C20.1557 66.3233 20.2369 66.3292 20.316 66.3158C20.4688 66.2921 20.6153 66.238 20.7467 66.1565C20.8189 66.1142 20.8887 66.0644 20.9609 66.0121C21.0331 65.9598 21.0978 65.9 21.16 65.8403C21.1564 65.8892 21.1564 65.9383 21.16 65.9872C21.17 66.037 21.1825 66.0942 21.1974 66.159L21.2298 66.2735H21.8448V66.2287C21.673 66.2287 21.5958 66.1042 21.5958 65.8552" fill="white"/>
<path d="M23.1556 64.2166C23.0615 64.2749 22.9774 64.348 22.9067 64.4332C22.8549 64.4879 22.8158 64.5534 22.7921 64.6249C22.7915 64.5412 22.7823 64.4578 22.7647 64.3759C22.7483 64.3025 22.7249 64.2309 22.695 64.1618L22.1074 64.2216V64.2514C22.1481 64.2539 22.1875 64.2664 22.2222 64.2876C22.2569 64.3089 22.2859 64.3384 22.3066 64.3735C22.3455 64.4506 22.3652 64.536 22.3639 64.6224V65.825C22.3664 65.9204 22.3441 66.0148 22.2991 66.0989C22.2818 66.1346 22.2544 66.1644 22.2203 66.1847C22.1863 66.2051 22.147 66.215 22.1074 66.2135V66.2583H23.0511V66.2135C23.0065 66.2113 22.9634 66.1972 22.9262 66.1727C22.889 66.1482 22.859 66.1141 22.8394 66.074C22.8048 65.9818 22.7887 65.8836 22.7921 65.7852V65.2549C22.7921 65.2075 22.7921 65.1652 22.7921 65.1304C22.7921 65.0955 22.7921 65.0557 22.7921 65.0183C22.7974 64.983 22.8049 64.9481 22.8145 64.9137C22.821 64.885 22.8293 64.8567 22.8394 64.8291C22.8739 64.7312 22.9352 64.6449 23.0162 64.5801C23.0857 64.5215 23.1743 64.4905 23.2652 64.493C23.3679 64.4907 23.4688 64.5203 23.554 64.5776L23.6462 64.1519C23.5928 64.1361 23.5375 64.1277 23.4818 64.127C23.3645 64.1279 23.2499 64.1615 23.1507 64.2241" fill="white"/>
<path d="M24.4001 65.8278V64.1621L23.7129 64.2219V64.2592C23.7623 64.2686 23.8106 64.2828 23.8573 64.3015C23.8996 64.3332 23.9288 64.3793 23.9395 64.431C23.9656 64.5309 23.9766 64.6341 23.9718 64.7373V65.7457C23.9751 65.8428 23.9651 65.94 23.942 66.0345C23.9286 66.0885 23.899 66.1371 23.8573 66.1739L23.7926 66.2063C23.7662 66.2106 23.7393 66.2106 23.7129 66.2063V66.2511H24.659V66.2063C24.4847 66.2063 24.4101 66.0768 24.4101 65.8179" fill="white"/>
<path d="M23.9887 63.358C23.9324 63.4216 23.903 63.5046 23.9065 63.5895C23.906 63.6287 23.9132 63.6675 23.9277 63.7038C23.9422 63.7401 23.9638 63.7732 23.9912 63.8012C24.0171 63.8285 24.0484 63.8501 24.0831 63.8647C24.1179 63.8793 24.1552 63.8865 24.1929 63.8858C24.2631 63.8843 24.3308 63.8588 24.3846 63.8136C24.4172 63.7866 24.4428 63.7521 24.4593 63.7131C24.4757 63.6741 24.4826 63.6317 24.4792 63.5895C24.4817 63.5464 24.4755 63.5033 24.461 63.4626C24.4464 63.422 24.4238 63.3847 24.3946 63.353C24.3687 63.3255 24.3374 63.3035 24.3027 63.2885C24.2681 63.2735 24.2307 63.2658 24.1929 63.2659C24.154 63.2642 24.1153 63.2717 24.0798 63.2877C24.0444 63.3037 24.0132 63.3277 23.9887 63.358Z" fill="white"/>
<path d="M26.2732 65.0223L26.0591 64.9551L25.7752 64.8804C25.6836 64.8591 25.5983 64.8164 25.5262 64.7559C25.4985 64.7307 25.475 64.7013 25.4565 64.6688C25.4399 64.6427 25.4313 64.6125 25.4316 64.5816C25.4378 64.5398 25.4546 64.5003 25.4803 64.4667C25.506 64.4332 25.5398 64.4068 25.5785 64.3899C25.6666 64.3524 25.7616 64.3337 25.8574 64.3351C26.0209 64.3337 26.1814 64.3786 26.3205 64.4646C26.3895 64.5063 26.4491 64.5619 26.4954 64.628C26.5417 64.694 26.5737 64.7689 26.5894 64.848H26.6218L26.5894 64.1932C26.572 64.2021 26.5536 64.2088 26.5346 64.2131C26.5117 64.2195 26.4884 64.2245 26.4649 64.2281H26.3927L26.3105 64.2156L26.2035 64.1957L25.9545 64.1509C25.8986 64.1413 25.8419 64.1371 25.7852 64.1384C25.577 64.1264 25.3702 64.1785 25.1926 64.2878C25.1298 64.3276 25.0779 64.3823 25.0414 64.447C25.0049 64.5118 24.985 64.5845 24.9834 64.6588C24.9793 64.7849 25.0219 64.9082 25.1029 65.0049C25.1929 65.1038 25.3045 65.1805 25.4291 65.229C25.6091 65.3016 25.7948 65.3591 25.9844 65.4008C26.2159 65.4556 26.3329 65.5626 26.3329 65.722C26.3336 65.7803 26.3173 65.8375 26.2859 65.8866C26.2545 65.9357 26.2094 65.9745 26.1562 65.9983C26.1238 66.015 26.0905 66.0299 26.0566 66.0432L25.9619 66.0755C25.8981 66.0942 25.8318 66.1034 25.7653 66.1029H25.6706L25.576 66.0855L25.4839 66.0581L25.3943 66.0207C25.275 65.9625 25.171 65.8772 25.0905 65.7718C25.005 65.6625 24.9524 65.5313 24.9386 65.3933H24.9062L24.9386 66.2299C24.952 66.212 24.9693 66.1973 24.9891 66.187C25.0089 66.1767 25.0308 66.1709 25.0532 66.1701H25.1204L25.2025 66.1925L25.2797 66.215C25.4556 66.2597 25.6361 66.2831 25.8175 66.2847C25.9685 66.2829 26.1181 66.2568 26.2607 66.2075C26.406 66.168 26.5377 66.0897 26.6417 65.9809C26.7367 65.8722 26.7873 65.7318 26.7836 65.5875C26.785 65.5191 26.7712 65.4513 26.7432 65.3888C26.7152 65.3264 26.6737 65.271 26.6218 65.2265C26.5218 65.1365 26.405 65.0671 26.2782 65.0223" fill="white"/>
<path d="M30.5268 65.8425V64.737C30.5347 64.577 30.4882 64.4191 30.3948 64.2888C30.3528 64.2336 30.298 64.1894 30.2351 64.1599C30.1722 64.1304 30.1032 64.1166 30.0338 64.1195C29.8923 64.1294 29.7546 64.1702 29.6305 64.239C29.4483 64.3323 29.2806 64.4514 29.1325 64.5926C29.1256 64.4614 29.0706 64.3373 28.9781 64.244C28.8847 64.1604 28.7623 64.1166 28.637 64.122C28.4815 64.1272 28.3299 64.1717 28.1963 64.2515C28.0213 64.3482 27.8625 64.4717 27.7257 64.6175C27.725 64.5335 27.7141 64.4499 27.6934 64.3685C27.6788 64.2948 27.6519 64.2241 27.6137 64.1594L27.041 64.2191V64.2565C27.0921 64.266 27.1416 64.2828 27.1879 64.3063C27.2267 64.3371 27.2539 64.3801 27.2651 64.4283C27.2917 64.5281 27.3026 64.6314 27.2975 64.7345V65.7305C27.3007 65.8457 27.2864 65.9607 27.2551 66.0716C27.2391 66.1145 27.2095 66.1511 27.1709 66.1758C27.1323 66.2005 27.0867 66.212 27.041 66.2085V66.2533H27.9772V66.2085C27.8104 66.2085 27.7282 66.084 27.7282 65.835V65.1752C27.7262 65.0433 27.7579 64.913 27.8203 64.7968C27.879 64.686 27.9647 64.5919 28.0693 64.5229L28.1366 64.488L28.2137 64.4582C28.2654 64.4386 28.3204 64.4293 28.3756 64.4308C28.5897 64.4308 28.6968 64.5802 28.6968 64.8814V65.8226C28.7031 65.9252 28.6816 66.0275 28.6345 66.1189C28.6166 66.1505 28.5905 66.1766 28.5589 66.1946C28.5274 66.2126 28.4916 66.2217 28.4553 66.221V66.2658H29.3815V66.221C29.3425 66.2227 29.3038 66.2144 29.269 66.197C29.2341 66.1796 29.2043 66.1536 29.1823 66.1214C29.1299 66.04 29.1046 65.9441 29.1101 65.8475V65.1877C29.1088 65.0536 29.1423 64.9215 29.2072 64.8042C29.2396 64.748 29.278 64.6954 29.3217 64.6474C29.3607 64.6038 29.405 64.5653 29.4537 64.5329C29.5014 64.5018 29.5523 64.4759 29.6056 64.4557C29.6502 64.4392 29.6974 64.4308 29.745 64.4308C29.7917 64.4282 29.8384 64.4363 29.8815 64.4544C29.9247 64.4725 29.9631 64.5002 29.994 64.5353C30.061 64.6377 30.0917 64.7596 30.0811 64.8814V65.8226C30.0811 66.0716 30.0015 66.206 29.8321 66.221V66.2658H30.7708V66.221C30.594 66.221 30.5069 66.0965 30.5069 65.8475" fill="white"/>
<path d="M39.2393 63.4919C39.2948 63.4998 39.3486 63.5167 39.3987 63.5417C39.4441 63.5772 39.4758 63.6274 39.4883 63.6836C39.5154 63.7884 39.5271 63.8966 39.5232 64.0048V64.2388H38.2509V63.9152C38.2497 63.8159 38.2666 63.7171 38.3007 63.6239C38.3196 63.5819 38.3511 63.547 38.3908 63.5238C38.4305 63.5006 38.4765 63.4903 38.5223 63.4944V63.4595H37.5039V63.4919C37.5824 63.5042 37.6544 63.5429 37.7081 63.6014C37.7683 63.6776 37.7976 63.7736 37.7902 63.8703V65.8199C37.7902 66.0689 37.6931 66.2083 37.5039 66.2083V66.2531H38.5223V66.2083C38.4803 66.207 38.4394 66.1952 38.4033 66.1739C38.3671 66.1525 38.337 66.1224 38.3156 66.0863C38.265 65.9774 38.2427 65.8575 38.2509 65.7377V64.4331H39.5232V65.7377C39.5232 65.79 39.5232 65.8348 39.5232 65.8747C39.5232 65.9145 39.5232 65.9469 39.5107 65.9792C39.5011 66.0388 39.4743 66.0942 39.4335 66.1386C39.4102 66.1617 39.3822 66.1795 39.3514 66.1909C39.317 66.2031 39.2808 66.209 39.2443 66.2083V66.2531H40.2726V66.2083C40.2294 66.21 40.1866 66.1995 40.1492 66.1779C40.1117 66.1563 40.0812 66.1246 40.061 66.0863C40.0069 65.9784 39.982 65.8582 39.9888 65.7377V63.9127C39.9827 63.8042 40.0077 63.6962 40.061 63.6014C40.0843 63.5669 40.1159 63.5388 40.1528 63.5197C40.1898 63.5006 40.231 63.491 40.2726 63.4919V63.457H39.2393V63.4919Z" fill="white"/>
<path d="M42.5509 64.3781C42.4419 64.2913 42.3178 64.2254 42.1849 64.1839C42.0437 64.1405 41.8968 64.1186 41.7491 64.1192C41.6418 64.1186 41.5347 64.1311 41.4304 64.1565C41.332 64.1789 41.2367 64.2132 41.1466 64.2586C40.9724 64.3478 40.826 64.483 40.7233 64.6495C40.6177 64.8279 40.5642 65.0323 40.5689 65.2396C40.5617 65.4523 40.6228 65.6617 40.7432 65.8372C40.8524 65.9936 41.0034 66.1161 41.179 66.1907C41.3488 66.264 41.5318 66.3021 41.7168 66.3028C41.9121 66.302 42.105 66.2587 42.282 66.1758C42.4631 66.0942 42.6182 65.964 42.7301 65.7998C42.8473 65.6185 42.9064 65.4056 42.8994 65.1898C42.9033 65.0257 42.8719 64.8627 42.8073 64.7117C42.7513 64.5828 42.666 64.4686 42.5583 64.3781M42.3268 65.7052C42.2748 65.825 42.1881 65.9265 42.0778 65.9965C41.9791 66.0601 41.8641 66.0938 41.7466 66.0936C41.6203 66.0943 41.4972 66.0542 41.3956 65.9791C41.2834 65.893 41.1972 65.7775 41.1466 65.6454C41.085 65.4782 41.0554 65.3008 41.0594 65.1226C41.0537 64.9658 41.0871 64.8101 41.1565 64.6694C41.2107 64.5588 41.2977 64.4675 41.4055 64.408C41.5048 64.3541 41.6163 64.3266 41.7292 64.3283C41.8661 64.324 42.0001 64.3681 42.1077 64.4528C42.2161 64.5392 42.2974 64.6551 42.3417 64.7864C42.3925 64.9321 42.4177 65.0854 42.4164 65.2396C42.4214 65.3998 42.3899 65.559 42.3243 65.7052" fill="white"/>
<path d="M44.5377 65.0223L44.3211 64.955L44.0373 64.8803C43.9455 64.8594 43.8601 64.8167 43.7883 64.7558C43.7599 64.7307 43.7356 64.7013 43.7161 64.6687C43.7014 64.642 43.6937 64.612 43.6937 64.5816C43.6996 64.54 43.716 64.5007 43.7413 64.4672C43.7665 64.4336 43.7998 64.407 43.8381 64.3898C43.9264 64.3528 44.0212 64.3342 44.1169 64.3351C44.2813 64.3333 44.4427 64.3782 44.5826 64.4645C44.6509 64.5067 44.7098 64.5626 44.7557 64.6285C44.8015 64.6945 44.8333 64.7692 44.849 64.848H44.8838L44.849 64.1931C44.8325 64.2021 44.8149 64.2088 44.7967 64.2131C44.7729 64.2195 44.7488 64.2245 44.7245 64.228H44.6647L44.585 64.2156L44.4755 64.1956L44.2265 64.1508C44.1698 64.1412 44.1122 64.137 44.0547 64.1384C43.8473 64.1265 43.6413 64.1787 43.4646 64.2878C43.4016 64.3274 43.3493 64.382 43.3123 64.4468C43.2754 64.5115 43.255 64.5843 43.253 64.6587C43.2489 64.7849 43.2914 64.9081 43.3725 65.0048C43.4634 65.1038 43.5758 65.1805 43.7011 65.2289C43.8811 65.3016 44.0668 65.359 44.2564 65.4007C44.4879 65.4555 44.6025 65.5626 44.6025 65.7219C44.6038 65.7803 44.5877 65.8378 44.5562 65.8871C44.5248 65.9363 44.4793 65.975 44.4257 65.9983C44.3943 66.0153 44.3619 66.0303 44.3286 66.0431L44.234 66.0755C44.1701 66.094 44.1038 66.1032 44.0373 66.1029H43.9427L43.8456 66.0854L43.7559 66.058L43.6663 66.0207C43.5471 65.9624 43.4431 65.8772 43.3625 65.7717C43.2761 65.6631 43.2233 65.5315 43.2106 65.3933H43.1758L43.2106 66.2298C43.224 66.2119 43.2413 66.1973 43.2611 66.1869C43.2809 66.1766 43.3028 66.1708 43.3252 66.1701H43.3924L43.4721 66.1925L43.5493 66.2149C43.7259 66.2596 43.9073 66.283 44.0896 66.2846C44.2405 66.2826 44.3901 66.2566 44.5328 66.2074C44.6728 66.1624 44.7983 66.0807 44.8963 65.9709C44.9906 65.862 45.0404 65.7215 45.0357 65.5775C45.0375 65.5093 45.0242 65.4415 44.9966 65.3791C44.9691 65.3166 44.928 65.2611 44.8764 65.2165C44.7764 65.1264 44.6596 65.0571 44.5328 65.0123" fill="white"/>
<path d="M47.3611 64.4576C47.2368 64.3489 47.0917 64.2667 46.9346 64.2157C46.7775 64.1648 46.6118 64.1463 46.4473 64.1613H45.3145V64.2036C45.3555 64.2054 45.3956 64.2164 45.4318 64.2358C45.468 64.2552 45.4994 64.2825 45.5236 64.3157C45.5654 64.4303 45.5824 64.5525 45.5734 64.6742V66.7283C45.5734 66.9773 45.4863 67.1193 45.3244 67.1193V67.1616H46.2706V67.1193C46.1037 67.1193 46.0216 66.9898 46.0216 66.7283V66.2503C46.1562 66.2666 46.2918 66.2749 46.4274 66.2752C46.6213 66.2783 46.8144 66.2514 47.0001 66.1955C47.1482 66.1522 47.2845 66.0756 47.3985 65.9714C47.4469 65.9253 47.4896 65.8735 47.5254 65.8171C47.5619 65.7621 47.5911 65.7027 47.6126 65.6403C47.6595 65.5059 47.6822 65.3643 47.6798 65.222C47.6804 65.079 47.6543 64.9371 47.6026 64.8037C47.5511 64.6783 47.4768 64.5635 47.3835 64.4651M47.2167 65.3365C47.2028 65.519 47.1333 65.6928 47.0175 65.8345C46.9067 65.9694 46.7496 66.0582 46.5768 66.0835L46.4199 66.1009C46.3054 66.0974 46.1938 66.0639 46.0963 66.0038C46.0628 65.9683 46.0378 65.9256 46.0231 65.879C46.0085 65.8325 46.0045 65.7832 46.0116 65.7349V64.358H46.3104H46.4125L46.5096 64.3729L46.5992 64.3929L46.6789 64.4178C46.7867 64.4577 46.8851 64.5196 46.9677 64.5995C47.0476 64.6755 47.1097 64.7682 47.1495 64.8709C47.1921 64.9813 47.2132 65.0987 47.2117 65.217L47.2167 65.3365Z" fill="white"/>
<path d="M48.1879 63.3579C48.1316 63.4215 48.1022 63.5045 48.1058 63.5894C48.1047 63.6284 48.1115 63.6672 48.1256 63.7035C48.1397 63.7399 48.1609 63.773 48.1879 63.8011C48.2139 63.8283 48.2452 63.8498 48.2799 63.8644C48.3146 63.879 48.352 63.8862 48.3896 63.8857C48.4599 63.8846 48.5277 63.8591 48.5813 63.8135C48.6149 63.7874 48.6413 63.7531 48.6579 63.7138C48.6744 63.6746 48.6806 63.6318 48.6759 63.5894C48.6784 63.5463 48.6722 63.5032 48.6577 63.4626C48.6432 63.4219 48.6206 63.3846 48.5913 63.3529C48.5654 63.3254 48.5342 63.3034 48.4995 63.2884C48.4648 63.2734 48.4274 63.2657 48.3896 63.2658C48.3512 63.2645 48.3129 63.2722 48.2779 63.2881C48.2429 63.3041 48.2121 63.328 48.1879 63.3579Z" fill="white"/>
<path d="M48.6091 65.8278V64.1621L47.9219 64.2219V64.2592C47.9719 64.2692 48.0211 64.2833 48.0688 64.3015C48.1091 64.335 48.1379 64.3803 48.1509 64.431C48.1759 64.5311 48.1868 64.6342 48.1833 64.7373V65.7457C48.186 65.843 48.1751 65.9402 48.1509 66.0345C48.1398 66.0888 48.1109 66.1379 48.0688 66.1739L48.0015 66.2063C47.9752 66.2106 47.9483 66.2106 47.9219 66.2063V66.2511H48.868V66.2063C48.6962 66.2063 48.619 66.0768 48.619 65.8179" fill="white"/>
<path d="M50.2529 65.9814C50.2101 66.0009 50.166 66.0175 50.121 66.0312C50.0806 66.0435 50.0387 66.0502 49.9965 66.0512C49.9556 66.0539 49.9146 66.0464 49.8772 66.0295C49.8399 66.0125 49.8073 65.9866 49.7824 65.9541C49.7258 65.8735 49.6986 65.7759 49.7052 65.6777V64.3879H50.0463C50.0965 64.3837 50.1466 64.3969 50.1882 64.4253L50.3102 64.129C50.2851 64.1547 50.2548 64.1747 50.2213 64.1876C50.1877 64.2005 50.1518 64.206 50.116 64.2037H49.6977V63.4219L49.3168 63.5962C49.3268 63.6285 49.3327 63.662 49.3342 63.6958V63.7879C49.3366 63.9137 49.3066 64.0381 49.247 64.1489C49.2222 64.1975 49.1871 64.2401 49.1441 64.2736C49.1011 64.3072 49.0512 64.3309 48.998 64.3431V64.3879H49.2694V65.7325C49.2622 65.8806 49.3004 66.0274 49.379 66.1532C49.4284 66.2094 49.4906 66.2528 49.5604 66.2797C49.6303 66.3066 49.7055 66.3162 49.7799 66.3076C49.954 66.3022 50.1266 66.2729 50.2928 66.2205L50.4422 65.8719H50.4173C50.3788 65.9305 50.3232 65.9757 50.2579 66.0014" fill="white"/>
<path d="M52.5672 66.0289C52.5295 65.9279 52.5134 65.8202 52.5199 65.7127V64.8064C52.5223 64.687 52.5072 64.5678 52.475 64.4528C52.4433 64.3465 52.3708 64.257 52.2734 64.2038C52.1266 64.1317 51.9635 64.0991 51.8003 64.1092C51.6773 64.1075 51.5544 64.12 51.4343 64.1466L51.2849 64.1839L51.1355 64.2337L51.0558 64.2636L50.9961 64.2835C50.9737 64.2852 50.9512 64.2852 50.9288 64.2835C50.8806 64.2819 50.8339 64.2663 50.7944 64.2387L50.7272 64.9358C50.8026 64.7661 50.9254 64.6218 51.0807 64.52C51.1202 64.4955 51.1609 64.473 51.2027 64.4528C51.2405 64.4334 51.2796 64.4167 51.3198 64.403L51.4393 64.3731C51.4791 64.3704 51.519 64.3704 51.5588 64.3731C51.6212 64.3731 51.6836 64.3772 51.7455 64.3856C51.7905 64.392 51.8347 64.4028 51.8775 64.418C51.9113 64.4319 51.942 64.4525 51.9677 64.4786C51.9934 64.5047 52.0135 64.5358 52.0269 64.5698C52.0557 64.6701 52.0684 64.7743 52.0642 64.8786C51.9148 64.911 51.7829 64.9408 51.6683 64.9707C51.5538 65.0006 51.4542 65.028 51.3671 65.0579C51.2188 65.1024 51.0766 65.1651 50.9438 65.2446C50.8324 65.3138 50.7366 65.4053 50.6624 65.5135C50.6021 65.6033 50.5701 65.7091 50.5703 65.8173C50.5773 65.894 50.5975 65.969 50.6301 66.0389C50.6847 66.1345 50.7738 66.2057 50.8791 66.238C51.0009 66.2868 51.1313 66.3105 51.2625 66.3078C51.4344 66.3074 51.6043 66.27 51.7605 66.1982C51.908 66.1373 52.0307 66.0285 52.109 65.8895C52.1095 65.9541 52.1213 66.0181 52.1439 66.0787C52.1719 66.1474 52.2078 66.2125 52.251 66.2729H52.8361V66.2281C52.7836 66.2164 52.7327 66.1989 52.6842 66.1758C52.6357 66.1429 52.5984 66.096 52.5771 66.0413M51.9273 65.8272C51.8734 65.9059 51.8018 65.9707 51.7181 66.0164C51.63 66.0602 51.5327 66.0824 51.4343 66.0812C51.3424 66.0854 51.2524 66.0542 51.1829 65.994C51.1134 65.9337 51.0697 65.8491 51.0608 65.7575C51.061 65.6794 51.0863 65.6035 51.133 65.5409C51.1875 65.4621 51.2548 65.3931 51.3322 65.3367C51.5559 65.1855 51.8116 65.0884 52.0792 65.0529C52.0996 65.3197 52.048 65.5871 51.9298 65.8272" fill="white"/>
<path d="M53.6203 65.8414V63.3516L52.9355 63.4686V63.491C52.9765 63.4872 53.0177 63.4958 53.0537 63.5158C53.0897 63.5358 53.1188 63.5662 53.1372 63.603C53.1778 63.6885 53.1974 63.7824 53.1945 63.8769V65.8339C53.1996 65.9312 53.1724 66.0275 53.1173 66.1078C53.0973 66.1378 53.0703 66.1626 53.0386 66.1799C53.007 66.1972 52.9716 66.2067 52.9355 66.2074V66.2522H53.8792V66.2074C53.8434 66.2079 53.8079 66.1998 53.7759 66.1838C53.7438 66.1678 53.7161 66.1443 53.695 66.1153C53.6389 66.0327 53.6126 65.9335 53.6203 65.8339" fill="white"/>
<path d="M54.8102 65.8278V64.1621L54.123 64.2219V64.2592C54.1723 64.269 54.2207 64.2832 54.2675 64.3015C54.3097 64.3332 54.3389 64.3793 54.3496 64.431C54.3758 64.5309 54.3867 64.6341 54.382 64.7373V65.7457C54.3853 65.8428 54.3752 65.94 54.3521 66.0345C54.3387 66.0885 54.3092 66.1371 54.2675 66.1739C54.2467 66.1862 54.225 66.197 54.2027 66.2063C54.1763 66.2106 54.1494 66.2106 54.123 66.2063V66.2511H55.0692V66.2063C54.8949 66.2063 54.8202 66.0768 54.8202 65.8179" fill="white"/>
<path d="M54.7752 63.8135C54.8078 63.7865 54.8334 63.752 54.8499 63.713C54.8663 63.674 54.8732 63.6316 54.8698 63.5894C54.8726 63.5461 54.8663 63.5027 54.8513 63.462C54.8363 63.4212 54.8129 63.3841 54.7827 63.3529C54.7568 63.3254 54.7256 63.3034 54.6909 63.2884C54.6562 63.2734 54.6188 63.2657 54.581 63.2658C54.5426 63.2645 54.5043 63.2722 54.4694 63.2881C54.4344 63.3041 54.4035 63.328 54.3793 63.3579C54.323 63.4215 54.2936 63.5045 54.2972 63.5894C54.296 63.6286 54.303 63.6676 54.3175 63.704C54.3321 63.7405 54.354 63.7735 54.3818 63.8011C54.4073 63.8283 54.4381 63.85 54.4724 63.8645C54.5067 63.8791 54.5437 63.8863 54.581 63.8857C54.6521 63.8844 54.7205 63.8589 54.7752 63.8135Z" fill="white"/>
<path d="M56.6099 65.8594C56.5731 65.9186 56.5181 65.964 56.453 65.9889C56.4093 66.0084 56.3644 66.025 56.3186 66.0387C56.279 66.051 56.238 66.0577 56.1966 66.0586C56.1552 66.0618 56.1138 66.0545 56.0759 66.0376C56.0381 66.0206 56.0051 65.9945 55.98 65.9615C55.9253 65.8801 55.8991 65.783 55.9053 65.6852V64.3879H56.2538C56.304 64.3837 56.3542 64.3969 56.3958 64.4253L56.5178 64.129C56.4926 64.1555 56.462 64.1761 56.428 64.1895C56.394 64.2028 56.3575 64.2085 56.3211 64.2062H55.9053V63.4219L55.5243 63.5962C55.5329 63.628 55.5387 63.6605 55.5417 63.6933V63.7879C55.5444 63.914 55.5134 64.0386 55.4521 64.1489C55.4273 64.1975 55.3922 64.2401 55.3492 64.2736C55.3061 64.3072 55.2563 64.3309 55.2031 64.3431V64.3879H55.4745V65.7325C55.4659 65.8807 55.5043 66.028 55.5841 66.1532C55.6329 66.2094 55.6947 66.2528 55.7642 66.2797C55.8336 66.3066 55.9085 66.3162 55.9824 66.3076C56.1574 66.3022 56.3308 66.2729 56.4978 66.2205L56.6472 65.8719L56.6099 65.8594Z" fill="white"/>
<path d="M58.1696 64.2036C58.2667 64.2036 58.3165 64.2484 58.3165 64.3355C58.3146 64.3864 58.3054 64.4367 58.2891 64.4849L57.8211 65.7298L57.3505 64.4575C57.3346 64.4208 57.3229 64.3824 57.3156 64.343C57.3152 64.3237 57.3188 64.3045 57.3263 64.2868C57.3338 64.269 57.345 64.253 57.3591 64.2398C57.3732 64.2266 57.3899 64.2166 57.4082 64.2104C57.4264 64.2041 57.4458 64.2018 57.465 64.2036V64.1612H56.611V64.2036C56.7056 64.2036 56.7903 64.2882 56.86 64.4525L57.4376 65.9141C57.49 66.044 57.5187 66.1823 57.5223 66.3224C57.5225 66.4537 57.4854 66.5824 57.4152 66.6934C57.3865 66.7453 57.3442 66.7884 57.2929 66.8182C57.2416 66.848 57.1832 66.8634 57.1239 66.8627C57.0915 66.8629 57.0595 66.8559 57.0302 66.8421C57.0009 66.8283 56.9751 66.8081 56.9546 66.783C56.9082 66.7216 56.8853 66.6457 56.8899 66.5689V66.4544L56.8525 66.4369L56.6035 67.0096C56.7353 67.1036 56.8923 67.1557 57.0542 67.159C57.202 67.1597 57.3448 67.1056 57.455 67.0071C57.5843 66.8876 57.6804 66.7366 57.7339 66.5689L58.5356 64.4725C58.6078 64.3031 58.7025 64.2235 58.8195 64.1986V64.1562H58.1622L58.1696 64.2036Z" fill="white"/>
<path d="M35.357 65.9163C35.2873 65.8068 35.2151 65.6997 35.1379 65.6001C35.0539 65.4948 34.9596 65.398 34.8565 65.3113C34.8998 65.15 34.8902 64.9791 34.8293 64.8236C34.7683 64.6682 34.6592 64.5363 34.5179 64.4473C34.5326 64.4671 34.5459 64.4879 34.5578 64.5096C34.6278 64.6661 34.6626 64.8361 34.6598 65.0075V65.1221L33.7984 64.4498C33.8955 64.4369 33.9893 64.4057 34.0747 64.3577C34.1534 64.3231 34.2195 64.2651 34.2641 64.1916C34.3086 64.1181 34.3294 64.0326 34.3237 63.9468C34.3242 63.8715 34.3062 63.7971 34.2714 63.7302C34.2384 63.6632 34.1908 63.6045 34.132 63.5584C34.0629 63.5059 33.9855 63.4655 33.9029 63.4389C33.8043 63.4099 33.702 63.3956 33.5992 63.3966C33.5368 63.3954 33.4747 63.4038 33.4149 63.4215C33.3542 63.4376 33.2957 63.461 33.2406 63.4912C33.1364 63.5422 33.0465 63.6183 32.9792 63.7128C32.9202 63.7958 32.888 63.8948 32.8871 63.9966C32.8872 64.0986 32.9175 64.1983 32.9742 64.283C33.0406 64.3811 33.1251 64.4656 33.2232 64.532C33.0809 64.5619 32.9467 64.6222 32.8298 64.7087C32.7197 64.7915 32.6295 64.8979 32.5659 65.02C32.5356 65.0796 32.5114 65.1422 32.4937 65.2067C32.4767 65.2709 32.4683 65.337 32.4688 65.4034C32.4688 65.4884 32.484 65.5727 32.5136 65.6524C32.5432 65.7339 32.5852 65.8103 32.6381 65.879C32.7427 66.0199 32.8827 66.1307 33.0439 66.2002C33.2061 66.2757 33.3829 66.3148 33.5618 66.3147C33.7168 66.3133 33.8706 66.2873 34.0175 66.2375C34.1626 66.189 34.2982 66.1157 34.4183 66.0209C34.5283 65.935 34.6205 65.8284 34.6897 65.7072L34.8067 65.8541C34.8466 65.9065 34.8692 65.97 34.8715 66.0358C34.8715 66.1379 34.8092 66.1952 34.6897 66.2101V66.2549H35.6608V66.2101C35.6339 66.2096 35.6075 66.2036 35.5831 66.1924C35.5587 66.1813 35.5368 66.1653 35.5188 66.1454C35.4581 66.0717 35.4032 65.9935 35.3545 65.9113M33.3054 63.7651C33.3253 63.7299 33.3514 63.6987 33.3825 63.673C33.4138 63.6467 33.4491 63.6257 33.4871 63.6107C33.5299 63.5978 33.5744 63.5919 33.6191 63.5933C33.7217 63.5863 33.8229 63.6204 33.9004 63.6879C33.9339 63.7199 33.9601 63.7586 33.9772 63.8016C33.9944 63.8445 34.0022 63.8907 34 63.9369C33.998 64.0266 33.9684 64.1135 33.9154 64.1859C33.8523 64.2716 33.7659 64.3373 33.6664 64.3751C33.5525 64.313 33.4526 64.2282 33.3726 64.1261C33.34 64.0874 33.314 64.0437 33.2954 63.9966C33.2783 63.9582 33.269 63.9167 33.268 63.8746C33.2679 63.8348 33.2772 63.7955 33.2954 63.7601M34.2017 65.8815C34.1376 65.9229 34.0691 65.9571 33.9975 65.9836C33.9284 66.0118 33.8567 66.0335 33.7834 66.0483C33.7368 66.0587 33.6892 66.0637 33.6415 66.0632C33.51 66.0648 33.3813 66.0256 33.273 65.9512C33.1671 65.8795 33.0813 65.7817 33.024 65.6673C32.995 65.6091 32.9716 65.5483 32.9543 65.4856C32.9373 65.4231 32.9289 65.3586 32.9294 65.2939C32.9299 65.2257 32.9391 65.158 32.9568 65.0922C32.9774 65.0256 33.0049 64.9613 33.0389 64.9005C33.1128 64.7787 33.2187 64.6796 33.3452 64.6141L34.5129 65.5453C34.4406 65.6829 34.3333 65.7988 34.2017 65.8815Z" fill="white"/>
</g>
<defs>
<clipPath id="clip0_536_430">
<rect width="73" height="73" fill="white"/>
</clipPath>
</defs>
</svg>
