<svg width="75" height="96" viewBox="0 0 75 96" fill="none" xmlns="http://www.w3.org/2000/svg">
<g clip-path="url(#clip0_929_1179)">
<path d="M62.5903 2.15234H11.5625V48.6392H62.5903V2.15234Z" fill="#FEED01"/>
<path d="M11.2559 23.5397C11.2559 49.1575 11.2435 48.4524 11.9486 51.1861C12.4557 53.1405 13.569 55.2063 14.707 56.2825C15.7461 57.272 17.1315 58.0885 18.6901 58.6204C20.4342 59.2265 21.9928 59.4986 26.9036 60.0552C28.8828 60.2903 30.6888 60.6119 32.0371 60.983C33.4225 61.3664 35.5501 62.4674 36.4407 63.259C37.1953 63.9394 37.2077 63.9394 37.4303 63.692C37.888 63.1848 39.3353 62.2076 40.263 61.7746C42.1927 60.884 43.8255 60.5129 47.8704 60.0552C53.3997 59.4244 55.0201 59.0657 57.0735 58.0513C58.2858 57.4576 58.8424 57.037 59.7701 56.0598C61.4648 54.2538 62.3554 52.151 62.9244 48.6132C63.1347 47.2773 63.1471 45.8547 63.1471 23.6263V0.0618489L37.2077 0.0247392L11.2559 0V23.5397ZM40.5722 9.51235C43.306 10.3906 45.7923 12.444 47.1035 14.8561C48.5631 17.5527 48.8971 21.0781 47.9446 23.7376C47.8645 23.924 47.8064 24.1191 47.7714 24.319C47.7962 24.3313 48.1178 24.4179 48.4889 24.5045C48.9837 24.6158 51.0247 24.6777 55.886 24.7024L62.5904 24.7395V31.3697C62.5904 37.666 62.5781 37.9999 62.3801 37.8391C62.2572 37.7441 62.1488 37.6316 62.0585 37.5052C62.0322 37.4661 61.9932 37.4375 61.9481 37.4239C61.903 37.4104 61.8546 37.4129 61.8111 37.4309C61.7245 37.4804 61.6998 37.468 61.7617 37.4186C61.8853 37.2825 60.9824 36.3548 60.8216 36.4537C60.7473 36.4908 60.735 36.4785 60.7721 36.4042C60.7189 36.5997 57.1465 37.2627 58.073 34.7776C57.9988 34.8271 57.8182 34.6403 57.8677 34.5537C57.9666 34.3929 57.812 34.5376 57.6203 34.649C57.546 34.6861 57.859 34.1406 57.9085 34.0787C57.958 34.0169 57.3024 34.4374 57.6116 33.6953C57.4013 33.5345 57.2158 33.4108 57.2034 33.4355C57.191 33.4602 57.2405 33.8932 57.3024 34.4374C57.5497 36.2682 57.0673 38.7916 56.1396 40.5729C54.6181 43.4921 52.1318 45.496 48.8538 46.4485C47.6045 46.8196 44.5739 46.7825 43.2256 46.399C42.8117 46.2703 42.3903 46.167 41.9638 46.0898C41.8154 46.0898 41.7288 46.0527 41.7535 46.0279C41.7783 46.0032 41.3453 45.731 40.8011 45.4342C39.6383 44.8157 38.4508 43.9003 37.721 43.0839L37.2138 42.5025L36.3603 43.3561C35.8903 43.8261 35.5439 44.259 35.581 44.3209C35.6181 44.3827 35.5934 44.4075 35.5068 44.358C35.4202 44.3085 35.1976 44.4075 34.9749 44.593C34.6038 44.9146 32.8226 45.929 32.5875 45.9661C32.5257 45.9784 32.1051 46.1021 31.6598 46.2506C29.1116 47.0917 25.7718 46.8443 23.3473 45.6445C22.9391 45.4342 22.5433 45.3105 22.4691 45.36C22.3949 45.4094 22.3825 45.3723 22.432 45.2981C22.4814 45.2239 22.3083 45.0507 22.0485 44.8899C21.7887 44.7291 21.2816 44.3456 20.8857 44.024C20.4899 43.7024 20.1436 43.4674 20.0941 43.5169C20.0446 43.5663 20.0322 43.5292 20.0817 43.4426C20.193 43.2571 19.5498 42.5273 19.3766 42.6386C19.3024 42.6881 19.29 42.651 19.3519 42.552C19.3778 42.5176 19.3907 42.4752 19.3885 42.4323C19.3862 42.3893 19.3689 42.3485 19.3395 42.317C19.2282 42.2428 18.8571 41.6861 18.3747 40.9068C18.1149 40.4739 17.4717 38.8163 17.2861 38.0989C17.2119 37.7897 17.113 36.6887 17.0758 35.6497L17.0016 33.7695L15.709 34.7467C14.9915 35.291 14.1009 36.0084 13.7298 36.3548C13.3587 36.7011 13.0248 36.9856 12.9876 36.9856C12.9505 36.9856 12.7031 37.2083 12.4434 37.4804C12.1836 37.7525 11.9238 37.9752 11.862 37.9752C11.8001 37.9752 11.763 35.3652 11.7754 31.3821L11.8125 24.8014L18.4303 24.7395C25.679 24.6653 26.6933 24.5787 26.5325 24.0716C25.7656 21.4739 25.7161 19.4577 26.347 17.1445C27.2376 13.916 29.7487 11.1328 32.9401 9.8216C34.5358 9.166 35.3893 9.02993 37.4798 9.07941C39.2239 9.11652 39.5084 9.15363 40.5722 9.51235Z" fill="#134B7E"/>
<path d="M62.589 0.525391H11.7715V24.7405H62.589V0.525391Z" fill="#01923F"/>
<path d="M57.2102 33.4355C57.2102 33.4355 61.5124 36.6727 62.4438 37.8664L62.4945 37.9307C62.9115 38.4649 63.1352 39.1246 63.1291 39.8023L63.0636 46.9075C63.0636 46.9075 63.0462 49.0833 62.4537 50.9227L62.3152 51.4348L62.1606 51.9358L61.9725 52.485L61.5421 53.4968L61.2675 54.0263C61.2675 54.0263 60.8197 54.7573 60.7652 54.8353C60.7108 54.9132 60.4894 55.2237 60.3595 55.3832C60.2296 55.5428 59.2611 56.5967 59.0087 56.812C58.7049 57.085 58.376 57.3289 58.0266 57.5405C57.6159 57.7755 56.8218 58.1751 56.8218 58.1751C56.8218 58.1751 55.3374 58.7862 55.0504 58.869C54.7634 58.9519 54.1759 59.1065 54.1759 59.1065L51.6821 59.5704L47.871 60.0553L46.0155 60.2829C46.0155 60.2829 43.7618 60.6107 42.9887 60.8198C42.2155 61.0288 41.5995 61.228 41.5995 61.228L40.7658 61.552L40.1584 61.8242L39.7181 62.0567L38.9363 62.5293L38.1261 63.0921L37.6412 63.4854L37.2936 63.8207C37.2936 63.8207 37.2045 63.8949 37.0462 63.7749C36.8879 63.6549 36.6751 63.4718 36.6751 63.4718L36.1531 63.0265L35.7758 62.7581L35.5173 62.5911L35.3083 62.4674L34.0812 61.8019L33.24 61.4197C32.8845 61.2545 32.5153 61.1204 32.1366 61.0189C31.5182 60.8569 29.3609 60.4153 29.3609 60.4153L28.2179 60.2347L25.405 59.8895L22.2656 59.4653C22.2656 59.4653 20.5227 59.1709 19.8807 58.9866C19.2387 58.8022 17.6888 58.258 17.2051 57.997C16.7214 57.736 16.2341 57.5492 15.5451 56.9839C14.8561 56.4186 14.1968 55.8026 13.8282 55.2521C13.5415 54.8349 13.2768 54.403 13.0352 53.9582C12.8757 53.6465 12.4366 52.6656 12.4366 52.6656L12.0036 51.3927L11.7847 50.5516C11.7847 50.5516 11.7129 50.2634 11.6808 50.11C11.5672 49.5775 11.4916 49.0377 11.4544 48.4945C11.4 47.6855 11.3579 46.6811 11.3579 46.6811L11.2874 42.8737L11.2676 39.2951C11.2663 39.0767 11.3095 38.8603 11.3945 38.6591C11.4796 38.4579 11.6048 38.2762 11.7624 38.1249C11.8997 38.0012 12.0667 37.8367 12.2671 37.6499C12.9833 36.982 15.3397 35.0226 15.3397 35.0226L17.0084 33.7695C17.0084 33.7695 17.1222 37.1725 17.2335 37.7279C17.3449 38.2833 17.1779 37.9085 17.5292 38.8498C17.8805 39.7911 17.5725 39.4992 18.212 40.5816C18.8515 41.6639 18.6907 41.4672 19.3908 42.3987C20.091 43.3301 22.2755 45.0557 22.2755 45.0557L23.171 45.5629L24.8929 46.2531C24.8929 46.2531 26.0767 46.6019 26.9451 46.6712C27.8134 46.7405 29.4784 46.8753 30.7723 46.5017C32.0661 46.1282 32.77 45.9315 33.2586 45.6606C33.7472 45.3897 35.2538 44.4075 35.2538 44.4075L37.2206 42.5026C37.2206 42.5026 38.9808 44.7044 40.9316 45.5023C42.0209 45.9584 43.1458 46.3246 44.2949 46.597L45.8473 46.7034C45.8473 46.7034 47.9316 46.7751 48.9843 46.4114C50.0369 46.0478 50.8892 45.6767 50.8892 45.6767C50.8892 45.6767 53.8864 44.1243 55.0158 42.348C56.1451 40.5717 57.1879 39.1195 57.2646 36.93C57.318 35.7652 57.2998 34.5982 57.2102 33.4355Z" fill="#018DD2"/>
<path d="M46.5982 47.5246C52.8225 47.5246 57.8683 42.4788 57.8683 36.2545C57.8683 30.0302 52.8225 24.9844 46.5982 24.9844C40.3739 24.9844 35.3281 30.0302 35.3281 36.2545C35.3281 42.4788 40.3739 47.5246 46.5982 47.5246Z" fill="#71BE8B"/>
<path d="M27.9791 47.5246C34.2034 47.5246 39.2492 42.4788 39.2492 36.2545C39.2492 30.0302 34.2034 24.9844 27.9791 24.9844C21.7548 24.9844 16.709 30.0302 16.709 36.2545C16.709 42.4788 21.7548 47.5246 27.9791 47.5246Z" fill="#89CDD9"/>
<path d="M37.3795 31.9386C43.6038 31.9386 48.6496 26.8928 48.6496 20.6685C48.6496 14.4442 43.6038 9.39844 37.3795 9.39844C31.1552 9.39844 26.1094 14.4442 26.1094 20.6685C26.1094 26.8928 31.1552 31.9386 37.3795 31.9386Z" fill="#FDE477"/>
<path d="M46.5885 47.5246C52.8128 47.5246 57.8586 42.4788 57.8586 36.2545C57.8586 30.0302 52.8128 24.9844 46.5885 24.9844C40.3642 24.9844 35.3184 30.0302 35.3184 36.2545C35.3184 42.4788 40.3642 47.5246 46.5885 47.5246Z" fill="#71BE8B"/>
<path d="M27.9693 47.5246C34.1936 47.5246 39.2394 42.4788 39.2394 36.2545C39.2394 30.0302 34.1936 24.9844 27.9693 24.9844C21.745 24.9844 16.6992 30.0302 16.6992 36.2545C16.6992 42.4788 21.745 47.5246 27.9693 47.5246Z" fill="#89CDD9"/>
<path d="M37.3736 31.9406C43.5979 31.9406 48.6437 26.8948 48.6437 20.6705C48.6437 14.4462 43.5979 9.40039 37.3736 9.40039C31.1493 9.40039 26.1035 14.4462 26.1035 20.6705C26.1035 26.8948 31.1493 31.9406 37.3736 31.9406Z" fill="#FDE477"/>
<path d="M35.7494 16.897C34.599 17.2063 34.1908 17.231 32.6569 17.0455C32.4219 17.0207 32.36 17.0578 32.4095 17.1939C32.5456 17.6021 32.4714 19.7792 32.3106 19.94C32.2116 20.039 32.1621 20.5585 32.1621 21.6099C32.1621 23.2427 32.1498 23.2056 32.8177 23.1438C32.9785 23.119 33.028 23.2056 33.028 23.4901C33.028 23.9107 33.3125 24.0591 33.8939 23.9478C34.0671 23.9231 34.2402 23.886 34.3021 23.886C34.3639 23.886 34.3887 23.7004 34.3887 23.5025V23.1314L37.1966 23.1561L40.0169 23.1933L40.0788 23.5643C40.1406 23.9107 40.1777 23.9354 40.6973 23.9354C41.2168 23.9354 41.2539 23.9107 41.3158 23.5643C41.3652 23.2551 41.4518 23.1809 41.8105 23.1314L42.2435 23.0696L42.2806 21.6594C42.3053 20.509 42.2806 20.2121 42.1198 20.039C41.8848 19.7792 41.7982 18.0227 41.9837 17.33C42.0951 16.9094 42.0951 16.9094 41.7363 16.996C40.7592 17.2316 39.7386 17.2188 38.7676 16.9589C37.3822 16.5507 37.0358 16.5507 35.7494 16.897ZM38.7305 17.3918C39.584 17.6516 39.918 17.6887 40.6107 17.6392L41.4395 17.565V18.4556C41.4333 18.8487 41.4581 19.2416 41.5137 19.6308C41.5755 19.8782 41.5384 19.9153 41.2787 19.9153C41.0189 19.9153 40.957 19.841 40.9199 19.5689L40.8828 19.2349H37.5553L37.4811 19.5442C37.3945 19.9153 36.9863 20.0513 36.9863 19.705C36.9863 19.2349 36.7513 19.1731 35.1061 19.1731H33.5228L33.4486 19.5442C33.3867 19.8287 33.3001 19.9153 33.0899 19.9153C32.8301 19.9153 32.8177 19.8905 32.9291 19.1978C32.9895 18.8175 33.0102 18.432 32.9909 18.0474L32.9291 17.6021H34.0052C34.6171 17.6111 35.2266 17.5235 35.8112 17.3424C36.8132 16.996 37.4811 17.0084 38.7305 17.3918ZM36.4915 19.7297C36.4915 19.8782 36.2689 19.9153 35.1927 19.9153C34.1165 19.9153 33.8939 19.8782 33.8939 19.7297C33.8939 19.5813 34.1165 19.5442 35.1927 19.5442C36.2689 19.5442 36.4915 19.5813 36.4915 19.7297ZM40.5736 19.7297C40.5736 19.8782 40.3385 19.9153 39.2129 19.9153C38.0872 19.9153 37.8522 19.8782 37.8522 19.7297C37.8522 19.5813 38.0872 19.5442 39.2129 19.5442C40.3385 19.5442 40.5736 19.5813 40.5736 19.7297ZM41.5384 21.5481L41.5755 22.3892H37.2461C34.5248 22.3892 32.9043 22.3397 32.8796 22.2655C32.8548 22.1913 32.8672 21.8078 32.8796 21.3996L32.9291 20.6698L37.209 20.6946L41.5013 20.7193L41.5384 21.5481ZM33.8939 23.317C33.8939 23.3536 33.883 23.3895 33.8626 23.42C33.8422 23.4505 33.8133 23.4743 33.7794 23.4884C33.7454 23.5024 33.7081 23.5061 33.6721 23.4989C33.6362 23.4918 33.6031 23.4741 33.5771 23.4482C33.5512 23.4222 33.5335 23.3891 33.5264 23.3532C33.5192 23.3172 33.5229 23.2798 33.5369 23.2459C33.551 23.212 33.5748 23.1831 33.6053 23.1627C33.6358 23.1423 33.6716 23.1314 33.7083 23.1314C33.7572 23.1327 33.8036 23.1526 33.8382 23.1871C33.8727 23.2217 33.8926 23.2681 33.8939 23.317ZM40.9199 23.3541C40.9447 23.4406 40.8457 23.5025 40.7096 23.5025C40.4499 23.5025 40.3757 23.3664 40.5365 23.2056C40.6478 23.0943 40.8581 23.1809 40.9199 23.3541Z" fill="#134B7E"/>
<path d="M27.672 30.1577C27.5352 30.33 27.461 30.5438 27.4617 30.7638C27.4617 31.0978 27.3999 31.1597 26.8804 31.3576C25.2104 31.9884 24.0848 33.3986 23.9116 35.0685C23.8374 35.7241 23.8498 35.7489 24.1343 35.7489C28.5255 35.786 32.6076 35.7241 32.6942 35.6375C32.855 35.4767 32.5581 34.1903 32.2117 33.5223C31.6807 32.5075 30.7827 31.7333 29.7007 31.3576C29.1564 31.1844 29.1193 31.1473 29.1193 30.7267C29.1193 30.4298 29.0451 30.2196 28.8843 30.1082C28.5503 29.8608 27.9071 29.8979 27.672 30.1577ZM28.6987 30.7267C28.6791 30.8533 28.6129 30.968 28.5132 31.0483C28.1668 31.3328 27.771 30.7886 28.105 30.4546C28.2781 30.2814 28.6987 30.4793 28.6987 30.7267ZM29.4409 31.8029C30.047 31.9513 30.95 32.5451 31.3335 33.0522C31.7664 33.6089 32.1623 34.4995 32.1623 34.9077V35.2541H24.3446L24.4311 34.7964C24.7157 33.2502 26.1505 31.9019 27.7462 31.6668C28.3895 31.5802 28.6369 31.5926 29.4409 31.8029Z" fill="#134B7E"/>
<path d="M45.138 30.0205C45.1093 30.3413 45.0969 30.6634 45.1009 30.9854C45.0883 31.4525 45.0261 31.9169 44.9153 32.3708C44.7422 32.9398 44.804 33.583 45.0761 33.9665C45.3483 34.35 45.5709 34.0407 45.4225 33.4841C45.35 33.1754 45.3458 32.8545 45.4101 32.544C45.472 32.2718 45.5709 31.8265 45.6204 31.5668C45.7441 31.0349 45.5462 30.0453 45.3112 29.9587C45.2246 29.934 45.138 29.9587 45.138 30.0205Z" fill="#134B7E"/>
<path d="M45.7568 32.2728C45.5836 32.8542 45.6949 33.8067 45.9671 34.0293C46.2392 34.252 46.3876 33.9675 46.2268 33.4356C46.1275 33.1301 46.1275 32.801 46.2268 32.4955C46.301 32.211 46.3382 31.9388 46.3134 31.8893C46.165 31.642 45.8928 31.8399 45.7568 32.2728Z" fill="#134B7E"/>
<path d="M43.7409 34.4635C43.5924 34.5996 43.543 34.8965 43.543 35.5026C43.543 36.8262 43.7409 37.5065 44.2975 38.1497C44.9655 38.9043 45.6087 39.1393 46.8704 39.0651C48.0208 39.0032 48.6393 38.6693 49.1836 37.8529C49.4681 37.4199 49.5794 37.3581 49.9753 37.3581C50.8659 37.3581 51.5338 36.4056 51.2122 35.6139C51.0019 35.1315 50.5195 34.7604 50.0866 34.7604C49.8623 34.7491 49.6486 34.6619 49.4805 34.513C49.2454 34.278 49.0723 34.2656 46.5859 34.2656C44.3346 34.2656 43.9017 34.2904 43.7409 34.4635ZM48.7506 35.2799C48.8743 36.5911 48.763 37.0983 48.2558 37.6426C47.7734 38.1497 47.7611 38.1621 46.7715 38.1992C45.5716 38.2611 45.0644 38.0137 44.6686 37.1849C44.4212 36.6777 44.3099 35.4036 44.4954 35.2181C44.5326 35.1686 45.5098 35.1315 46.6602 35.1315C48.2311 35.1315 48.7383 35.1686 48.7506 35.2799ZM50.4948 35.4655C50.8411 35.8613 50.8659 36.1829 50.5814 36.5293C50.5131 36.631 50.4211 36.7145 50.3134 36.7727C50.2056 36.8309 50.0853 36.862 49.9629 36.8633H49.6042V36.0592C49.6042 35.2552 49.6042 35.2552 49.9505 35.2552C50.1513 35.2577 50.3445 35.3323 50.4948 35.4655Z" fill="#134B7E"/>
<path d="M23.0339 36.3297C22.7865 36.7997 22.9721 36.8616 24.5307 36.8616H26.0398V37.6409C26.0398 38.5439 25.879 38.8902 25.3594 39.0634C24.9018 39.2242 24.8523 39.5829 25.2976 39.5829C25.4831 39.5829 25.8047 39.4098 26.0769 39.1624C26.5222 38.7542 26.5346 38.7047 26.5098 37.9872C26.4851 37.4059 26.5222 37.2327 26.6459 37.2327C26.8933 37.2327 27.1159 37.9996 27.0294 38.5068C26.9428 39.0139 27.1654 39.2489 27.6726 39.1624C27.8981 39.1295 28.1252 39.1088 28.3529 39.1005C28.5632 39.0881 29.1322 38.7542 29.9363 38.148C30.6166 37.6285 31.2103 37.2327 31.2598 37.2698C31.3835 37.4059 28.9467 39.8798 28.5385 40.0406C27.8815 40.1954 27.2167 40.3151 26.5469 40.3993C25.4831 40.5478 24.9389 40.6715 24.9018 40.7828C24.883 40.8214 24.8733 40.8637 24.8733 40.9065C24.8733 40.9494 24.883 40.9916 24.9018 41.0302C24.9883 41.1044 27.9076 40.7333 28.5756 40.5602C28.8972 40.4859 29.3549 40.1025 30.2702 39.1871C31.5567 37.8635 31.8288 37.5048 31.767 37.1337C31.7299 36.9605 31.8659 36.9111 32.6576 36.8616C33.5482 36.7997 33.5853 36.7874 33.5853 36.4905V36.1812L28.3653 36.1441C23.4916 36.1194 23.1329 36.1318 23.0339 36.3297ZM30.53 36.9729C30.5176 37.0348 30.0599 37.4306 29.5157 37.8388C28.6745 38.482 28.4642 38.5934 28.0189 38.5934H27.4994V38.0491C27.4956 37.7786 27.4453 37.5109 27.351 37.2574C27.3182 37.2114 27.2967 37.1583 27.2881 37.1025C27.2795 37.0466 27.2841 36.9896 27.3015 36.9358C27.4252 36.8121 30.5795 36.8492 30.53 36.9729Z" fill="#134B7E"/>
<path d="M43.0735 39.6693C43.1106 39.8796 43.3827 39.8919 46.636 39.8919C49.8892 39.8919 50.1614 39.8796 50.1985 39.6693C50.2356 39.459 50.0006 39.459 46.636 39.459C43.2714 39.459 43.0364 39.4714 43.0735 39.6693Z" fill="#134B7E"/>
<path d="M55.3563 68.8875C53.2287 69.2338 51.4103 70.2481 49.9136 71.9057C49.159 72.7345 48.2189 74.5157 47.9344 75.6414C47.6623 76.7175 47.687 78.8946 47.9962 80.0821C49.0848 84.3497 53.2905 87.2071 57.7313 86.6999C59.3393 86.5144 61.3185 85.6856 62.3699 84.7455L62.7286 84.4239L62.1967 83.9044L61.6648 83.3848L60.799 83.9786C59.4754 84.8692 58.4116 85.1661 56.5932 85.1661C55.3686 85.1661 54.9728 85.1166 54.2801 84.8816C51.9793 84.0899 50.062 81.9994 49.4682 79.6492C49.1343 78.3256 49.1837 76.5443 49.6043 75.3445C49.963 74.3302 50.9402 72.8829 51.7443 72.1778C52.5236 71.4975 53.9956 70.7182 54.9233 70.4955C56.8159 70.0379 59.1414 70.4832 60.7742 71.6088L61.3185 71.9799L61.838 71.448L62.3699 70.9037L61.7885 70.4584C60.9176 69.8397 59.9469 69.3753 58.9188 69.0854C58.0529 68.8627 56.185 68.7514 55.3563 68.8875Z" fill="black"/>
<path d="M10.8483 68.9752C10.7988 69.0247 10.7617 70.6946 10.7617 72.6861C10.7617 76.1497 10.7493 76.3228 10.5267 76.4465C10.2422 76.595 1.88021 76.6197 1.64518 76.4713C1.52148 76.3971 1.48437 75.457 1.45963 72.7356L1.42252 69.0865L0.717447 69.0494L0 69.0123V86.8495L0.717447 86.8124L1.42252 86.7753L1.48437 82.4459L1.54622 78.1165H10.6999L10.7617 82.4459L10.8235 86.7753H12.1842V68.9628L11.5657 68.9257C11.2194 68.901 10.8978 68.9257 10.8483 68.9752Z" fill="black"/>
<path d="M29.3171 69.1583C27.8327 69.4552 26.2741 70.7045 25.569 72.2013L25.1732 73.0424L25.1361 79.9942L25.1113 86.9584H25.6556C26.5339 86.9584 26.5215 86.9955 26.5957 83.1361L26.6575 79.7221L28.8841 79.685L31.1107 79.6602L32.9043 83.2722L34.6979 86.8965L35.4153 86.9337C35.972 86.9584 36.1452 86.9337 36.1946 86.7728C36.2441 86.6615 35.539 85.1029 34.4629 82.9135C32.7806 79.5118 32.6569 79.2273 32.8672 79.0788C34.5989 77.9161 35.4648 76.5307 35.5885 74.7123C35.8359 71.1746 32.793 68.4779 29.3171 69.1583ZM31.9642 70.8777C32.7512 71.2323 33.3868 71.8547 33.7578 72.6342C34.0918 73.2774 34.1413 73.5248 34.1413 74.3536C34.1413 75.1824 34.0918 75.405 33.7331 76.0854C33.4991 76.5765 33.1514 77.0048 32.7187 77.3347C31.7663 78.0645 31.1849 78.1882 28.748 78.1511L26.6575 78.114V75.7019C26.6575 73.4135 26.6699 73.2651 26.9421 72.7332C27.474 71.7065 28.4635 70.8901 29.5026 70.6179C30.0716 70.4695 31.3828 70.6056 31.9642 70.8777Z" fill="black"/>
<path d="M41.539 76.5086C40.4749 76.7058 39.5079 77.2547 38.793 78.0671C37.692 79.2546 37.2715 80.4916 37.4075 82.1368C37.5068 83.2771 37.9905 84.3498 38.7793 85.1791C39.5682 86.0085 40.6154 86.5452 41.7493 86.7012C42.5781 86.8249 43.6914 86.7136 44.3717 86.4539C44.9036 86.2559 45.7695 85.6746 45.7695 85.5261C45.7695 85.4024 45.2623 84.8953 44.9407 84.6973C44.8665 84.6479 44.5202 84.7592 44.1614 84.9324C43.3565 85.3506 42.4205 85.4393 41.5514 85.1798C41.1803 85.0684 40.7474 84.8829 40.5989 84.7592L40.3021 84.5365L43.345 81.4812C45.0149 79.7989 46.388 78.3764 46.388 78.3269C46.388 78.1414 45.3366 77.2136 44.8418 76.9662C43.7038 76.4096 42.7142 76.2735 41.539 76.5086ZM43.7656 78.0919C43.9759 78.1661 44.1614 78.3145 44.1614 78.4135C44.1614 78.6485 39.597 83.2501 39.362 83.2501C39.0898 83.2501 38.8424 82.4337 38.8424 81.5554C38.8416 80.9649 38.983 80.3829 39.2547 79.8586C39.5265 79.3344 39.9205 78.8833 40.4034 78.5435C40.8864 78.2037 41.4441 77.9853 42.0293 77.9067C42.6145 77.8281 43.2101 77.8916 43.7656 78.0919Z" fill="black"/>
<path d="M17.3548 76.7439C16.0684 77.1644 14.8314 78.2654 14.25 79.5147C13.9531 80.1456 13.916 80.3558 13.916 81.6423C13.916 82.9659 13.9408 83.1143 14.2747 83.807C14.7448 84.7719 15.821 85.8357 16.7611 86.281C17.3301 86.5407 17.7383 86.6397 18.5547 86.6892C19.8411 86.7634 20.7689 86.5284 21.7337 85.8851C22.5872 85.3285 23.082 84.7347 23.5521 83.7452C23.9108 83.003 23.9355 82.8422 23.9355 81.6299C23.9355 80.3806 23.9232 80.294 23.4655 79.391C22.9704 78.3311 22.1158 77.4809 21.0534 76.9913C20.4596 76.6944 20.1628 76.6449 19.1113 76.6078C18.3073 76.5831 17.6888 76.6325 17.3548 76.7439ZM20.4349 78.2777C21.1894 78.6488 21.9935 79.4529 22.3027 80.1579C22.6862 81.0114 22.6491 82.3721 22.2285 83.2009C21.2884 85.044 19.1237 85.8233 17.3548 84.9698C16.6868 84.6482 15.821 83.7946 15.5117 83.1638C15.1901 82.4834 15.1406 81.197 15.4128 80.3806C15.6973 79.5023 16.7611 78.4385 17.6269 78.1417C18.4928 77.8448 19.6803 77.919 20.4349 78.2777Z" fill="black"/>
<path d="M68.071 76.6802C67.1336 76.9457 66.2894 77.4685 65.6341 78.1893C64.5703 79.3397 64.1992 80.2304 64.1992 81.7024C64.1992 82.7785 64.4342 83.5578 65.0033 84.4113C65.4212 85.0234 65.961 85.5426 66.5889 85.9364C67.2169 86.3302 67.9193 86.5901 68.6523 86.6997C69.5059 86.8482 73.9466 86.8853 74.2682 86.7616C74.4414 86.6997 74.4661 86.341 74.4661 84.1145C74.4661 81.3436 74.3795 80.5767 73.9342 79.6119C73.5013 78.6718 72.3633 77.509 71.4232 77.0513C70.7552 76.7173 70.4707 76.6555 69.5553 76.6184C69.0597 76.5922 68.5627 76.6129 68.071 76.6802ZM70.7799 78.3254C71.4479 78.6099 72.3756 79.5376 72.6849 80.2303C72.8704 80.6386 72.9075 81.0962 72.9075 83.0012L72.9199 85.2896L70.8913 85.3267C68.3555 85.3638 67.8483 85.2401 66.8835 84.3619C65.9186 83.4836 65.6341 82.7662 65.7207 81.455C65.7825 80.3788 65.931 79.9953 66.6113 79.2037C67.6133 78.0285 69.2832 77.6822 70.7799 78.3254Z" fill="black"/>
<path d="M1.02668 90.2992C0.692699 90.4353 0.321606 90.9795 0.408194 91.2146C0.482413 91.4125 0.902985 91.3506 1.29882 91.0785C1.79361 90.7445 2.35025 90.9548 2.35025 91.4743C2.35025 91.8083 2.12759 92.031 1.76887 92.031C1.53384 92.031 1.48436 92.0928 1.48436 92.4021C1.48436 92.7113 1.53384 92.7732 1.79361 92.7732C2.15233 92.7732 2.59764 93.169 2.59764 93.4906C2.59764 93.8122 2.20181 94.1338 1.76887 94.1338C1.39778 94.1338 0.989573 93.8122 0.989573 93.5401C0.989573 93.4535 0.804026 93.3917 0.54426 93.3917C0.111318 93.3917 0.111319 93.404 0.185538 93.7875C0.408194 94.8265 1.70702 95.2595 2.86978 94.6657C3.31509 94.4555 3.46353 94.1462 3.46353 93.4782C3.46353 93.07 3.38931 92.8721 3.16665 92.6618C2.86978 92.3897 2.86978 92.3526 3.05532 92.0681C3.16771 91.8758 3.23 91.6584 3.23648 91.4358C3.24297 91.2132 3.19344 90.9925 3.09243 90.794C2.8203 90.2868 1.70702 90.0271 1.02668 90.2992Z" fill="#134B7E"/>
<path d="M13.6186 90.3989C13.5196 90.5845 11.8621 94.2459 11.6642 94.716C11.6147 94.8273 11.7508 94.8768 12.0847 94.8768H12.5672L13.1856 93.3924C13.5196 92.576 13.8289 91.908 13.866 91.908C13.9031 91.908 14.2123 92.5636 14.5587 93.3553C15.1896 94.8026 15.1895 94.8149 15.6349 94.852C15.8823 94.8768 16.0802 94.8397 16.0802 94.7902C16.0802 94.6418 14.2247 90.5103 14.0763 90.3247C13.9031 90.1144 13.7547 90.1392 13.6186 90.3989Z" fill="#134B7E"/>
<path d="M32.545 90.336C31.5555 90.6577 30.9493 91.7215 31.0854 92.9337C31.2338 94.1212 31.9513 94.7768 33.213 94.851C34.6726 94.95 35.6251 94.0593 35.6251 92.5997C35.6251 91.7338 35.4148 91.1896 34.8953 90.7566C34.2521 90.2123 33.3986 90.0639 32.545 90.336ZM34.017 91.2267C34.8334 91.6472 34.9943 92.9337 34.3139 93.6511C34.0294 93.948 33.8686 94.0099 33.3614 94.0099C32.8543 94.0099 32.7058 93.948 32.3966 93.6511C32.0874 93.3543 32.0379 93.1935 32.0379 92.6121C32.0379 91.3627 33.0027 90.6948 34.017 91.2267Z" fill="#134B7E"/>
<path d="M51.5182 90.9433C51.3203 91.3762 50.8379 92.4153 50.4421 93.2564C50.0462 94.0975 49.7246 94.8026 49.7246 94.8274C49.7246 94.8521 49.9473 94.8768 50.2194 94.8768C50.64 94.8768 50.7389 94.8274 50.8997 94.5181C51.1224 94.0728 51.3698 93.9862 52.2109 94.0233C52.8542 94.0604 53.0892 94.1965 53.3737 94.6789C53.4603 94.8397 53.6211 94.8892 53.9427 94.8521L54.4004 94.815L53.3861 92.6503C52.8418 91.4628 52.3346 90.4114 52.2852 90.3248C52.0872 90.0155 51.8646 90.2011 51.5182 90.9433ZM52.3841 92.4276C52.4954 92.7245 52.6191 93.0337 52.6562 93.108C52.7057 93.2317 52.5449 93.2688 52.0872 93.2688C51.7409 93.2688 51.4564 93.2317 51.4564 93.1946C51.4564 93.0214 51.9883 91.9081 52.0749 91.9081C52.1243 91.9081 52.2728 92.1431 52.3841 92.4276Z" fill="#134B7E"/>
<path d="M57.7682 92.0931C57.1621 93.5527 56.9271 94.0104 56.7539 94.0104C56.5807 94.0104 56.5312 94.1217 56.5312 94.7526V95.4948H56.9023C57.2116 95.4948 57.2734 95.4453 57.2734 95.1855V94.8763H60.3659V95.1855C60.3659 95.4453 60.4277 95.4948 60.737 95.4948H61.1204L61.0833 94.7773C61.0462 94.1836 61.0091 94.0723 60.7988 94.0352C60.5885 93.998 60.3659 93.5651 59.7474 92.0931C59.2031 90.8066 58.8815 90.1758 58.7578 90.1758C58.6341 90.1758 58.3125 90.7943 57.7682 92.0931ZM59.2402 93.0332L59.599 93.9486L59.1784 93.9857C58.8985 94.0104 58.6171 94.0104 58.3372 93.9857L57.929 93.9486L58.3001 92.9219C58.5104 92.3405 58.7207 91.9447 58.7826 92.0065C58.9607 92.3367 59.1137 92.6799 59.2402 93.0332Z" fill="#134B7E"/>
<path d="M65.2011 90.2977C63.6054 90.6688 62.9374 92.8335 64.026 94.12C64.6692 94.8869 66.2525 95.1096 67.0195 94.5405C67.4029 94.256 67.9101 93.551 67.9101 93.3159C67.9101 93.0067 67.1184 93.217 66.7102 93.6252C66.1907 94.1447 65.4856 94.1571 64.929 93.6623C63.9641 92.8088 64.5702 91.0399 65.832 91.0399C66.1659 91.0399 66.9205 91.4728 66.9205 91.6584C66.9205 91.7202 67.1432 91.7821 67.4153 91.7821C67.8977 91.7821 67.8977 91.7821 67.774 91.4357C67.5637 90.9038 67.1679 90.5575 66.4999 90.3596C65.832 90.1617 65.8072 90.1493 65.2011 90.2977Z" fill="#134B7E"/>
<path d="M73.6361 90.2987C73.3144 90.4348 73.0299 90.843 72.9062 91.3502C72.7826 91.8573 72.5104 92.1542 72.0898 92.1542H71.7435V90.2987H70.7539V94.8755H71.7435V93.9602C71.7435 93.0943 71.7559 93.0448 72.0527 92.9953C72.4115 92.9211 72.5104 93.0325 73.1536 94.0963C73.6113 94.8755 73.6237 94.8755 74.1803 94.8755C74.737 94.8755 74.737 94.8755 74.5638 94.591C74.4648 94.4426 74.1432 93.9478 73.8587 93.4901L73.3268 92.649L73.6361 91.8821C73.8216 91.412 74.0566 91.0533 74.2051 90.9791C74.5143 90.843 74.5514 90.3606 74.2669 90.2492C74.0319 90.1627 73.9824 90.1627 73.6361 90.2987Z" fill="#134B7E"/>
<path d="M6.43359 92.5872V94.8756H9.15494V94.0221L8.26432 93.985L7.36133 93.9479L7.32422 93.416L7.28711 92.8965H9.03125V92.0306H7.28711L7.32422 91.5605L7.36133 91.1029L8.26432 91.0658L9.15494 91.0286V90.2988H6.43359V92.5872Z" fill="#134B7E"/>
<path d="M18.6797 92.5872V94.8756H21.5247V94.0098H19.6693V92.8965H21.401V92.0306H19.6693V91.041H21.5247V90.2988H18.6797V92.5872Z" fill="#134B7E"/>
<path d="M24.4922 92.5872V94.8756H24.987C25.2591 94.8756 25.4694 94.8385 25.4694 94.7767C25.4694 94.7148 25.457 94.2819 25.4694 93.7871L25.4818 92.8965H27.2135V94.8756H28.2031V90.2988H27.2135V92.0306H25.4818V90.2988H24.4922V92.5872Z" fill="#134B7E"/>
<path d="M38.5957 92.5872V94.8756H39.4616V91.1647L40.179 91.1523C40.5625 91.14 40.9831 91.14 41.1068 91.1523C41.2676 91.1771 41.3171 91.0905 41.3171 90.7441V90.2988H38.5957V92.5872Z" fill="#134B7E"/>
<path d="M44.0371 92.5872V94.8756H44.4701C44.7298 94.8756 44.903 94.8138 44.9154 94.7148C44.9154 94.6406 44.9277 94.3437 44.9401 94.0716L44.9648 93.5768L45.7689 93.515C46.2142 93.4779 46.6966 93.3789 46.845 93.2923C47.4635 92.946 47.6986 91.7832 47.3151 91.041C47.0182 90.4596 46.5605 90.2988 45.2122 90.2988H44.0371V92.5872ZM46.3874 91.2884C46.5437 91.4596 46.6293 91.6837 46.627 91.9155C46.6247 92.1473 46.5347 92.3697 46.375 92.5378C46.1771 92.7357 46.0039 92.7728 45.5462 92.748L44.9648 92.7109L44.9277 91.8698L44.8906 91.041H45.5215C45.9792 91.041 46.2018 91.1029 46.3874 91.2884Z" fill="#134B7E"/>
<path d="M36.5849 32.1346C36.9651 32.1633 37.3465 32.1722 37.7276 32.1613C39.8861 32.1021 41.9794 31.4161 43.7455 30.1891C45.5116 28.9622 46.8719 27.2488 47.6562 25.2635C47.276 25.2353 46.8946 25.2264 46.5134 25.2367C44.3549 25.2958 42.2615 25.9817 40.4954 27.2087C38.7293 28.4357 37.369 30.1492 36.5849 32.1346Z" fill="#EBD237"/>
<path d="M26.9383 24.8818C27.7515 26.9793 29.1644 28.7892 30.9996 30.0844C32.8349 31.3795 35.0108 32.1023 37.2543 32.1619C37.5931 32.1708 37.9272 32.1645 38.2555 32.1443C37.4417 30.0459 36.0279 28.2354 34.1914 26.9401C32.355 25.6449 30.1778 24.9226 27.9332 24.864C27.6107 24.8555 27.2691 24.8616 26.9383 24.8818Z" fill="#B9BEDE"/>
<path d="M37.3105 42.6738C37.8778 42.0177 39.3353 39.9461 39.3353 36.5813C39.3971 33.2109 37.9566 31.1004 37.4504 30.4277C36.7977 31.2784 35.377 33.2165 35.377 36.5813C35.377 39.9461 36.6579 41.9584 37.3105 42.6738Z" fill="#3899CF"/>
<path d="M37.505 32.3432C37.8293 32.3432 38.2166 32.3126 38.5312 32.285C38.2459 31.6058 37.8272 30.9734 37.4113 30.3652C36.9989 30.9691 36.5887 31.6111 36.3047 32.285C36.6838 32.3233 37.124 32.3439 37.505 32.3432Z" fill="#3272BD"/>
</g>
<defs>
<clipPath id="clip0_929_1179">
<rect width="74.6664" height="95.495" fill="white"/>
</clipPath>
</defs>
</svg>
