<svg width="186" height="80" viewBox="0 0 186 80" fill="none" xmlns="http://www.w3.org/2000/svg">
<path fill-rule="evenodd" clip-rule="evenodd" d="M1 1V79H185V1H1Z" fill="#1B1918" stroke="#1B1918" stroke-width="0.755867"/>
<path fill-rule="evenodd" clip-rule="evenodd" d="M72.6101 22.3112V20.8008H52.1907H51.2713H50.666V32.5858H51.2713H52.1907H72.6101V31.0754H52.1907V22.3112H72.6101Z" fill="white"/>
<path fill-rule="evenodd" clip-rule="evenodd" d="M19.75 20.801V22.3114H38.9309L24.9166 36.1936L25.9946 37.2614L41.0868 22.3114H41.0889V22.3093V22.1068V20.8008L19.75 20.801Z" fill="white"/>
<path fill-rule="evenodd" clip-rule="evenodd" d="M102.452 43.1101L95.1055 36.0805L96.1648 34.9941L103.512 42.0238L102.452 43.1101Z" fill="white"/>
<path fill-rule="evenodd" clip-rule="evenodd" d="M72.6101 42.8599H50.666V41.3496H72.6101V42.8599Z" fill="white"/>
<path fill-rule="evenodd" clip-rule="evenodd" d="M41.0888 42.8599H19.75V41.3496H41.0888V42.8599Z" fill="white"/>
<path fill-rule="evenodd" clip-rule="evenodd" d="M133.81 43.0063H132.285V20.8008H133.81V43.0063Z" fill="white"/>
<path fill-rule="evenodd" clip-rule="evenodd" d="M112.47 20.8008H112.466H111.906H110.945V43.0062H112.47V22.941L126.197 36.5385L127.275 35.4706L112.47 20.8008Z" fill="white"/>
<path fill-rule="evenodd" clip-rule="evenodd" d="M103.513 26.6931C103.513 23.4818 100.911 20.8665 97.691 20.8065V20.8008H81.4121V22.3113H97.5785C100.01 22.3113 101.988 24.2769 101.988 26.6931C101.988 29.1083 100.012 31.0733 97.582 31.0751H81.4121V32.5855H97.5785H97.5818H97.6908V32.5801C100.911 32.5198 103.513 29.9046 103.513 26.6931Z" fill="white"/>
<path fill-rule="evenodd" clip-rule="evenodd" d="M154.816 20.8008C148.513 20.8008 143.385 25.7488 143.385 31.8307C143.385 33.7617 143.903 35.5775 144.811 37.1576L145.936 36.0434C145.28 34.7725 144.909 33.3425 144.909 31.8307C144.909 26.5817 149.354 22.3112 154.816 22.3112C160.279 22.3112 164.723 26.5817 164.723 31.8307C164.723 37.0795 160.279 41.35 154.816 41.35C154.257 41.35 153.71 41.3033 153.177 41.2172L151.889 42.4923C152.824 42.7313 153.805 42.8605 154.816 42.8605C161.12 42.8605 166.248 37.9125 166.248 31.8307C166.248 25.7488 161.12 20.8008 154.816 20.8008Z" fill="white"/>
<path fill-rule="evenodd" clip-rule="evenodd" d="M19.7539 49.9368H20.6154V51.0892C20.9175 50.6645 21.2255 50.3529 21.5443 50.1563C21.9814 49.9013 22.4418 49.7735 22.9231 49.7735C23.2503 49.7735 23.5586 49.8363 23.8519 49.9638C24.1456 50.0893 24.3842 50.2589 24.5701 50.4679C24.7557 50.6791 24.9161 50.9803 25.0535 51.3735C25.3406 50.8508 25.7016 50.4534 26.1324 50.1815C26.5652 49.9096 27.0295 49.7735 27.5279 49.7735C27.9925 49.7735 28.4041 49.8906 28.7588 50.1228C29.1156 50.355 29.3796 50.6791 29.5527 51.0954C29.7257 51.5117 29.8125 52.1347 29.8125 52.9673V56.6H28.9256V52.9653C28.9256 52.2497 28.8749 51.7605 28.7714 51.4927C28.6681 51.225 28.4927 51.0097 28.2437 50.8466C27.9946 50.6835 27.6988 50.602 27.3528 50.602C26.9346 50.602 26.5502 50.7253 26.2042 50.9699C25.8558 51.2146 25.6025 51.5408 25.4418 51.9488C25.2814 52.3565 25.2011 53.0382 25.2011 53.9921V56.6H24.3399V53.1909C24.3399 52.3879 24.289 51.842 24.1878 51.5535C24.0863 51.2647 23.9112 51.0349 23.6601 50.8611C23.4065 50.6877 23.109 50.602 22.7626 50.602C22.3615 50.602 21.9876 50.7212 21.6395 50.9596C21.291 51.198 21.0333 51.52 20.8666 51.9236C20.6998 52.3271 20.6154 52.9463 20.6154 53.7786V56.6H19.7539V49.9368ZM39.7978 49.9368V56.6H38.9363V55.454C38.5732 55.891 38.1679 56.2193 37.7162 56.4369C37.2662 56.6543 36.7723 56.7631 36.238 56.7631C35.2878 56.7631 34.4751 56.4221 33.8016 55.7404C33.128 55.0567 32.7925 54.2284 32.7925 53.2496C32.7925 52.2939 33.1323 51.474 33.8121 50.7941C34.4898 50.1145 35.307 49.7735 36.2634 49.7735C36.8145 49.7735 37.3126 49.8886 37.7605 50.1186C38.2059 50.3488 38.5986 50.696 38.9363 51.1624V49.9368H39.7978ZM36.3311 50.602C35.8497 50.602 35.404 50.7188 34.9987 50.9531C34.5913 51.1852 34.2683 51.5138 34.0276 51.936C33.7869 52.3585 33.6666 52.8063 33.6666 53.279C33.6666 53.7451 33.7869 54.1929 34.0297 54.6195C34.2725 55.0459 34.5976 55.3786 35.007 55.615C35.4169 55.8534 35.856 55.9726 36.3248 55.9726C36.7953 55.9726 37.2453 55.8555 37.6674 55.6192C38.0918 55.3828 38.4169 55.0649 38.645 54.6614C38.8731 54.2599 38.9872 53.8059 38.9872 53.3018C38.9872 52.5344 38.7315 51.8921 38.2184 51.3756C37.7075 50.859 37.0786 50.602 36.3311 50.602ZM42.8813 49.9368H43.768V50.9113C44.032 50.5267 44.3107 50.242 44.6041 50.054C44.8977 49.8678 45.2037 49.7735 45.5204 49.7735C45.761 49.7735 46.0167 49.8488 46.2891 49.9995L45.8371 50.7188C45.6557 50.6417 45.5036 50.602 45.3791 50.602C45.0899 50.602 44.8112 50.7188 44.543 50.9531C44.2748 51.1873 44.0701 51.5535 43.9284 52.0469C43.821 52.4256 43.768 53.193 43.768 54.3477V56.6H42.8813V49.9368ZM48.4815 47.3642H49.343V52.6305L52.4847 49.9368H53.7389L50.0354 53.1114L53.9542 56.6H52.7274L49.343 53.5862V56.6H48.4815V47.3642ZM61.9802 54.3915L62.7109 54.7723C62.4702 55.2343 62.1936 55.6088 61.879 55.8931C61.5644 56.1754 61.2118 56.3931 60.819 56.5416C60.4242 56.6899 59.9808 56.7631 59.4845 56.7631C58.3826 56.7631 57.5232 56.4076 56.9024 55.6965C56.2818 54.9855 55.9714 54.1825 55.9714 53.2873C55.9714 52.4442 56.2354 51.6914 56.7611 51.0325C57.4263 50.194 58.3192 49.7735 59.4361 49.7735C60.5867 49.7735 61.5072 50.2043 62.1936 51.064C62.6813 51.6706 62.9303 52.4276 62.9387 53.3374H56.8581C56.8752 54.1093 57.1263 54.7408 57.6097 55.2322C58.0953 55.7259 58.6952 55.9726 59.4064 55.9726C59.7507 55.9726 60.0865 55.9142 60.4116 55.7971C60.7367 55.6799 61.0133 55.5251 61.2414 55.3306C61.4692 55.1361 61.7165 54.8245 61.9802 54.3915ZM61.9885 52.597C61.8727 52.1391 61.7036 51.775 61.4821 51.501C61.2582 51.227 60.9648 51.0076 60.5993 50.8404C60.2341 50.6729 59.85 50.5892 59.4489 50.5892C58.7838 50.5892 58.2135 50.7986 57.7363 51.2187C57.3861 51.5262 57.1242 51.9844 56.9446 52.597H61.9885ZM66.7401 47.452H67.6016V49.9368H68.9696V50.677H67.6016V56.6H66.7401V50.677H65.5618V49.9368H66.7401V47.452ZM72.0469 47.2012C72.2432 47.2012 72.41 47.2703 72.5495 47.4102C72.6887 47.5483 72.7584 47.7177 72.7584 47.9122C72.7584 48.1046 72.6887 48.2719 72.5495 48.4101C72.41 48.55 72.2432 48.6191 72.0469 48.6191C71.8526 48.6191 71.6879 48.55 71.5484 48.4101C71.4093 48.2719 71.3395 48.1046 71.3395 47.9122C71.3395 47.7177 71.4093 47.5483 71.5484 47.4102C71.6879 47.2703 71.8526 47.2012 72.0469 47.2012ZM71.6182 49.9368H72.4797V56.6H71.6182V49.9368ZM75.7405 49.9368H76.602V51.131C76.9504 50.6749 77.3345 50.3342 77.7548 50.1104C78.1772 49.8864 78.6351 49.7735 79.1315 49.7735C79.6359 49.7735 80.0837 49.8992 80.474 50.1522C80.8647 50.4054 81.1541 50.7461 81.3398 51.1749C81.5256 51.6015 81.6185 52.2687 81.6185 53.1743V56.6H80.7572V53.4252C80.7572 52.6598 80.7234 52.1474 80.6579 51.8901C80.5522 51.4509 80.3582 51.1206 80.0729 50.8967C79.7879 50.6749 79.4165 50.5643 78.9581 50.5643C78.4325 50.5643 77.9617 50.7357 77.548 51.0788C77.1319 51.4195 76.8573 51.8441 76.7265 52.3503C76.6442 52.6806 76.602 53.2831 76.602 54.1593V56.6H75.7405V49.9368ZM90.7407 49.9368H91.6019V55.2405C91.6019 56.1733 91.5196 56.8574 91.355 57.2903C91.1289 57.9009 90.7365 58.3714 90.1746 58.7018C89.6151 59.0324 88.9417 59.1976 88.1564 59.1976C87.5799 59.1976 87.0626 59.116 86.6022 58.955C86.1443 58.7919 85.7706 58.5743 85.4812 58.3003C85.1941 58.0284 84.928 57.6269 84.6852 57.1021H85.6228C85.8781 57.5453 86.2077 57.8736 86.613 58.0871C87.0162 58.3003 87.5188 58.407 88.1163 58.407C88.7072 58.407 89.2056 58.2982 89.611 58.0829C90.0184 57.8653 90.3079 57.5934 90.4809 57.2672C90.6539 56.9389 90.7407 56.4097 90.7407 55.6758V55.3327C90.4153 55.7404 90.0163 56.0542 89.5457 56.2718C89.0769 56.4912 88.5764 56.6 88.0487 56.6C87.4299 56.6 86.8495 56.4473 86.3047 56.144C85.7599 55.841 85.3399 55.4308 85.042 54.9184C84.7445 54.404 84.5966 53.8394 84.5966 53.2244C84.5966 52.6077 84.7508 52.0345 85.0612 51.501C85.3692 50.9699 85.7979 50.5474 86.3448 50.2379C86.8917 49.9282 87.4679 49.7735 88.0741 49.7735C88.5764 49.7735 89.0473 49.8761 89.4822 50.0789C89.9172 50.2817 90.3375 50.6206 90.7407 51.0954V49.9368ZM88.1837 50.602C87.6939 50.602 87.2378 50.7188 86.8178 50.9531C86.3975 51.1873 86.0682 51.5117 85.8296 51.9256C85.591 52.3399 85.4707 52.7873 85.4707 53.2704C85.4707 54.0004 85.7177 54.6027 86.2119 55.0815C86.7058 55.5587 87.3476 55.7971 88.1331 55.7971C88.9291 55.7971 89.5688 55.5607 90.0522 55.0881C90.5359 54.613 90.7787 53.9921 90.7787 53.2203C90.7787 52.7183 90.6667 52.2708 90.4449 51.8776C90.2234 51.4844 89.9067 51.1728 89.499 50.9447C89.0916 50.7167 88.6524 50.602 88.1837 50.602ZM104.953 51.3213L104.267 51.7439C103.671 50.9658 102.859 50.5768 101.828 50.5768C101.005 50.5768 100.321 50.8383 99.7758 51.359C99.2334 51.8797 98.961 52.5113 98.961 53.2559C98.961 53.741 99.0855 54.197 99.3367 54.6237C99.5861 55.0504 99.93 55.3828 100.367 55.6192C100.802 55.8555 101.292 55.9726 101.834 55.9726C102.827 55.9726 103.638 55.5836 104.267 54.8055L104.953 55.2533C104.63 55.7321 104.197 56.1022 103.654 56.3679C103.11 56.6315 102.491 56.7631 101.796 56.7631C100.728 56.7631 99.8435 56.4287 99.1403 55.7615C98.4374 55.0922 98.087 54.2806 98.087 53.3229C98.087 52.6806 98.2516 52.0825 98.5808 51.5304C98.9083 50.9783 99.3601 50.5474 99.9342 50.2379C100.511 49.9282 101.153 49.7735 101.864 49.7735C102.312 49.7735 102.742 49.8405 103.158 49.9745C103.572 50.1083 103.925 50.2838 104.214 50.4994C104.505 50.7147 104.75 50.9886 104.953 51.3213ZM111.263 49.7735C112.299 49.7735 113.16 50.1438 113.843 50.8863C114.463 51.5618 114.774 52.3627 114.774 53.2873C114.774 54.2157 114.446 55.0273 113.79 55.7217C113.135 56.4159 112.291 56.7631 111.263 56.7631C110.228 56.7631 109.381 56.4159 108.727 55.7217C108.07 55.0273 107.743 54.2157 107.743 53.2873C107.743 52.3669 108.053 51.568 108.674 50.8926C109.356 50.1459 110.219 49.7735 111.263 49.7735ZM111.258 50.6144C110.538 50.6144 109.922 50.8756 109.405 51.4008C108.887 51.9256 108.63 52.5614 108.63 53.306C108.63 53.7848 108.748 54.2326 108.982 54.6486C109.219 55.0629 109.538 55.3828 109.939 55.6088C110.338 55.8347 110.779 55.9474 111.258 55.9474C111.738 55.9474 112.179 55.8347 112.578 55.6088C112.979 55.3828 113.298 55.0629 113.535 54.6486C113.769 54.2326 113.887 53.7848 113.887 53.306C113.887 52.5614 113.627 51.9256 113.108 51.4008C112.591 50.8756 111.974 50.6144 111.258 50.6144ZM117.828 49.9368H118.689V51.0892C118.991 50.6645 119.299 50.3529 119.618 50.1563C120.055 49.9013 120.516 49.7735 120.997 49.7735C121.324 49.7735 121.632 49.8363 121.926 49.9638C122.219 50.0893 122.458 50.2589 122.644 50.4679C122.83 50.6791 122.99 50.9803 123.127 51.3735C123.414 50.8508 123.775 50.4534 124.206 50.1815C124.639 49.9096 125.103 49.7735 125.602 49.7735C126.066 49.7735 126.478 49.8906 126.833 50.1228C127.19 50.355 127.454 50.6791 127.627 51.0954C127.8 51.5117 127.886 52.1347 127.886 52.9673V56.6H126.999V52.9653C126.999 52.2497 126.949 51.7605 126.845 51.4927C126.742 51.225 126.567 51.0097 126.318 50.8466C126.068 50.6835 125.773 50.602 125.427 50.602C125.008 50.602 124.624 50.7253 124.278 50.9699C123.93 51.2146 123.676 51.5408 123.516 51.9488C123.355 52.3565 123.275 53.0382 123.275 53.9921V56.6H122.414V53.1909C122.414 52.3879 122.363 51.842 122.262 51.5535C122.16 51.2647 121.985 51.0349 121.734 50.8611C121.48 50.6877 121.183 50.602 120.837 50.602C120.435 50.602 120.062 50.7212 119.713 50.9596C119.365 51.198 119.107 51.52 118.94 51.9236C118.774 52.3271 118.689 52.9463 118.689 53.7786V56.6H117.828V49.9368ZM131.183 49.9368H132.044V51.1624C132.386 50.696 132.779 50.3488 133.225 50.1186C133.67 49.8886 134.166 49.7735 134.715 49.7735C135.672 49.7735 136.489 50.1145 137.168 50.7941C137.848 51.474 138.188 52.2939 138.188 53.2496C138.188 54.2284 137.85 55.0567 137.177 55.7404C136.504 56.4221 135.691 56.7631 134.738 56.7631C134.204 56.7631 133.712 56.6522 133.263 56.4328C132.813 56.211 132.407 55.8828 132.044 55.4456V59.0345H131.183V49.9368ZM134.652 50.602C133.902 50.602 133.273 50.859 132.762 51.3756C132.249 51.8921 131.994 52.5344 131.994 53.3018C131.994 53.8059 132.108 54.2599 132.336 54.6614C132.564 55.0649 132.891 55.3828 133.315 55.6192C133.742 55.8555 134.191 55.9726 134.662 55.9726C135.127 55.9726 135.564 55.8534 135.974 55.615C136.383 55.3786 136.708 55.0459 136.951 54.6195C137.194 54.1929 137.314 53.7451 137.314 53.279C137.314 52.8063 137.194 52.3585 136.953 51.936C136.713 51.5138 136.39 51.1852 135.982 50.9531C135.577 50.7188 135.131 50.602 134.652 50.602ZM147.973 49.9368V56.6H147.112V55.454C146.749 55.891 146.343 56.2193 145.892 56.4369C145.442 56.6543 144.948 56.7631 144.414 56.7631C143.463 56.7631 142.651 56.4221 141.977 55.7404C141.304 55.0567 140.968 54.2284 140.968 53.2496C140.968 52.2939 141.308 51.474 141.988 50.7941C142.665 50.1145 143.483 49.7735 144.439 49.7735C144.99 49.7735 145.488 49.8886 145.936 50.1186C146.381 50.3488 146.774 50.696 147.112 51.1624V49.9368H147.973ZM144.507 50.602C144.025 50.602 143.58 50.7188 143.174 50.9531C142.767 51.1852 142.444 51.5138 142.203 51.936C141.962 52.3585 141.842 52.8063 141.842 53.279C141.842 53.7451 141.962 54.1929 142.205 54.6195C142.448 55.0459 142.773 55.3786 143.183 55.615C143.592 55.8534 144.032 55.9726 144.5 55.9726C144.971 55.9726 145.421 55.8555 145.843 55.6192C146.267 55.3828 146.592 55.0649 146.821 54.6614C147.049 54.2599 147.163 53.8059 147.163 53.3018C147.163 52.5344 146.907 51.8921 146.394 51.3756C145.883 50.859 145.254 50.602 144.507 50.602ZM151.386 49.9368H152.248V51.131C152.596 50.6749 152.98 50.3342 153.401 50.1104C153.823 49.8864 154.281 49.7735 154.777 49.7735C155.282 49.7735 155.729 49.8992 156.12 50.1522C156.51 50.4054 156.8 50.7461 156.985 51.1749C157.171 51.6015 157.264 52.2687 157.264 53.1743V56.6H156.403V53.4252C156.403 52.6598 156.369 52.1474 156.304 51.8901C156.198 51.4509 156.004 51.1206 155.719 50.8967C155.434 50.6749 155.062 50.5643 154.604 50.5643C154.078 50.5643 153.607 50.7357 153.194 51.0788C152.778 51.4195 152.503 51.8441 152.372 52.3503C152.29 52.6806 152.248 53.2831 152.248 54.1593V56.6H151.386V49.9368ZM159.85 49.9368H160.749L163.069 55.0459L165.324 49.9368H166.247L162.231 59.0345H161.309L162.626 56.0521L159.85 49.9368Z" fill="white"/>
</svg>
